<svg xmlns="http://www.w3.org/2000/svg" xmlns:xlink="http://www.w3.org/1999/xlink" width="40" zoomAndPan="magnify" viewBox="0 0 30 30.000001" height="40" preserveAspectRatio="xMidYMid meet" version="1.0"><defs><clipPath id="c1a02604ff"><path d="M 0.484375 0 L 29.515625 0 L 29.515625 29.03125 L 0.484375 29.03125 Z M 0.484375 0 " clip-rule="nonzero"/></clipPath><clipPath id="11d3be670a"><path d="M 9.339844 8 L 15 8 L 15 12 L 9.339844 12 Z M 9.339844 8 " clip-rule="nonzero"/></clipPath><clipPath id="b870e3471f"><path d="M 10 19 L 16 19 L 16 23.773438 L 10 23.773438 Z M 10 19 " clip-rule="nonzero"/></clipPath><clipPath id="a217a80506"><path d="M 9.339844 18 L 11 18 L 11 23.773438 L 9.339844 23.773438 Z M 9.339844 18 " clip-rule="nonzero"/></clipPath><clipPath id="f36eabca6f"><path d="M 9.339844 13 L 11 13 L 11 19 L 9.339844 19 Z M 9.339844 13 " clip-rule="nonzero"/></clipPath><clipPath id="c282d517d8"><path d="M 9.339844 13 L 16 13 L 16 19 L 9.339844 19 Z M 9.339844 13 " clip-rule="nonzero"/></clipPath><clipPath id="eade90f926"><path d="M 9.339844 10 L 15 10 L 15 14 L 9.339844 14 Z M 9.339844 10 " clip-rule="nonzero"/></clipPath><clipPath id="1196f79c8f"><path d="M 11 7.078125 L 14 7.078125 L 14 9 L 11 9 Z M 11 7.078125 " clip-rule="nonzero"/></clipPath><clipPath id="3ac49110f6"><path d="M 10 7.078125 L 14 7.078125 L 14 9 L 10 9 Z M 10 7.078125 " clip-rule="nonzero"/></clipPath><clipPath id="20bc6cfd47"><path d="M 12 7.078125 L 14 7.078125 L 14 9 L 12 9 Z M 12 7.078125 " clip-rule="nonzero"/></clipPath><clipPath id="b9378451b3"><path d="M 10 7.078125 L 12 7.078125 L 12 9 L 10 9 Z M 10 7.078125 " clip-rule="nonzero"/></clipPath><clipPath id="7d43eb3cb0"><path d="M 16 14 L 20.953125 14 L 20.953125 18 L 16 18 Z M 16 14 " clip-rule="nonzero"/></clipPath><clipPath id="ababd2062f"><path d="M 19 8 L 20.953125 8 L 20.953125 15 L 19 15 Z M 19 8 " clip-rule="nonzero"/></clipPath><clipPath id="14daea4f62"><path d="M 17 7.078125 L 20 7.078125 L 20 9 L 17 9 Z M 17 7.078125 " clip-rule="nonzero"/></clipPath><clipPath id="b1e16e426d"><path d="M 17 7.078125 L 19 7.078125 L 19 9 L 17 9 Z M 17 7.078125 " clip-rule="nonzero"/></clipPath><clipPath id="e2c0300585"><path d="M 18 7.078125 L 20 7.078125 L 20 9 L 18 9 Z M 18 7.078125 " clip-rule="nonzero"/></clipPath><clipPath id="a29d17ddc1"><path d="M 20 14 L 20.953125 14 L 20.953125 18 L 20 18 Z M 20 14 " clip-rule="nonzero"/></clipPath><clipPath id="f31b506a66"><path d="M 20 17 L 20.953125 17 L 20.953125 23 L 20 23 Z M 20 17 " clip-rule="nonzero"/></clipPath><clipPath id="c32097023c"><path d="M 16 22 L 18 22 L 18 23.773438 L 16 23.773438 Z M 16 22 " clip-rule="nonzero"/></clipPath><clipPath id="ca0db22a8d"><path d="M 16 14 L 20.953125 14 L 20.953125 18 L 16 18 Z M 16 14 " clip-rule="nonzero"/></clipPath><clipPath id="2e658b6b9b"><path d="M 16 17 L 20.953125 17 L 20.953125 23 L 16 23 Z M 16 17 " clip-rule="nonzero"/></clipPath><clipPath id="114f46bca4"><path d="M 16 10 L 20.953125 10 L 20.953125 15 L 16 15 Z M 16 10 " clip-rule="nonzero"/></clipPath><clipPath id="de3b3e96c9"><path d="M 16 17 L 20.953125 17 L 20.953125 23 L 16 23 Z M 16 17 " clip-rule="nonzero"/></clipPath><clipPath id="f2b2188f6f"><path d="M 20 17 L 20.953125 17 L 20.953125 23 L 20 23 Z M 20 17 " clip-rule="nonzero"/></clipPath><clipPath id="bf2542ea85"><path d="M 16 22 L 20.953125 22 L 20.953125 23.773438 L 16 23.773438 Z M 16 22 " clip-rule="nonzero"/></clipPath><clipPath id="721f60f578"><path d="M 16 22 L 18 22 L 18 23.773438 L 16 23.773438 Z M 16 22 " clip-rule="nonzero"/></clipPath><clipPath id="97a2c68e72"><path d="M 17 22 L 20.953125 22 L 20.953125 23.773438 L 17 23.773438 Z M 17 22 " clip-rule="nonzero"/></clipPath><clipPath id="4a9756abab"><path d="M 16 15 L 20.953125 15 L 20.953125 17 L 16 17 Z M 16 15 " clip-rule="nonzero"/></clipPath><clipPath id="3fd5069308"><path d="M 12 15 L 17 15 L 17 23.773438 L 12 23.773438 Z M 12 15 " clip-rule="nonzero"/></clipPath><clipPath id="ab8a5e95e9"><path d="M 12 14 L 18 14 L 18 23.773438 L 12 23.773438 Z M 12 14 " clip-rule="nonzero"/></clipPath><clipPath id="ebfee6be6f"><path d="M 12 15 L 14 15 L 14 23.773438 L 12 23.773438 Z M 12 15 " clip-rule="nonzero"/></clipPath><clipPath id="36b2733150"><path d="M 15 15 L 17 15 L 17 23.773438 L 15 23.773438 Z M 15 15 " clip-rule="nonzero"/></clipPath></defs><g clip-path="url(#c1a02604ff)"><path fill="#ffffff" d="M 0.484375 0 L 29.515625 0 L 29.515625 36.289062 L 0.484375 36.289062 Z M 0.484375 0 " fill-opacity="1" fill-rule="nonzero"/><path fill="#ffffff" d="M 0.484375 0 L 29.515625 0 L 29.515625 29.03125 L 0.484375 29.03125 Z M 0.484375 0 " fill-opacity="1" fill-rule="nonzero"/><path fill="#ffffff" d="M 0.484375 0 L 29.515625 0 L 29.515625 29.03125 L 0.484375 29.03125 Z M 0.484375 0 " fill-opacity="1" fill-rule="nonzero"/></g><g clip-path="url(#11d3be670a)"><path fill="#ffffff" d="M 10.824219 8.617188 C 10.824219 8.617188 10.875 9.046875 10.59375 9.21875 C 10.3125 9.390625 9.699219 10.761719 9.738281 10.921875 C 9.773438 10.878906 9.820312 10.988281 9.886719 10.988281 C 11.15625 10.996094 12.371094 11.035156 13.640625 11.03125 C 13.703125 11.03125 13.992188 11.03125 14.046875 11.03125 C 13.898438 10.707031 13.609375 10.21875 13.398438 9.925781 C 13.214844 9.679688 13.003906 9.453125 12.820312 9.207031 C 12.707031 9.058594 12.691406 8.878906 12.695312 8.710938 C 12.171875 8.710938 11.621094 8.699219 11.101562 8.699219 C 11.027344 8.699219 10.96875 8.730469 10.9375 8.640625 C 10.894531 8.632812 10.84375 8.640625 10.824219 8.617188 Z M 10.824219 8.617188 " fill-opacity="1" fill-rule="evenodd"/></g><g clip-path="url(#b870e3471f)"><path fill="#7d3127" d="M 14.753906 22.917969 C 14.511719 23.15625 14.210938 23.097656 13.914062 23.066406 C 13.789062 23.050781 13.660156 23.007812 13.539062 22.953125 C 13.414062 22.90625 13.308594 22.90625 13.195312 22.964844 C 12.703125 23.230469 12.175781 23.179688 11.65625 23.128906 C 11.5 23.117188 11.355469 23.050781 11.21875 22.984375 C 11.074219 22.914062 10.9375 22.894531 10.792969 22.972656 C 10.738281 23.003906 10.667969 23.007812 10.605469 23.027344 C 10.53125 23.050781 10.476562 23.019531 10.429688 22.972656 C 10.269531 22.816406 10.164062 22.632812 10.164062 22.410156 C 10.164062 21.449219 10.164062 20.492188 10.167969 19.53125 C 10.167969 19.390625 10.179688 19.25 10.351562 19.1875 C 10.4375 19.207031 10.523438 19.207031 10.621094 19.207031 C 11.355469 19.207031 12.09375 19.210938 12.839844 19.207031 C 13.507812 19.199219 14.183594 19.21875 14.859375 19.207031 C 14.941406 19.210938 14.980469 19.265625 15.011719 19.332031 C 15.042969 19.410156 15.046875 19.5 15.046875 19.582031 C 15.046875 20.472656 15.046875 21.363281 15.046875 22.261719 C 15.046875 22.441406 15.003906 22.613281 14.910156 22.773438 C 14.871094 22.839844 14.828125 22.894531 14.753906 22.917969 Z M 14.753906 22.917969 " fill-opacity="1" fill-rule="evenodd"/></g><g clip-path="url(#a217a80506)"><path fill="#88452e" d="M 10.351562 19.195312 C 10.242188 19.265625 10.210938 19.378906 10.210938 19.488281 C 10.207031 20.472656 10.207031 21.460938 10.207031 22.445312 C 10.207031 22.683594 10.40625 22.960938 10.605469 23.027344 C 10.382812 23.109375 10.144531 23.109375 9.914062 23.074219 C 9.648438 23.039062 9.429688 22.761719 9.394531 22.46875 C 9.378906 22.398438 9.378906 22.328125 9.378906 22.253906 C 9.378906 21.363281 9.378906 20.46875 9.378906 19.578125 C 9.378906 19.433594 9.375 19.300781 9.53125 19.199219 C 9.648438 19.117188 9.597656 18.800781 9.472656 18.722656 C 9.410156 18.679688 9.394531 18.621094 9.386719 18.5625 C 9.378906 18.464844 9.386719 18.371094 9.386719 18.28125 C 9.410156 18.257812 9.441406 18.246094 9.480469 18.246094 C 9.710938 18.25 9.949219 18.226562 10.1875 18.257812 C 10.269531 18.316406 10.242188 18.398438 10.242188 18.476562 C 10.242188 18.585938 10.269531 18.679688 10.363281 18.753906 C 10.476562 18.925781 10.476562 19.085938 10.351562 19.195312 Z M 10.351562 19.195312 " fill-opacity="1" fill-rule="evenodd"/></g><g clip-path="url(#f36eabca6f)"><path fill="#e63a31" d="M 9.386719 18.257812 C 9.386719 18.21875 9.378906 18.191406 9.378906 18.160156 C 9.378906 16.761719 9.378906 15.371094 9.378906 13.972656 C 9.378906 13.941406 9.386719 13.917969 9.386719 13.894531 C 9.417969 13.863281 9.460938 13.851562 9.503906 13.84375 C 9.695312 13.84375 9.886719 13.839844 10.082031 13.851562 C 10.117188 13.851562 10.15625 13.855469 10.1875 13.882812 C 10.230469 13.941406 10.226562 14.011719 10.226562 14.078125 C 10.226562 15.410156 10.226562 16.738281 10.226562 18.070312 C 10.226562 18.128906 10.230469 18.195312 10.1875 18.25 C 9.925781 18.28125 9.65625 18.273438 9.386719 18.257812 Z M 9.386719 18.257812 " fill-opacity="1" fill-rule="evenodd"/></g><g clip-path="url(#c282d517d8)"><path fill="#d5272c" d="M 9.386719 18.257812 C 9.648438 18.257812 9.917969 18.257812 10.179688 18.257812 C 10.230469 18.207031 10.292969 18.207031 10.355469 18.207031 C 11.601562 18.207031 12.851562 18.207031 14.105469 18.207031 C 14.140625 18.207031 14.183594 18.21875 14.222656 18.214844 C 14.222656 16.863281 14.222656 15.519531 14.222656 14.167969 C 14.222656 14.074219 14.203125 13.976562 14.234375 13.886719 C 14.277344 13.851562 14.328125 13.84375 14.378906 13.84375 C 14.535156 13.84375 14.691406 13.84375 14.839844 13.84375 C 14.910156 13.851562 14.980469 13.855469 15.015625 13.917969 C 15.054688 13.976562 15.046875 14.046875 15.046875 14.113281 C 15.046875 15.429688 15.046875 16.746094 15.046875 18.058594 C 15.046875 18.125 15.054688 18.195312 15.015625 18.257812 C 14.953125 18.335938 14.859375 18.320312 14.773438 18.320312 C 14.292969 18.328125 13.816406 18.328125 13.335938 18.328125 C 12.378906 18.328125 11.414062 18.328125 10.449219 18.320312 C 10.367188 18.320312 10.28125 18.339844 10.207031 18.28125 C 9.9375 18.28125 9.660156 18.28125 9.386719 18.28125 C 9.378906 18.269531 9.378906 18.261719 9.386719 18.257812 Z M 9.386719 18.257812 " fill-opacity="1" fill-rule="evenodd"/></g><g clip-path="url(#eade90f926)"><path fill="#88452e" d="M 10.179688 13.894531 C 9.914062 13.894531 9.648438 13.894531 9.386719 13.894531 C 9.386719 13.792969 9.386719 13.695312 9.386719 13.59375 C 9.394531 13.539062 9.410156 13.492188 9.457031 13.449219 C 9.644531 13.296875 9.644531 13.0625 9.457031 12.90625 C 9.40625 12.863281 9.386719 12.804688 9.386719 12.738281 C 9.34375 12.128906 9.40625 11.539062 9.695312 10.980469 C 9.742188 10.898438 9.789062 10.867188 9.886719 10.867188 C 11.15625 10.875 12.421875 10.867188 13.691406 10.867188 C 13.753906 10.867188 13.808594 10.867188 13.871094 10.867188 C 13.992188 10.796875 14.121094 10.839844 14.253906 10.828125 C 14.324219 10.820312 14.390625 10.828125 14.460938 10.832031 C 14.503906 10.832031 14.546875 10.839844 14.585938 10.867188 C 14.574219 10.929688 14.523438 10.929688 14.480469 10.933594 C 14.421875 10.941406 14.367188 10.941406 14.308594 10.941406 C 13.152344 10.941406 11.996094 10.941406 10.839844 10.941406 C 10.574219 10.941406 10.554688 10.953125 10.460938 11.191406 C 10.3125 11.550781 10.226562 11.921875 10.25 12.308594 C 10.257812 12.421875 10.257812 12.542969 10.25 12.65625 C 10.25 12.769531 10.273438 12.863281 10.355469 12.941406 C 10.476562 13.09375 10.460938 13.253906 10.375 13.410156 C 10.273438 13.488281 10.238281 13.59375 10.242188 13.714844 C 10.25 13.773438 10.25 13.828125 10.21875 13.882812 C 10.207031 13.894531 10.195312 13.898438 10.179688 13.894531 Z M 10.179688 13.894531 " fill-opacity="1" fill-rule="evenodd"/></g><path fill="#9d9e9e" d="M 14.578125 10.875 C 14.542969 10.867188 14.496094 10.867188 14.460938 10.863281 C 14.355469 10.792969 14.316406 10.675781 14.261719 10.582031 C 14.035156 10.1875 13.746094 9.839844 13.476562 9.480469 C 13.335938 9.277344 13.171875 9.09375 13.183594 8.832031 C 13.191406 8.800781 13.171875 8.777344 13.140625 8.765625 C 13.015625 8.734375 12.882812 8.765625 12.757812 8.746094 C 12.691406 8.742188 12.601562 8.730469 12.703125 8.640625 C 12.945312 8.597656 13.191406 8.621094 13.433594 8.628906 C 13.476562 8.628906 13.515625 8.652344 13.535156 8.691406 C 13.496094 8.949219 13.578125 9.171875 13.742188 9.378906 C 14.046875 9.773438 14.347656 10.175781 14.609375 10.601562 C 15.015625 11.25 15.199219 11.945312 15.140625 12.699219 C 15.136719 12.792969 15.117188 12.878906 15.011719 12.9375 C 14.890625 13.007812 14.886719 13.34375 15.003906 13.414062 C 15.128906 13.492188 15.140625 13.59375 15.140625 13.714844 C 15.140625 14.277344 15.140625 14.835938 15.140625 15.398438 C 15.140625 16.398438 15.140625 17.402344 15.140625 18.398438 C 15.140625 18.53125 15.148438 18.664062 15 18.753906 C 14.890625 18.8125 14.890625 19.152344 15 19.210938 C 15.140625 19.296875 15.140625 19.414062 15.140625 19.546875 C 15.140625 20.378906 15.140625 21.207031 15.140625 22.039062 C 15.140625 22.097656 15.148438 22.160156 15.148438 22.214844 C 15.148438 22.226562 15.148438 22.230469 15.148438 22.242188 C 15.15625 22.421875 14.796875 23.105469 14.753906 22.917969 C 14.933594 22.726562 15 22.5 15 22.242188 C 15 21.339844 15 20.4375 14.992188 19.535156 C 14.992188 19.429688 15.023438 19.285156 14.859375 19.230469 C 14.710938 19.148438 14.734375 19.007812 14.753906 18.878906 C 14.761719 18.8125 14.792969 18.746094 14.847656 18.699219 C 14.941406 18.644531 14.949219 18.550781 14.960938 18.453125 C 14.96875 18.386719 14.960938 18.320312 14.984375 18.257812 C 14.992188 18.21875 15 18.179688 15 18.136719 C 15 16.769531 15 15.398438 15 14.035156 C 15 13.996094 14.992188 13.953125 14.984375 13.910156 C 14.96875 13.851562 14.96875 13.785156 14.960938 13.71875 C 14.953125 13.605469 14.929688 13.5 14.816406 13.4375 C 14.699219 13.234375 14.710938 13.0625 14.839844 12.902344 C 14.941406 12.828125 14.953125 12.722656 14.960938 12.613281 C 14.984375 12.039062 14.890625 11.492188 14.617188 10.976562 C 14.597656 10.941406 14.589844 10.90625 14.578125 10.875 Z M 14.578125 10.875 " fill-opacity="1" fill-rule="evenodd"/><g clip-path="url(#1196f79c8f)"><path fill="#e42c29" d="M 11.417969 7.097656 C 11.90625 7.078125 12.394531 7.085938 12.882812 7.097656 C 13.050781 7.144531 13.070312 7.167969 13.070312 7.34375 C 13.066406 7.546875 13.035156 7.742188 13.039062 7.945312 C 13.046875 8.042969 13.050781 8.136719 13.066406 8.238281 C 13.070312 8.292969 13.070312 8.351562 13.027344 8.398438 C 12.988281 8.425781 12.953125 8.429688 12.910156 8.429688 C 12.414062 8.429688 11.925781 8.429688 11.433594 8.429688 C 11.414062 8.425781 11.386719 8.425781 11.363281 8.417969 C 11.351562 8.414062 11.332031 8.398438 11.320312 8.386719 C 11.238281 8.121094 11.261719 7.84375 11.277344 7.570312 C 11.277344 7.480469 11.292969 7.390625 11.292969 7.300781 C 11.292969 7.210938 11.332031 7.140625 11.417969 7.097656 Z M 11.417969 7.097656 " fill-opacity="1" fill-rule="evenodd"/></g><path fill="#eeeeec" d="M 13.195312 8.734375 C 13.203125 8.746094 13.214844 8.753906 13.214844 8.757812 C 13.183594 9.125 13.433594 9.363281 13.628906 9.625 C 13.929688 10.027344 14.230469 10.425781 14.460938 10.863281 C 14.265625 10.863281 14.066406 10.863281 13.871094 10.867188 C 13.722656 10.546875 13.515625 10.253906 13.304688 9.964844 C 13.121094 9.714844 12.945312 9.464844 12.757812 9.21875 C 12.644531 9.074219 12.660156 8.910156 12.660156 8.746094 C 12.839844 8.710938 13.015625 8.730469 13.195312 8.734375 Z M 13.195312 8.734375 " fill-opacity="1" fill-rule="evenodd"/><g clip-path="url(#3ac49110f6)"><path fill="#eceeee" d="M 13.535156 8.691406 C 13.503906 8.65625 13.460938 8.65625 13.414062 8.65625 C 13.171875 8.664062 12.933594 8.664062 12.691406 8.664062 C 12.632812 8.699219 12.566406 8.699219 12.503906 8.699219 C 12.03125 8.699219 11.570312 8.699219 11.101562 8.699219 C 11.03125 8.699219 10.96875 8.699219 10.914062 8.664062 C 10.824219 8.652344 10.800781 8.597656 10.800781 8.519531 C 10.800781 8.441406 10.84375 8.417969 10.914062 8.414062 C 10.9375 8.40625 10.96875 8.382812 10.996094 8.363281 C 11.105469 8.386719 11.226562 8.3125 11.332031 8.394531 C 11.515625 8.417969 11.695312 8.398438 11.882812 8.40625 C 12.226562 8.40625 12.578125 8.414062 12.921875 8.398438 C 13.046875 8.398438 13.183594 8.40625 13.304688 8.335938 C 13.335938 8.257812 13.320312 8.171875 13.320312 8.089844 C 13.320312 7.863281 13.320312 7.636719 13.320312 7.40625 C 13.320312 7.347656 13.316406 7.28125 13.371094 7.234375 C 13.410156 7.269531 13.390625 7.324219 13.398438 7.371094 C 13.398438 7.683594 13.398438 7.988281 13.398438 8.296875 C 13.398438 8.363281 13.390625 8.414062 13.492188 8.425781 C 13.585938 8.4375 13.621094 8.503906 13.566406 8.589844 C 13.539062 8.621094 13.535156 8.65625 13.535156 8.691406 Z M 13.535156 8.691406 " fill-opacity="1" fill-rule="evenodd"/></g><g clip-path="url(#20bc6cfd47)"><path fill="#c9282d" d="M 13.371094 7.234375 C 13.367188 7.617188 13.359375 8.007812 13.359375 8.386719 C 13.246094 8.414062 13.140625 8.417969 13.027344 8.386719 C 13.015625 8.15625 12.996094 7.921875 12.996094 7.695312 C 12.996094 7.570312 13.027344 7.457031 13.035156 7.335938 C 13.035156 7.21875 13.003906 7.140625 12.882812 7.097656 C 12.957031 7.089844 13.035156 7.089844 13.109375 7.085938 C 13.234375 7.078125 13.320312 7.128906 13.371094 7.234375 Z M 13.371094 7.234375 " fill-opacity="1" fill-rule="evenodd"/></g><g clip-path="url(#b9378451b3)"><path fill="#e95a24" d="M 11.332031 8.394531 C 11.21875 8.382812 11.101562 8.449219 10.996094 8.363281 C 10.996094 8.035156 10.996094 7.714844 11 7.382812 C 11 7.132812 11.042969 7.085938 11.308594 7.089844 C 11.34375 7.089844 11.382812 7.089844 11.417969 7.097656 C 11.351562 7.175781 11.339844 7.269531 11.332031 7.367188 C 11.3125 7.585938 11.308594 7.800781 11.308594 8.023438 C 11.308594 8.148438 11.355469 8.269531 11.332031 8.394531 Z M 11.332031 8.394531 " fill-opacity="1" fill-rule="evenodd"/></g><path fill="#b8b8b6" d="M 10.914062 8.664062 C 11.507812 8.664062 12.09375 8.664062 12.691406 8.664062 C 12.660156 8.746094 12.734375 8.710938 12.757812 8.710938 C 12.902344 8.730469 13.050781 8.6875 13.195312 8.734375 C 13.015625 8.742188 12.839844 8.742188 12.660156 8.746094 C 12.140625 8.746094 11.621094 8.742188 11.101562 8.742188 C 11.027344 8.742188 10.945312 8.753906 10.914062 8.664062 Z M 10.914062 8.664062 " fill-opacity="1" fill-rule="evenodd"/><path fill="#5a2d27" d="M 14.871094 18.714844 C 14.746094 18.878906 14.742188 19.050781 14.859375 19.230469 C 14.808594 19.265625 14.761719 19.25 14.710938 19.25 C 14.296875 19.253906 13.878906 19.253906 13.464844 19.253906 C 12.476562 19.253906 11.488281 19.253906 10.5 19.25 C 10.445312 19.25 10.367188 19.285156 10.351562 19.195312 C 10.425781 19.050781 10.425781 18.90625 10.351562 18.765625 C 10.324219 18.699219 10.375 18.691406 10.417969 18.679688 C 10.46875 18.664062 10.519531 18.667969 10.574219 18.667969 C 11.933594 18.667969 13.289062 18.667969 14.648438 18.667969 C 14.722656 18.667969 14.808594 18.652344 14.871094 18.714844 Z M 14.871094 18.714844 " fill-opacity="1" fill-rule="evenodd"/><path fill="#7d3127" d="M 14.871094 18.714844 C 14.117188 18.714844 13.367188 18.714844 12.609375 18.710938 C 11.90625 18.710938 11.199219 18.710938 10.5 18.714844 C 10.445312 18.714844 10.367188 18.679688 10.351562 18.765625 C 10.25 18.742188 10.210938 18.664062 10.207031 18.574219 C 10.199219 18.476562 10.207031 18.382812 10.207031 18.28125 C 11.746094 18.28125 13.285156 18.28125 14.824219 18.28125 C 14.878906 18.28125 14.933594 18.292969 14.984375 18.257812 C 15.011719 18.375 15 18.496094 14.972656 18.609375 C 14.960938 18.664062 14.949219 18.714844 14.871094 18.714844 Z M 14.871094 18.714844 " fill-opacity="1" fill-rule="evenodd"/><path fill="#e5252b" d="M 10.179688 13.894531 C 10.1875 13.894531 10.199219 13.886719 10.207031 13.886719 C 10.261719 13.839844 10.332031 13.84375 10.394531 13.84375 C 11.613281 13.84375 12.828125 13.84375 14.039062 13.84375 C 14.109375 13.84375 14.183594 13.832031 14.242188 13.894531 C 14.277344 13.945312 14.265625 14.007812 14.265625 14.058594 C 14.273438 15.433594 14.265625 16.808594 14.273438 18.183594 C 14.273438 18.28125 14.214844 18.25 14.167969 18.25 C 13.734375 18.257812 13.296875 18.257812 12.859375 18.257812 C 11.964844 18.257812 11.074219 18.257812 10.179688 18.257812 C 10.179688 16.796875 10.179688 15.34375 10.179688 13.894531 Z M 10.179688 13.894531 " fill-opacity="1" fill-rule="evenodd"/><path fill="#7d3127" d="M 14.242188 13.894531 C 12.964844 13.894531 11.695312 13.886719 10.417969 13.886719 C 10.351562 13.886719 10.273438 13.886719 10.207031 13.886719 C 10.207031 13.796875 10.207031 13.714844 10.207031 13.628906 C 10.207031 13.527344 10.242188 13.445312 10.34375 13.402344 C 10.449219 13.386719 10.550781 13.386719 10.65625 13.386719 C 11.769531 13.386719 12.882812 13.386719 13.992188 13.386719 C 14.253906 13.390625 14.515625 13.433594 14.777344 13.410156 C 14.804688 13.410156 14.824219 13.421875 14.847656 13.425781 C 14.929688 13.433594 14.953125 13.488281 14.972656 13.550781 C 15.003906 13.671875 15.003906 13.792969 14.984375 13.910156 C 14.839844 13.863281 14.683594 13.898438 14.535156 13.894531 C 14.433594 13.886719 14.335938 13.894531 14.242188 13.894531 Z M 14.242188 13.894531 " fill-opacity="1" fill-rule="evenodd"/><path fill="#7d3127" d="M 14.578125 10.875 C 14.640625 10.878906 14.640625 10.933594 14.660156 10.96875 C 14.953125 11.507812 15.03125 12.089844 14.992188 12.679688 C 14.984375 12.769531 15.003906 12.890625 14.867188 12.917969 C 14.808594 12.953125 14.746094 12.964844 14.679688 12.964844 C 13.320312 12.960938 11.96875 12.960938 10.613281 12.960938 C 10.523438 12.960938 10.4375 12.964844 10.351562 12.972656 C 10.238281 12.914062 10.199219 12.816406 10.207031 12.699219 C 10.21875 12.316406 10.164062 11.921875 10.292969 11.542969 C 10.351562 11.363281 10.414062 11.1875 10.492188 11.011719 C 10.539062 10.921875 10.59375 10.894531 10.699219 10.894531 C 11.933594 10.898438 13.164062 10.898438 14.402344 10.898438 C 14.460938 10.898438 14.523438 10.917969 14.578125 10.875 Z M 14.578125 10.875 " fill-opacity="1" fill-rule="evenodd"/><path fill="#5c2c26" d="M 10.351562 12.972656 C 10.355469 12.90625 10.414062 12.917969 10.457031 12.917969 C 11.863281 12.917969 13.277344 12.917969 14.683594 12.917969 C 14.746094 12.917969 14.804688 12.917969 14.867188 12.917969 C 14.742188 13.085938 14.753906 13.253906 14.847656 13.425781 C 14.640625 13.476562 14.429688 13.46875 14.222656 13.4375 C 14.179688 13.433594 14.136719 13.433594 14.089844 13.433594 C 12.910156 13.433594 11.726562 13.433594 10.539062 13.425781 C 10.480469 13.425781 10.398438 13.5 10.34375 13.402344 C 10.414062 13.257812 10.429688 13.117188 10.351562 12.972656 Z M 10.351562 12.972656 " fill-opacity="1" fill-rule="evenodd"/><path fill="#e95a24" d="M 13.027344 8.386719 C 13.140625 8.386719 13.246094 8.386719 13.359375 8.386719 C 13.339844 8.417969 13.308594 8.40625 13.277344 8.40625 C 12.660156 8.40625 12.03125 8.40625 11.414062 8.40625 C 11.386719 8.40625 11.355469 8.398438 11.332031 8.394531 C 11.894531 8.394531 12.464844 8.386719 13.027344 8.386719 Z M 13.027344 8.386719 " fill-opacity="1" fill-rule="evenodd"/><path fill="#fefefe" d="M 11.03125 16.253906 C 11.0625 16.273438 11.058594 16.3125 11.082031 16.335938 C 11.105469 16.324219 11.101562 16.300781 11.101562 16.289062 C 11.105469 16.085938 11.089844 15.890625 11.03125 15.691406 C 11.011719 15.632812 10.988281 15.574219 10.9375 15.53125 C 10.886719 15.476562 10.84375 15.476562 10.800781 15.535156 C 10.738281 15.621094 10.726562 15.722656 10.714844 15.816406 C 10.652344 16.285156 10.683594 16.738281 10.832031 17.1875 C 10.882812 17.328125 10.957031 17.460938 11.074219 17.570312 C 11.25 17.71875 11.433594 17.707031 11.582031 17.53125 C 11.707031 17.390625 11.757812 17.214844 11.800781 17.042969 C 11.84375 16.847656 11.863281 16.648438 11.871094 16.453125 C 11.871094 16.425781 11.871094 16.410156 11.859375 16.386719 C 11.71875 16.132812 11.726562 15.882812 11.839844 15.625 C 11.863281 15.566406 11.902344 15.523438 11.953125 15.488281 C 12.03125 15.429688 12.082031 15.445312 12.113281 15.542969 C 12.183594 15.5 12.234375 15.53125 12.28125 15.585938 C 12.363281 15.675781 12.414062 15.78125 12.453125 15.894531 C 12.457031 15.914062 12.453125 15.9375 12.484375 15.9375 C 12.507812 15.9375 12.519531 15.917969 12.535156 15.902344 C 12.570312 15.839844 12.570312 15.757812 12.527344 15.699219 C 12.371094 15.460938 12.28125 15.195312 12.21875 14.921875 C 12.183594 14.773438 12.164062 14.621094 12.171875 14.46875 C 12.171875 14.40625 12.175781 14.351562 12.203125 14.292969 C 12.21875 14.234375 12.257812 14.222656 12.308594 14.265625 C 12.390625 14.328125 12.445312 14.414062 12.488281 14.507812 C 12.601562 14.742188 12.644531 14.988281 12.664062 15.242188 C 12.675781 15.328125 12.675781 15.417969 12.675781 15.5 C 12.683594 15.601562 12.851562 15.726562 12.953125 15.710938 C 13.007812 15.699219 13.039062 15.664062 13.050781 15.609375 C 13.078125 15.5 13.078125 15.394531 13.082031 15.285156 C 13.082031 15.28125 13.082031 15.273438 13.082031 15.269531 C 12.984375 15.113281 13.035156 14.945312 13.050781 14.777344 C 13.070312 14.59375 13.132812 14.417969 13.226562 14.25 C 13.242188 14.226562 13.257812 14.203125 13.277344 14.179688 C 13.335938 14.089844 13.414062 14.113281 13.476562 14.148438 C 13.515625 14.167969 13.515625 14.199219 13.496094 14.226562 C 13.476562 14.257812 13.476562 14.28125 13.523438 14.292969 C 13.628906 14.3125 13.671875 14.378906 13.679688 14.480469 C 13.683594 14.53125 13.695312 14.585938 13.703125 14.644531 C 13.703125 14.652344 13.703125 14.664062 13.710938 14.671875 C 13.726562 14.734375 13.796875 14.800781 13.839844 14.800781 C 13.921875 14.796875 13.945312 14.742188 13.972656 14.683594 C 14.003906 14.597656 14.007812 14.507812 14.023438 14.417969 C 14.066406 14.441406 14.089844 14.472656 14.089844 14.527344 C 14.085938 14.683594 14.089844 14.84375 14.054688 15 C 14.039062 15.039062 14.027344 15.078125 14.003906 15.113281 C 13.960938 15.179688 13.902344 15.183594 13.839844 15.140625 C 13.773438 15.089844 13.726562 15.023438 13.691406 14.949219 C 13.664062 14.910156 13.648438 14.875 13.621094 14.824219 C 13.621094 14.976562 13.621094 15.113281 13.621094 15.25 C 13.621094 15.304688 13.617188 15.351562 13.601562 15.398438 C 13.578125 15.460938 13.554688 15.484375 13.484375 15.476562 C 13.371094 15.464844 13.273438 15.429688 13.175781 15.363281 C 13.175781 15.386719 13.175781 15.40625 13.183594 15.421875 C 13.191406 15.554688 13.195312 15.6875 13.164062 15.8125 C 13.121094 15.984375 13.003906 16.039062 12.832031 15.96875 C 12.765625 15.9375 12.707031 15.890625 12.644531 15.835938 C 12.640625 15.871094 12.632812 15.894531 12.632812 15.917969 C 12.621094 15.984375 12.597656 16.042969 12.546875 16.085938 C 12.515625 16.117188 12.503906 16.140625 12.507812 16.183594 C 12.507812 16.242188 12.507812 16.300781 12.496094 16.363281 C 12.457031 16.535156 12.328125 16.617188 12.140625 16.570312 C 12.070312 16.554688 12.007812 16.523438 11.945312 16.476562 C 11.945312 16.59375 11.945312 16.695312 11.945312 16.804688 C 11.9375 17.0625 11.914062 17.304688 11.828125 17.550781 C 11.777344 17.683594 11.707031 17.808594 11.589844 17.898438 C 11.363281 18.070312 11.03125 18.042969 10.839844 17.839844 C 10.664062 17.648438 10.570312 17.417969 10.519531 17.175781 C 10.425781 16.714844 10.398438 16.253906 10.511719 15.792969 C 10.542969 15.65625 10.59375 15.53125 10.675781 15.410156 C 10.78125 15.273438 10.914062 15.257812 11.058594 15.359375 C 11.175781 15.441406 11.238281 15.554688 11.277344 15.6875 C 11.386719 16.042969 11.402344 16.402344 11.332031 16.769531 C 11.324219 16.804688 11.3125 16.839844 11.292969 16.871094 C 11.25 16.964844 11.125 16.972656 11.070312 16.882812 C 11.03125 16.832031 11.027344 16.773438 11.011719 16.714844 C 10.996094 16.578125 10.996094 16.4375 11.007812 16.300781 C 11.011719 16.285156 11.011719 16.265625 11.03125 16.253906 Z M 12.070312 15.6875 C 12.09375 15.753906 12.113281 15.816406 12.140625 15.882812 C 12.175781 15.984375 12.238281 16.070312 12.339844 16.121094 C 12.351562 16.128906 12.363281 16.132812 12.359375 16.152344 C 12.339844 16.230469 12.339844 16.3125 12.265625 16.375 C 12.195312 16.433594 12.144531 16.421875 12.089844 16.351562 C 11.976562 16.210938 11.96875 16.0625 12.007812 15.902344 C 12.027344 15.828125 12.046875 15.757812 12.0625 15.6875 C 12.0625 15.6875 12.070312 15.6875 12.070312 15.6875 Z M 12.566406 15.328125 C 12.433594 15.125 12.347656 14.902344 12.320312 14.660156 C 12.320312 14.621094 12.300781 14.5625 12.351562 14.554688 C 12.390625 14.542969 12.410156 14.597656 12.421875 14.632812 C 12.519531 14.855469 12.566406 15.089844 12.566406 15.328125 Z M 13.441406 14.378906 C 13.476562 14.632812 13.535156 14.886719 13.476562 15.140625 C 13.472656 15.171875 13.460938 15.203125 13.453125 15.226562 C 13.429688 15.285156 13.398438 15.292969 13.347656 15.257812 C 13.277344 15.21875 13.253906 15.160156 13.246094 15.089844 C 13.234375 15.011719 13.246094 14.933594 13.265625 14.855469 C 13.308594 14.695312 13.371094 14.53125 13.441406 14.378906 Z M 13.441406 14.378906 " fill-opacity="1" fill-rule="evenodd"/><path fill="#e73a36" d="M 16.023438 17.335938 C 16.023438 16.546875 16.023438 15.757812 16.023438 14.976562 C 16.023438 14.933594 16.019531 14.890625 16.050781 14.855469 C 16.085938 14.820312 16.128906 14.8125 16.179688 14.820312 C 16.210938 14.820312 16.242188 14.820312 16.269531 14.832031 C 16.417969 14.855469 16.5625 14.835938 16.710938 14.84375 C 16.761719 14.84375 16.824219 14.832031 16.867188 14.878906 C 16.898438 14.925781 16.898438 14.980469 16.898438 15.035156 C 16.898438 15.753906 16.898438 16.464844 16.898438 17.179688 C 16.898438 17.222656 16.898438 17.265625 16.882812 17.300781 C 16.882812 17.316406 16.867188 17.328125 16.855469 17.34375 C 16.769531 17.402344 16.667969 17.378906 16.566406 17.378906 C 16.46875 17.382812 16.375 17.382812 16.273438 17.378906 C 16.230469 17.378906 16.191406 17.378906 16.15625 17.378906 C 16.105469 17.378906 16.0625 17.378906 16.023438 17.335938 Z M 16.023438 17.335938 " fill-opacity="1" fill-rule="evenodd"/><g clip-path="url(#7d43eb3cb0)"><path fill="#d6262c" d="M 16.855469 17.335938 C 16.855469 17.328125 16.855469 17.324219 16.855469 17.316406 C 16.925781 17.265625 17.007812 17.277344 17.082031 17.277344 C 18.039062 17.277344 19 17.277344 19.957031 17.277344 C 19.996094 17.277344 20.035156 17.277344 20.078125 17.277344 C 20.164062 17.277344 20.203125 17.234375 20.203125 17.15625 C 20.195312 17.125 20.203125 17.097656 20.203125 17.066406 C 20.203125 16.503906 20.203125 15.9375 20.203125 15.375 C 20.203125 15.25 20.171875 15.128906 20.171875 15.003906 C 20.175781 14.945312 20.144531 14.921875 20.089844 14.914062 C 20.050781 14.914062 20.007812 14.914062 19.972656 14.914062 C 19.007812 14.914062 18.042969 14.914062 17.082031 14.914062 C 17.007812 14.914062 16.925781 14.925781 16.855469 14.878906 C 16.65625 14.863281 16.457031 14.898438 16.253906 14.855469 C 16.261719 14.847656 16.269531 14.84375 16.273438 14.835938 C 16.46875 14.785156 16.667969 14.820312 16.863281 14.8125 C 17.824219 14.808594 18.789062 14.8125 19.746094 14.8125 C 20.089844 14.8125 20.433594 14.800781 20.777344 14.8125 C 20.828125 14.8125 20.878906 14.8125 20.914062 14.855469 C 20.921875 14.867188 20.921875 14.875 20.929688 14.878906 C 20.941406 15.027344 20.933594 15.179688 20.933594 15.328125 C 20.933594 15.957031 20.933594 16.582031 20.933594 17.203125 C 20.933594 17.253906 20.941406 17.300781 20.921875 17.34375 C 20.890625 17.367188 20.859375 17.371094 20.820312 17.371094 C 20.804688 17.371094 20.789062 17.378906 20.773438 17.378906 C 20.742188 17.371094 20.710938 17.378906 20.679688 17.378906 C 19.472656 17.382812 18.257812 17.382812 17.050781 17.382812 C 17 17.382812 16.945312 17.382812 16.894531 17.367188 C 16.882812 17.359375 16.863281 17.347656 16.855469 17.335938 Z M 16.855469 17.335938 " fill-opacity="1" fill-rule="evenodd"/></g><path fill="#d4d1cd" d="M 16.175781 14.847656 C 16.128906 14.847656 16.085938 14.855469 16.050781 14.855469 C 16.042969 14.492188 16.128906 14.144531 16.230469 13.796875 C 16.449219 13.03125 16.679688 12.265625 16.90625 11.507812 C 17.03125 11.085938 17.164062 10.660156 17.289062 10.234375 C 17.425781 9.757812 17.582031 9.285156 17.53125 8.777344 C 17.59375 8.71875 17.667969 8.71875 17.75 8.710938 C 18.113281 8.710938 18.484375 8.710938 18.851562 8.710938 C 18.902344 8.710938 18.957031 8.710938 18.996094 8.757812 C 18.996094 8.777344 18.988281 8.789062 18.96875 8.792969 C 18.890625 8.824219 18.808594 8.8125 18.726562 8.8125 C 18.433594 8.8125 18.136719 8.8125 17.84375 8.8125 C 17.757812 8.8125 17.695312 8.835938 17.699219 8.933594 C 17.730469 9.332031 17.621094 9.714844 17.5 10.09375 C 17.492188 10.105469 17.488281 10.121094 17.488281 10.140625 C 17.4375 10.308594 17.4375 10.308594 17.613281 10.308594 C 18.074219 10.308594 18.53125 10.308594 18.996094 10.308594 C 19.0625 10.308594 19.132812 10.296875 19.195312 10.34375 C 19.207031 10.355469 19.207031 10.367188 19.1875 10.378906 C 19.144531 10.410156 19.101562 10.410156 19.050781 10.410156 C 18.71875 10.410156 18.386719 10.414062 18.0625 10.410156 C 17.871094 10.410156 17.675781 10.410156 17.480469 10.410156 C 17.386719 10.402344 17.382812 10.472656 17.367188 10.527344 C 17.210938 11.066406 17.050781 11.597656 16.894531 12.136719 C 16.71875 12.726562 16.542969 13.324219 16.367188 13.917969 C 16.292969 14.1875 16.242188 14.460938 16.210938 14.734375 C 16.210938 14.777344 16.210938 14.820312 16.175781 14.847656 Z M 16.175781 14.847656 " fill-opacity="1" fill-rule="evenodd"/><g clip-path="url(#ababd2062f)"><path fill="#aba9a7" d="M 19.203125 10.367188 C 19.203125 10.359375 19.203125 10.355469 19.203125 10.347656 C 19.207031 10.34375 19.214844 10.335938 19.214844 10.332031 C 19.277344 10.300781 19.34375 10.308594 19.410156 10.308594 C 19.488281 10.3125 19.515625 10.277344 19.488281 10.207031 C 19.441406 10.027344 19.390625 9.847656 19.332031 9.667969 C 19.238281 9.378906 19.269531 9.085938 19.277344 8.792969 C 19.277344 8.78125 19.28125 8.769531 19.289062 8.757812 C 19.339844 8.722656 19.390625 8.742188 19.425781 8.769531 C 19.453125 8.984375 19.410156 9.195312 19.453125 9.40625 C 19.535156 9.824219 19.675781 10.222656 19.796875 10.628906 C 20.113281 11.746094 20.445312 12.859375 20.773438 13.976562 C 20.851562 14.265625 20.910156 14.554688 20.914062 14.855469 C 20.871094 14.855469 20.835938 14.855469 20.789062 14.847656 C 20.746094 14.808594 20.746094 14.753906 20.742188 14.699219 C 20.695312 14.292969 20.585938 13.90625 20.464844 13.511719 C 20.175781 12.53125 19.890625 11.550781 19.601562 10.570312 C 19.550781 10.410156 19.550781 10.410156 19.371094 10.402344 C 19.308594 10.402344 19.246094 10.421875 19.203125 10.367188 Z M 19.203125 10.367188 " fill-opacity="1" fill-rule="evenodd"/></g><path fill="#d4cfcc" d="M 16.023438 17.335938 C 16.066406 17.335938 16.105469 17.34375 16.148438 17.34375 C 16.191406 17.382812 16.191406 17.429688 16.191406 17.480469 C 16.191406 19.058594 16.199219 20.636719 16.191406 22.207031 C 16.179688 22.289062 16.144531 22.339844 16.050781 22.296875 C 16.011719 22.265625 16.023438 22.226562 16.023438 22.1875 C 16.023438 20.585938 16.023438 18.980469 16.023438 17.371094 C 16.023438 17.359375 16.023438 17.347656 16.023438 17.335938 Z M 16.023438 17.335938 " fill-opacity="1" fill-rule="evenodd"/><g clip-path="url(#14daea4f62)"><path fill="#e62129" d="M 18.082031 7.957031 C 18.199219 7.953125 18.320312 7.945312 18.4375 7.945312 L 18.488281 7.945312 C 18.609375 7.945312 18.71875 7.953125 18.839844 7.953125 C 19.019531 8 19.09375 8.078125 19.121094 8.257812 C 19.125 8.304688 19.125 8.347656 19.082031 8.382812 C 19.070312 8.386719 19.058594 8.386719 19.046875 8.382812 C 19.015625 8.351562 19.015625 8.316406 19.007812 8.261719 C 18.988281 8.328125 18.996094 8.386719 18.933594 8.40625 C 18.582031 8.417969 18.238281 8.425781 17.894531 8.398438 C 17.792969 8.28125 17.84375 8.070312 17.996094 7.988281 C 18.027344 7.976562 18.058594 7.96875 18.082031 7.957031 Z M 18.082031 7.957031 " fill-opacity="1" fill-rule="evenodd"/></g><path fill="#b4b3af" d="M 19.300781 8.753906 C 19.300781 8.757812 19.300781 8.769531 19.300781 8.777344 C 19.203125 8.832031 19.09375 8.835938 18.996094 8.777344 C 18.953125 8.742188 18.902344 8.753906 18.859375 8.753906 C 18.496094 8.753906 18.136719 8.746094 17.777344 8.753906 C 17.695312 8.753906 17.613281 8.769531 17.53125 8.777344 C 17.511719 8.753906 17.492188 8.734375 17.460938 8.722656 C 17.386719 8.691406 17.367188 8.644531 17.414062 8.574219 C 17.457031 8.515625 17.488281 8.453125 17.488281 8.382812 C 17.605469 8.316406 17.71875 8.328125 17.839844 8.371094 C 17.851562 8.375 17.855469 8.394531 17.84375 8.40625 C 17.808594 8.441406 17.757812 8.4375 17.714844 8.449219 C 17.667969 8.453125 17.636719 8.472656 17.636719 8.519531 C 17.636719 8.574219 17.695312 8.5625 17.726562 8.5625 C 17.988281 8.566406 18.246094 8.5625 18.507812 8.5625 C 18.789062 8.566406 19.078125 8.554688 19.359375 8.574219 C 19.378906 8.574219 19.390625 8.578125 19.394531 8.585938 C 19.421875 8.667969 19.339844 8.699219 19.300781 8.753906 Z M 19.300781 8.753906 " fill-opacity="1" fill-rule="evenodd"/><g clip-path="url(#b1e16e426d)"><path fill="#e9534b" d="M 17.84375 8.386719 C 17.726562 8.382812 17.605469 8.382812 17.488281 8.375 C 17.46875 8.089844 17.605469 7.953125 17.914062 7.953125 C 17.96875 7.953125 18.027344 7.953125 18.082031 7.957031 C 17.933594 8.058594 17.839844 8.191406 17.875 8.375 C 17.871094 8.386719 17.855469 8.386719 17.84375 8.386719 Z M 17.84375 8.386719 " fill-opacity="1" fill-rule="evenodd"/></g><g clip-path="url(#e2c0300585)"><path fill="#b4282c" d="M 19.078125 8.375 C 19.113281 8.191406 19.046875 8.058594 18.839844 7.953125 C 18.921875 7.953125 19 7.945312 19.082031 7.945312 C 19.328125 7.953125 19.464844 8.082031 19.457031 8.324219 C 19.457031 8.339844 19.464844 8.359375 19.464844 8.382812 C 19.332031 8.429688 19.203125 8.4375 19.078125 8.375 Z M 19.078125 8.375 " fill-opacity="1" fill-rule="evenodd"/></g><path fill="#bdb9af" d="M 16.050781 22.296875 C 16.074219 22.265625 16.148438 22.328125 16.15625 22.242188 C 16.25 22.285156 16.242188 22.386719 16.285156 22.457031 C 16.355469 22.554688 16.429688 22.648438 16.449219 22.773438 C 16.425781 22.828125 16.375 22.824219 16.332031 22.824219 C 16.269531 22.726562 16.210938 22.636719 16.148438 22.542969 C 16.125 22.457031 16.050781 22.390625 16.050781 22.296875 Z M 16.050781 22.296875 " fill-opacity="1" fill-rule="evenodd"/><path fill="#b1ada8" d="M 19.078125 8.375 C 19.207031 8.375 19.332031 8.382812 19.464844 8.382812 C 19.472656 8.453125 19.535156 8.507812 19.535156 8.578125 C 19.503906 8.632812 19.457031 8.640625 19.410156 8.605469 C 19.410156 8.597656 19.402344 8.597656 19.402344 8.589844 C 19.3125 8.449219 19.183594 8.4375 19.027344 8.4375 C 18.6875 8.449219 18.355469 8.441406 18.019531 8.441406 C 17.964844 8.441406 17.886719 8.453125 17.84375 8.394531 C 17.84375 8.394531 17.84375 8.386719 17.84375 8.386719 C 17.855469 8.382812 17.863281 8.382812 17.875 8.375 C 18.238281 8.375 18.609375 8.375 18.96875 8.375 C 18.996094 8.359375 19.015625 8.359375 19.039062 8.375 C 19.050781 8.375 19.0625 8.375 19.078125 8.375 Z M 19.078125 8.375 " fill-opacity="1" fill-rule="evenodd"/><g clip-path="url(#a29d17ddc1)"><path fill="#adabaa" d="M 20.921875 17.34375 C 20.921875 16.539062 20.921875 15.746094 20.921875 14.945312 C 20.921875 14.921875 20.929688 14.902344 20.929688 14.878906 C 20.953125 14.914062 20.945312 14.949219 20.945312 14.988281 C 20.945312 15.777344 20.945312 16.558594 20.945312 17.34375 C 20.945312 17.34375 20.933594 17.34375 20.933594 17.34375 Z M 20.921875 17.34375 " fill-opacity="1" fill-rule="evenodd"/></g><path fill="#7c7c7b" d="M 19.410156 8.605469 C 19.453125 8.597656 19.496094 8.605469 19.535156 8.578125 C 19.582031 8.640625 19.570312 8.679688 19.507812 8.71875 C 19.476562 8.730469 19.445312 8.742188 19.425781 8.769531 C 19.382812 8.777344 19.34375 8.769531 19.300781 8.753906 C 19.289062 8.667969 19.363281 8.644531 19.410156 8.605469 Z M 19.410156 8.605469 " fill-opacity="1" fill-rule="evenodd"/><g clip-path="url(#f31b506a66)"><path fill="#adabaa" d="M 20.921875 22.34375 C 20.910156 22.34375 20.902344 22.34375 20.898438 22.351562 C 20.816406 22.320312 20.785156 22.261719 20.777344 22.1875 C 20.777344 22.152344 20.777344 22.117188 20.777344 22.085938 C 20.777344 20.570312 20.777344 19.050781 20.777344 17.53125 C 20.777344 17.472656 20.757812 17.402344 20.816406 17.347656 C 20.851562 17.347656 20.882812 17.34375 20.921875 17.34375 C 20.921875 19.007812 20.921875 20.675781 20.921875 22.34375 Z M 20.921875 22.34375 " fill-opacity="1" fill-rule="evenodd"/></g><g clip-path="url(#c32097023c)"><path fill="#928980" d="M 17.507812 23.164062 C 17.273438 23.164062 17.039062 23.167969 16.800781 23.167969 C 16.582031 23.132812 16.425781 23.019531 16.332031 22.824219 C 16.347656 22.78125 16.410156 22.8125 16.4375 22.769531 C 16.535156 22.792969 16.550781 22.914062 16.644531 22.949219 C 16.699219 22.984375 16.761719 23.015625 16.832031 23.027344 C 16.988281 23.042969 17.136719 23.027344 17.289062 23.039062 C 17.382812 23.042969 17.480469 23.050781 17.507812 23.164062 Z M 17.507812 23.164062 " fill-opacity="1" fill-rule="evenodd"/></g><g clip-path="url(#ca0db22a8d)"><path fill="#e5252b" d="M 16.855469 14.878906 C 17.9375 14.878906 19.027344 14.878906 20.109375 14.875 C 20.203125 14.875 20.214844 14.890625 20.222656 14.980469 C 20.265625 15.699219 20.234375 16.414062 20.242188 17.132812 C 20.246094 17.316406 20.242188 17.316406 20.046875 17.316406 C 18.984375 17.316406 17.917969 17.316406 16.855469 17.316406 C 16.855469 16.503906 16.855469 15.691406 16.855469 14.878906 Z M 16.855469 14.878906 " fill-opacity="1" fill-rule="evenodd"/></g><path fill="#92442f" d="M 16.253906 17.34375 C 16.457031 17.34375 16.65625 17.335938 16.855469 17.335938 C 16.855469 17.335938 16.855469 17.34375 16.855469 17.34375 C 16.898438 17.390625 16.898438 17.449219 16.898438 17.507812 C 16.898438 19.050781 16.898438 20.59375 16.898438 22.136719 C 16.898438 22.1875 16.898438 22.242188 16.867188 22.289062 C 16.84375 22.320312 16.804688 22.332031 16.761719 22.332031 C 16.597656 22.332031 16.429688 22.34375 16.269531 22.328125 C 16.191406 22.265625 16.210938 22.183594 16.210938 22.105469 C 16.210938 21.105469 16.210938 20.109375 16.210938 19.109375 C 16.210938 18.589844 16.210938 18.066406 16.210938 17.546875 C 16.210938 17.472656 16.199219 17.402344 16.253906 17.34375 Z M 16.253906 17.34375 " fill-opacity="1" fill-rule="evenodd"/><path fill="#aa6a52" d="M 16.253906 17.34375 C 16.253906 18.945312 16.253906 20.539062 16.253906 22.140625 C 16.253906 22.199219 16.230469 22.265625 16.28125 22.320312 C 16.410156 22.5 16.511719 22.703125 16.625 22.894531 C 16.636719 22.917969 16.644531 22.941406 16.625 22.964844 C 16.53125 22.925781 16.5 22.835938 16.4375 22.769531 C 16.34375 22.59375 16.222656 22.433594 16.15625 22.242188 C 16.15625 20.640625 16.148438 19.046875 16.148438 17.445312 C 16.148438 17.40625 16.148438 17.378906 16.148438 17.34375 C 16.1875 17.34375 16.21875 17.34375 16.253906 17.34375 Z M 16.253906 17.34375 " fill-opacity="1" fill-rule="evenodd"/><path fill="#aa684d" d="M 16.175781 14.847656 C 16.1875 14.378906 16.332031 13.929688 16.460938 13.480469 C 16.75 12.496094 17.039062 11.507812 17.332031 10.523438 C 17.351562 10.460938 17.324219 10.355469 17.457031 10.371094 C 17.507812 10.4375 17.46875 10.503906 17.449219 10.5625 C 17.238281 11.273438 17.023438 11.992188 16.820312 12.710938 C 16.691406 13.152344 16.554688 13.59375 16.4375 14.042969 C 16.375 14.25 16.335938 14.46875 16.316406 14.6875 C 16.3125 14.746094 16.300781 14.800781 16.261719 14.847656 C 16.261719 14.847656 16.253906 14.855469 16.253906 14.855469 C 16.230469 14.855469 16.199219 14.855469 16.175781 14.847656 Z M 16.175781 14.847656 " fill-opacity="1" fill-rule="evenodd"/><g clip-path="url(#2e658b6b9b)"><path fill="#7d3127" d="M 16.855469 22.296875 C 16.855469 20.648438 16.855469 18.996094 16.855469 17.34375 C 18.136719 17.34375 19.425781 17.34375 20.714844 17.34375 C 20.789062 17.378906 20.789062 17.445312 20.789062 17.515625 C 20.789062 17.863281 20.789062 18.207031 20.789062 18.554688 C 20.789062 19.707031 20.789062 20.863281 20.789062 22.015625 C 20.789062 22.238281 20.765625 22.25 20.539062 22.261719 C 20.246094 22.285156 19.957031 22.328125 19.660156 22.316406 C 19.421875 22.308594 19.1875 22.339844 18.953125 22.320312 C 18.796875 22.308594 18.640625 22.351562 18.484375 22.332031 C 18.09375 22.289062 17.699219 22.320312 17.3125 22.308594 C 17.175781 22.308594 17.039062 22.355469 16.898438 22.320312 C 16.882812 22.316406 16.867188 22.308594 16.855469 22.296875 Z M 16.855469 22.296875 " fill-opacity="1" fill-rule="evenodd"/></g><g clip-path="url(#114f46bca4)"><path fill="#7d3127" d="M 19.203125 10.367188 C 19.296875 10.367188 19.390625 10.371094 19.484375 10.367188 C 19.566406 10.359375 19.589844 10.390625 19.609375 10.457031 C 19.859375 11.300781 20.101562 12.140625 20.347656 12.980469 C 20.476562 13.433594 20.632812 13.882812 20.722656 14.347656 C 20.757812 14.515625 20.785156 14.683594 20.789062 14.847656 C 19.476562 14.847656 18.167969 14.847656 16.855469 14.847656 C 16.820312 14.609375 16.875 14.378906 16.929688 14.148438 C 17.101562 13.5 17.300781 12.851562 17.492188 12.207031 C 17.664062 11.632812 17.824219 11.058594 18 10.484375 C 18.011719 10.445312 18.019531 10.402344 18.058594 10.371094 C 18.4375 10.371094 18.820312 10.367188 19.203125 10.367188 Z M 19.203125 10.367188 " fill-opacity="1" fill-rule="evenodd"/></g><path fill="#92442f" d="M 18.058594 10.371094 C 18.058594 10.539062 17.976562 10.683594 17.933594 10.839844 C 17.792969 11.363281 17.632812 11.886719 17.476562 12.410156 C 17.292969 13.007812 17.105469 13.613281 16.957031 14.214844 C 16.914062 14.382812 16.886719 14.550781 16.882812 14.71875 C 16.882812 14.765625 16.882812 14.808594 16.855469 14.847656 C 16.65625 14.847656 16.457031 14.847656 16.261719 14.847656 C 16.285156 14.429688 16.394531 14.03125 16.511719 13.628906 C 16.71875 12.941406 16.914062 12.253906 17.117188 11.566406 C 17.226562 11.203125 17.332031 10.839844 17.4375 10.472656 C 17.449219 10.4375 17.449219 10.410156 17.457031 10.371094 C 17.65625 10.371094 17.855469 10.371094 18.058594 10.371094 Z M 18.058594 10.371094 " fill-opacity="1" fill-rule="evenodd"/><g clip-path="url(#de3b3e96c9)"><path fill="#662d26" d="M 16.882812 22.296875 C 17.320312 22.261719 17.757812 22.273438 18.195312 22.273438 C 18.355469 22.273438 18.527344 22.328125 18.683594 22.289062 C 18.890625 22.242188 19.082031 22.308594 19.289062 22.277344 C 19.453125 22.253906 19.621094 22.265625 19.789062 22.273438 C 20.082031 22.289062 20.371094 22.195312 20.664062 22.21875 C 20.726562 22.226562 20.753906 22.183594 20.757812 22.136719 C 20.765625 22.097656 20.765625 22.0625 20.765625 22.027344 C 20.765625 20.535156 20.765625 19.046875 20.765625 17.558594 C 20.765625 17.480469 20.757812 17.40625 20.714844 17.34375 C 20.742188 17.34375 20.773438 17.34375 20.796875 17.347656 C 20.808594 17.390625 20.804688 17.4375 20.804688 17.480469 C 20.804688 19.007812 20.796875 20.535156 20.808594 22.058594 C 20.808594 22.332031 20.710938 22.554688 20.554688 22.769531 C 20.539062 22.78125 20.527344 22.792969 20.515625 22.796875 C 20.441406 22.839844 20.351562 22.835938 20.273438 22.835938 C 19.570312 22.835938 18.871094 22.828125 18.164062 22.835938 C 17.894531 22.835938 17.621094 22.828125 17.34375 22.835938 C 17.289062 22.835938 17.226562 22.824219 17.238281 22.914062 C 17.226562 22.964844 17.1875 22.960938 17.148438 22.9375 C 17.117188 22.917969 17.105469 22.886719 17.09375 22.859375 C 17.0625 22.703125 16.976562 22.578125 16.898438 22.445312 C 16.875 22.398438 16.835938 22.351562 16.882812 22.296875 Z M 16.882812 22.296875 " fill-opacity="1" fill-rule="evenodd"/></g><g clip-path="url(#f2b2188f6f)"><path fill="#888987" d="M 20.527344 22.761719 C 20.777344 22.433594 20.804688 22.0625 20.804688 21.667969 C 20.789062 20.230469 20.796875 18.789062 20.796875 17.347656 C 20.804688 17.34375 20.808594 17.34375 20.816406 17.347656 C 20.816406 18.949219 20.820312 20.558594 20.816406 22.164062 C 20.816406 22.25 20.871094 22.285156 20.898438 22.351562 C 20.828125 22.511719 20.726562 22.660156 20.632812 22.816406 C 20.589844 22.816406 20.535156 22.835938 20.527344 22.761719 Z M 20.527344 22.761719 " fill-opacity="1" fill-rule="evenodd"/></g><path fill="#f9fafa" d="M 19.203125 10.347656 C 18.632812 10.34375 18.0625 10.34375 17.492188 10.347656 C 17.40625 10.347656 17.386719 10.332031 17.414062 10.246094 C 17.488281 10.007812 17.554688 9.769531 17.621094 9.53125 C 17.675781 9.320312 17.667969 9.113281 17.65625 8.902344 C 17.65625 8.800781 17.6875 8.769531 17.789062 8.769531 C 18.183594 8.78125 18.570312 8.777344 18.964844 8.777344 C 18.976562 8.800781 18.984375 8.824219 18.976562 8.847656 C 18.953125 9.304688 19.058594 9.738281 19.183594 10.175781 C 19.195312 10.230469 19.226562 10.28125 19.203125 10.34375 Z M 19.203125 10.347656 " fill-opacity="1" fill-rule="evenodd"/><path fill="#e1e3e1" d="M 19.203125 10.34375 C 19.101562 10.015625 18.996094 9.683594 18.964844 9.339844 C 18.945312 9.152344 18.921875 8.96875 18.964844 8.777344 C 18.96875 8.777344 18.984375 8.777344 18.996094 8.777344 C 19.09375 8.777344 19.203125 8.777344 19.300781 8.777344 C 19.257812 9.277344 19.371094 9.75 19.539062 10.21875 C 19.578125 10.332031 19.546875 10.355469 19.433594 10.347656 C 19.359375 10.34375 19.277344 10.34375 19.203125 10.34375 Z M 19.203125 10.34375 " fill-opacity="1" fill-rule="evenodd"/><path fill="#b4282c" d="M 19.039062 8.375 C 19.015625 8.375 18.996094 8.375 18.96875 8.375 C 18.976562 8.316406 18.9375 8.203125 18.996094 8.210938 C 19.082031 8.210938 19.03125 8.316406 19.039062 8.375 Z M 19.039062 8.375 " fill-opacity="1" fill-rule="evenodd"/><path fill="#f2f0f0" d="M 17.84375 8.394531 C 18.28125 8.394531 18.714844 8.414062 19.152344 8.398438 C 19.3125 8.394531 19.378906 8.460938 19.402344 8.589844 C 18.828125 8.597656 18.25 8.597656 17.675781 8.605469 C 17.632812 8.605469 17.554688 8.628906 17.570312 8.554688 C 17.574219 8.503906 17.582031 8.414062 17.675781 8.398438 C 17.730469 8.394531 17.789062 8.394531 17.84375 8.394531 Z M 17.84375 8.394531 " fill-opacity="1" fill-rule="evenodd"/><g clip-path="url(#bf2542ea85)"><path fill="#676866" d="M 20.527344 22.761719 C 20.546875 22.8125 20.609375 22.773438 20.632812 22.816406 C 20.515625 23.0625 20.316406 23.175781 20.035156 23.167969 C 19.1875 23.164062 18.351562 23.164062 17.507812 23.164062 C 17.445312 23.089844 17.355469 23.066406 17.257812 23.066406 C 17.105469 23.0625 16.949219 23.089844 16.800781 23.042969 C 16.875 22.976562 16.960938 23.007812 17.050781 23.003906 C 17.132812 22.996094 17.210938 23.007812 17.292969 23.007812 C 18.183594 23.003906 19.0625 22.996094 19.953125 23.007812 C 20.191406 23.007812 20.367188 22.941406 20.503906 22.769531 C 20.507812 22.769531 20.515625 22.769531 20.527344 22.761719 Z M 20.527344 22.761719 " fill-opacity="1" fill-rule="evenodd"/></g><g clip-path="url(#721f60f578)"><path fill="#7d3f2d" d="M 17.300781 23.039062 C 17.132812 23.042969 16.96875 23.042969 16.800781 23.042969 C 16.730469 23.042969 16.675781 23.003906 16.625 22.964844 C 16.523438 22.792969 16.425781 22.621094 16.324219 22.445312 C 16.304688 22.410156 16.273438 22.367188 16.28125 22.320312 C 16.394531 22.265625 16.519531 22.300781 16.636719 22.296875 C 16.707031 22.289062 16.78125 22.296875 16.855469 22.296875 C 16.863281 22.296875 16.875 22.296875 16.882812 22.296875 C 16.875 22.363281 16.917969 22.417969 16.945312 22.46875 C 17.011719 22.582031 17.09375 22.691406 17.117188 22.828125 C 17.132812 22.871094 17.136719 22.941406 17.21875 22.941406 C 17.269531 22.960938 17.304688 22.984375 17.300781 23.039062 Z M 17.300781 23.039062 " fill-opacity="1" fill-rule="evenodd"/></g><g clip-path="url(#97a2c68e72)"><path fill="#4a2a26" d="M 17.300781 23.039062 C 17.273438 23.007812 17.242188 22.972656 17.21875 22.941406 C 17.15625 22.792969 17.15625 22.792969 17.335938 22.792969 C 18.332031 22.792969 19.332031 22.792969 20.328125 22.792969 C 20.382812 22.792969 20.445312 22.796875 20.503906 22.769531 C 20.445312 22.929688 20.308594 23.042969 20.128906 23.042969 C 19.1875 23.042969 18.246094 23.039062 17.300781 23.039062 Z M 17.300781 23.039062 " fill-opacity="1" fill-rule="evenodd"/></g><g clip-path="url(#4a9756abab)"><path fill="#fefefe" d="M 17.714844 15.824219 C 17.71875 15.855469 17.695312 15.871094 17.699219 15.894531 C 17.71875 15.894531 17.726562 15.882812 17.730469 15.878906 C 17.839844 15.78125 17.925781 15.667969 17.996094 15.542969 C 18.019531 15.507812 18.03125 15.464844 18.03125 15.421875 C 18.03125 15.371094 18.007812 15.351562 17.957031 15.363281 C 17.886719 15.375 17.824219 15.417969 17.769531 15.464844 C 17.507812 15.667969 17.292969 15.914062 17.148438 16.207031 C 17.101562 16.300781 17.070312 16.402344 17.082031 16.511719 C 17.09375 16.667969 17.1875 16.746094 17.351562 16.726562 C 17.480469 16.707031 17.601562 16.648438 17.707031 16.578125 C 17.824219 16.5 17.933594 16.410156 18.039062 16.3125 C 18.050781 16.300781 18.058594 16.289062 18.0625 16.273438 C 18.121094 16.082031 18.25 15.960938 18.4375 15.878906 C 18.476562 15.867188 18.519531 15.859375 18.5625 15.867188 C 18.632812 15.878906 18.652344 15.90625 18.613281 15.96875 C 18.675781 15.980469 18.683594 16.015625 18.683594 16.0625 C 18.675781 16.144531 18.652344 16.222656 18.609375 16.296875 C 18.601562 16.308594 18.589844 16.320312 18.601562 16.332031 C 18.613281 16.34375 18.632812 16.34375 18.644531 16.335938 C 18.695312 16.324219 18.738281 16.285156 18.746094 16.234375 C 18.789062 16.042969 18.875 15.871094 18.984375 15.703125 C 19.039062 15.613281 19.101562 15.523438 19.183594 15.453125 C 19.214844 15.421875 19.246094 15.398438 19.289062 15.382812 C 19.328125 15.359375 19.351562 15.371094 19.359375 15.417969 C 19.363281 15.484375 19.351562 15.554688 19.328125 15.621094 C 19.265625 15.789062 19.164062 15.929688 19.046875 16.070312 C 19.007812 16.117188 18.964844 16.160156 18.921875 16.207031 C 18.871094 16.261719 18.894531 16.398438 18.957031 16.433594 C 18.988281 16.453125 19.027344 16.453125 19.058594 16.433594 C 19.121094 16.390625 19.175781 16.332031 19.234375 16.285156 C 19.238281 16.277344 19.238281 16.277344 19.238281 16.273438 C 19.269531 16.144531 19.382812 16.085938 19.472656 16.015625 C 19.578125 15.929688 19.695312 15.867188 19.828125 15.828125 C 19.847656 15.824219 19.863281 15.816406 19.890625 15.8125 C 19.957031 15.800781 19.988281 15.847656 20.003906 15.894531 C 20.015625 15.917969 19.996094 15.929688 19.972656 15.941406 C 19.945312 15.949219 19.933594 15.960938 19.953125 15.984375 C 19.996094 16.042969 19.984375 16.097656 19.941406 16.152344 C 19.910156 16.175781 19.890625 16.210938 19.863281 16.242188 C 19.863281 16.25 19.859375 16.253906 19.859375 16.261719 C 19.832031 16.300781 19.832031 16.367188 19.859375 16.386719 C 19.902344 16.421875 19.941406 16.402344 19.984375 16.386719 C 20.039062 16.355469 20.089844 16.3125 20.140625 16.277344 C 20.152344 16.308594 20.144531 16.332031 20.121094 16.363281 C 20.039062 16.4375 19.964844 16.523438 19.863281 16.582031 C 19.839844 16.601562 19.816406 16.613281 19.785156 16.617188 C 19.726562 16.628906 19.695312 16.605469 19.691406 16.554688 C 19.675781 16.5 19.691406 16.445312 19.707031 16.390625 C 19.714844 16.363281 19.726562 16.332031 19.738281 16.296875 C 19.664062 16.375 19.589844 16.445312 19.519531 16.511719 C 19.496094 16.535156 19.472656 16.558594 19.441406 16.578125 C 19.394531 16.601562 19.371094 16.59375 19.339844 16.558594 C 19.289062 16.503906 19.257812 16.4375 19.238281 16.363281 C 19.226562 16.378906 19.21875 16.386719 19.214844 16.398438 C 19.152344 16.46875 19.089844 16.535156 19.007812 16.582031 C 18.902344 16.648438 18.8125 16.625 18.765625 16.511719 C 18.746094 16.464844 18.746094 16.414062 18.738281 16.363281 C 18.71875 16.375 18.703125 16.386719 18.6875 16.398438 C 18.652344 16.421875 18.609375 16.4375 18.558594 16.4375 C 18.53125 16.4375 18.515625 16.445312 18.496094 16.46875 C 18.464844 16.5 18.433594 16.527344 18.394531 16.554688 C 18.289062 16.625 18.183594 16.601562 18.113281 16.5 C 18.089844 16.457031 18.070312 16.410156 18.0625 16.363281 C 18.007812 16.414062 17.949219 16.46875 17.894531 16.523438 C 17.769531 16.648438 17.632812 16.761719 17.460938 16.847656 C 17.367188 16.886719 17.273438 16.917969 17.167969 16.910156 C 16.96875 16.894531 16.820312 16.726562 16.824219 16.535156 C 16.832031 16.355469 16.894531 16.199219 16.992188 16.058594 C 17.179688 15.78125 17.398438 15.535156 17.6875 15.359375 C 17.769531 15.304688 17.855469 15.261719 17.957031 15.242188 C 18.082031 15.21875 18.15625 15.269531 18.175781 15.386719 C 18.195312 15.484375 18.167969 15.574219 18.125 15.65625 C 18 15.882812 17.824219 16.074219 17.605469 16.222656 C 17.585938 16.234375 17.5625 16.25 17.539062 16.261719 C 17.46875 16.285156 17.40625 16.230469 17.417969 16.160156 C 17.425781 16.121094 17.449219 16.085938 17.476562 16.050781 C 17.53125 15.972656 17.601562 15.90625 17.683594 15.839844 C 17.6875 15.835938 17.699219 15.824219 17.714844 15.824219 Z M 18.527344 16.019531 C 18.5 16.0625 18.476562 16.105469 18.457031 16.144531 C 18.425781 16.21875 18.414062 16.289062 18.4375 16.363281 C 18.4375 16.367188 18.445312 16.378906 18.4375 16.386719 C 18.386719 16.414062 18.339844 16.457031 18.277344 16.457031 C 18.207031 16.453125 18.195312 16.421875 18.199219 16.363281 C 18.207031 16.242188 18.28125 16.164062 18.382812 16.097656 C 18.425781 16.070312 18.476562 16.042969 18.519531 16.015625 C 18.519531 16.015625 18.519531 16.015625 18.527344 16.019531 Z M 18.953125 16.070312 C 18.988281 15.902344 19.058594 15.753906 19.164062 15.621094 C 19.183594 15.597656 19.203125 15.5625 19.234375 15.578125 C 19.257812 15.589844 19.238281 15.625 19.226562 15.648438 C 19.164062 15.804688 19.070312 15.941406 18.953125 16.070312 Z M 19.871094 15.992188 C 19.757812 16.132812 19.660156 16.285156 19.503906 16.390625 C 19.484375 16.402344 19.464844 16.414062 19.445312 16.421875 C 19.410156 16.4375 19.390625 16.425781 19.378906 16.386719 C 19.363281 16.335938 19.382812 16.296875 19.414062 16.253906 C 19.445312 16.210938 19.496094 16.183594 19.539062 16.152344 C 19.644531 16.085938 19.757812 16.03125 19.871094 15.992188 Z M 19.871094 15.992188 " fill-opacity="1" fill-rule="evenodd"/></g><path fill="#ffffff" d="M 16.4375 14.886719 C 15.898438 14.949219 15.386719 15.011719 14.839844 14.988281 C 14.316406 14.96875 13.796875 14.9375 13.285156 14.796875 C 13.265625 14.789062 13.242188 14.8125 13.226562 14.796875 C 13.265625 14.710938 13.335938 14.746094 13.402344 14.71875 C 13.660156 14.605469 13.941406 14.554688 14.214844 14.53125 C 14.472656 14.507812 14.730469 14.496094 14.992188 14.480469 L 15.617188 14.46875 C 15.617188 14.449219 15.605469 14.394531 15.605469 14.378906 C 15.375 14.378906 15.160156 14.328125 14.933594 14.347656 C 14.417969 14.382812 13.898438 14.414062 13.398438 14.570312 C 13.339844 14.582031 13.296875 14.617188 13.253906 14.644531 C 13.171875 14.707031 13.113281 14.707031 13.066406 14.632812 C 13.050781 14.609375 13.015625 14.632812 13.015625 14.617188 C 12.976562 14.6875 12.890625 14.875 12.957031 15.023438 C 12.976562 14.992188 12.996094 14.949219 13.050781 14.980469 C 13.351562 15.140625 13.691406 15.179688 14.015625 15.21875 C 14.792969 15.328125 15.566406 15.316406 16.34375 15.226562 C 16.378906 15.21875 16.425781 15.207031 16.460938 15.195312 C 16.335938 15.140625 16.238281 15.191406 16.113281 15.191406 C 16.054688 15.191406 16.003906 15.230469 15.917969 15.21875 C 16.460938 15.117188 16.96875 15.105469 17.386719 14.742188 C 17.367188 14.664062 17.320312 14.554688 17.320312 14.554688 C 17.320312 14.570312 17.292969 14.582031 17.292969 14.59375 C 17.300781 14.707031 17.1875 14.722656 17.113281 14.761719 C 17.15625 14.8125 17.125 14.796875 17.101562 14.800781 C 16.886719 14.878906 16.65625 14.855469 16.4375 14.886719 Z M 16.4375 14.886719 " fill-opacity="1" fill-rule="evenodd"/><g clip-path="url(#3fd5069308)"><path fill="#e5252b" d="M 12.757812 23.167969 C 12.558594 23.015625 12.519531 22.804688 12.515625 22.566406 C 12.496094 20.421875 12.464844 18.269531 12.433594 16.121094 C 12.433594 15.957031 12.464844 15.792969 12.546875 15.644531 C 12.660156 15.421875 12.789062 15.21875 12.953125 15.035156 C 13.027344 15.066406 13.101562 15.09375 13.089844 15.191406 C 13.015625 15.34375 12.902344 15.476562 12.820312 15.632812 C 12.753906 15.777344 12.714844 15.917969 12.714844 16.074219 C 12.714844 16.714844 12.695312 17.355469 12.722656 17.992188 C 12.746094 18.644531 12.714844 19.296875 12.746094 19.949219 C 12.769531 20.539062 12.746094 21.132812 12.769531 21.722656 C 12.785156 22.074219 12.789062 22.433594 12.789062 22.785156 C 12.789062 22.871094 12.820312 22.949219 12.871094 23.015625 C 12.984375 23.152344 13.128906 23.246094 13.289062 23.324219 C 13.359375 23.359375 13.398438 23.335938 13.398438 23.265625 C 13.398438 23.179688 13.402344 23.105469 13.390625 23.019531 C 13.378906 22.972656 13.371094 22.917969 13.371094 22.863281 C 13.382812 22.148438 13.347656 21.425781 13.339844 20.707031 C 13.335938 20.179688 13.347656 19.660156 13.316406 19.140625 C 13.289062 18.714844 13.296875 18.292969 13.296875 17.867188 C 13.304688 17.480469 13.257812 17.097656 13.273438 16.714844 C 13.285156 16.332031 13.347656 15.957031 13.546875 15.613281 C 13.597656 15.53125 13.640625 15.453125 13.714844 15.386719 C 13.867188 15.363281 14.003906 15.421875 14.148438 15.441406 C 14.691406 15.519531 15.230469 15.554688 15.78125 15.554688 C 15.949219 15.546875 16.117188 15.546875 16.285156 15.554688 C 16.335938 15.554688 16.398438 15.546875 16.441406 15.589844 C 16.410156 15.675781 16.332031 15.648438 16.269531 15.648438 C 16.042969 15.65625 16.042969 15.65625 16.125 15.859375 C 16.269531 16.207031 16.324219 16.570312 16.324219 16.941406 C 16.332031 19.082031 16.324219 21.222656 16.324219 23.367188 C 16.324219 23.449219 16.335938 23.539062 16.324219 23.628906 C 16.285156 23.6875 16.222656 23.6875 16.167969 23.695312 C 15.71875 23.761719 15.261719 23.773438 14.808594 23.761719 C 14.628906 23.71875 14.449219 23.742188 14.265625 23.71875 C 13.820312 23.652344 13.382812 23.570312 12.988281 23.355469 C 12.914062 23.289062 12.808594 23.257812 12.757812 23.167969 Z M 12.757812 23.167969 " fill-opacity="1" fill-rule="evenodd"/></g><g clip-path="url(#ab8a5e95e9)"><path fill="#ad282c" d="M 16.4375 15.589844 C 16.105469 15.589844 15.765625 15.597656 15.4375 15.589844 C 14.855469 15.574219 14.277344 15.53125 13.714844 15.398438 C 13.695312 15.410156 13.679688 15.417969 13.660156 15.410156 C 13.453125 15.351562 13.242188 15.316406 13.082031 15.152344 C 13.039062 15.113281 12.996094 15.078125 12.953125 15.035156 C 12.976562 15 12.988281 14.945312 13.050781 14.980469 C 13.351562 15.140625 13.691406 15.179688 14.015625 15.21875 C 14.792969 15.328125 15.566406 15.316406 16.34375 15.226562 C 16.378906 15.21875 16.425781 15.207031 16.460938 15.195312 C 16.5625 15.136719 16.679688 15.136719 16.789062 15.113281 C 16.945312 15.082031 17.082031 15.011719 17.230469 14.988281 C 17.28125 14.9375 17.3125 14.957031 17.34375 15 C 17.539062 15.238281 17.714844 15.484375 17.832031 15.765625 C 17.871094 15.859375 17.886719 15.960938 17.886719 16.0625 C 17.855469 18.308594 17.824219 20.550781 17.792969 22.796875 C 17.792969 22.90625 17.726562 22.964844 17.683594 23.050781 C 17.664062 23.117188 17.605469 23.144531 17.5625 23.1875 C 17.480469 23.242188 17.40625 23.292969 17.324219 23.347656 C 17.179688 23.433594 17.019531 23.484375 16.863281 23.539062 C 16.804688 23.5625 16.738281 23.582031 16.691406 23.511719 C 16.667969 23.433594 16.675781 23.347656 16.679688 23.269531 C 16.730469 22.738281 16.679688 22.199219 16.707031 21.667969 C 16.738281 21 16.707031 20.324219 16.738281 19.65625 C 16.761719 19.082031 16.75 18.507812 16.75 17.933594 C 16.757812 17.558594 16.792969 17.175781 16.78125 16.796875 C 16.769531 16.46875 16.730469 16.152344 16.605469 15.839844 C 16.566406 15.746094 16.519531 15.664062 16.4375 15.589844 Z M 16.4375 15.589844 " fill-opacity="1" fill-rule="evenodd"/></g><path fill="#e3e1de" d="M 17.148438 14.765625 C 17.1875 14.820312 17.132812 14.808594 17.113281 14.820312 C 16.898438 14.898438 16.675781 14.925781 16.457031 14.957031 C 15.917969 15.015625 15.375 15.050781 14.828125 15.027344 C 14.304688 15.003906 13.773438 14.980469 13.265625 14.835938 C 13.242188 14.832031 13.222656 14.832031 13.210938 14.808594 C 13.390625 14.683594 13.597656 14.640625 13.808594 14.59375 C 14.199219 14.507812 14.597656 14.515625 14.984375 14.449219 C 15.203125 14.449219 15.429688 14.449219 15.648438 14.449219 C 15.703125 14.519531 15.699219 14.59375 15.648438 14.664062 C 15.355469 14.582031 15.066406 14.632812 14.777344 14.699219 C 14.703125 14.71875 14.660156 14.765625 14.730469 14.84375 C 14.753906 14.855469 14.773438 14.875 14.796875 14.875 C 15.105469 14.875 15.410156 14.890625 15.71875 14.863281 C 15.792969 14.847656 15.863281 14.847656 15.929688 14.867188 C 16.09375 14.902344 16.25 14.914062 16.410156 14.867188 C 16.550781 14.878906 16.820312 14.824219 16.929688 14.765625 C 16.867188 14.695312 16.78125 14.6875 16.707031 14.660156 C 16.675781 14.644531 16.613281 14.652344 16.617188 14.585938 C 16.832031 14.542969 17 14.632812 17.148438 14.765625 Z M 17.148438 14.765625 " fill-opacity="1" fill-rule="evenodd"/><path fill="#eeefee" d="M 15.671875 14.132812 C 15.660156 14.222656 15.65625 14.3125 15.648438 14.402344 C 15.40625 14.402344 15.167969 14.382812 14.921875 14.402344 C 14.402344 14.4375 13.882812 14.46875 13.382812 14.617188 C 13.328125 14.632812 13.285156 14.664062 13.242188 14.695312 C 13.160156 14.753906 13.082031 14.746094 13.035156 14.675781 C 12.976562 14.59375 13.078125 14.5625 13.121094 14.53125 C 13.265625 14.4375 13.445312 14.417969 13.609375 14.378906 C 14.015625 14.269531 14.433594 14.226562 14.855469 14.1875 C 15.074219 14.164062 15.296875 14.179688 15.523438 14.179688 C 15.578125 14.179688 15.636719 14.1875 15.671875 14.132812 Z M 15.671875 14.132812 " fill-opacity="1" fill-rule="evenodd"/><path fill="#eeefee" d="M 17.148438 14.765625 C 16.980469 14.6875 16.820312 14.582031 16.617188 14.59375 C 16.5625 14.632812 16.5 14.59375 16.441406 14.617188 C 16.375 14.609375 16.304688 14.617188 16.230469 14.621094 C 16.1875 14.628906 16.128906 14.628906 16.09375 14.585938 C 16.054688 14.460938 16.050781 14.339844 16.136719 14.226562 C 16.5 14.246094 16.851562 14.347656 17.195312 14.449219 C 17.261719 14.472656 17.324219 14.519531 17.324219 14.609375 C 17.332031 14.722656 17.226562 14.730469 17.148438 14.765625 Z M 17.148438 14.765625 " fill-opacity="1" fill-rule="evenodd"/><path fill="#e72b2f" d="M 16.113281 14.59375 C 16.148438 14.640625 16.144531 14.683594 16.117188 14.730469 C 16.097656 14.773438 16.066406 14.808594 16.011719 14.800781 C 15.960938 14.796875 15.949219 14.746094 15.949219 14.707031 C 15.9375 14.519531 15.960938 14.328125 15.980469 14.136719 C 16.011719 13.742188 16.035156 13.34375 16.066406 12.941406 C 16.097656 12.542969 16.125 12.148438 16.160156 11.746094 C 16.167969 11.675781 16.167969 11.609375 16.175781 11.539062 C 16.175781 11.503906 16.175781 11.464844 16.191406 11.4375 C 16.191406 11.429688 16.191406 11.429688 16.191406 11.429688 C 16.113281 11.441406 16.105469 11.503906 16.097656 11.5625 C 16.082031 11.925781 16.042969 12.292969 16.019531 12.660156 C 15.992188 13.039062 15.960938 13.421875 15.929688 13.796875 C 15.910156 14.089844 15.894531 14.390625 15.867188 14.683594 C 15.855469 14.8125 15.773438 14.863281 15.660156 14.800781 C 15.46875 14.722656 15.8125 11.878906 15.84375 11.449219 C 15.847656 11.371094 15.886719 11.324219 15.980469 11.324219 C 16.054688 11.316406 16.128906 11.316406 16.207031 11.316406 C 16.292969 11.316406 16.34375 11.359375 16.34375 11.4375 C 16.347656 11.519531 16.324219 11.847656 16.316406 11.945312 C 16.25 12.734375 16.242188 13.71875 16.113281 14.59375 Z M 16.113281 14.59375 " fill-opacity="1" fill-rule="evenodd"/><path fill="#eeefee" d="M 17.230469 14.988281 C 17 15.125 16.730469 15.167969 16.460938 15.195312 C 16.335938 15.140625 16.21875 15.214844 16.09375 15.214844 C 16.03125 15.214844 15.96875 15.226562 15.878906 15.214844 C 16.425781 15.117188 16.96875 15.070312 17.386719 14.707031 C 17.386719 14.8125 17.375 14.84375 17.273438 14.921875 C 17.257812 14.9375 17.195312 14.9375 17.230469 14.988281 Z M 17.230469 14.988281 " fill-opacity="1" fill-rule="evenodd"/><path fill="#918f8b" d="M 14.984375 14.449219 C 14.777344 14.527344 14.558594 14.519531 14.339844 14.542969 C 13.953125 14.59375 13.566406 14.632812 13.210938 14.808594 C 13.246094 14.730469 13.328125 14.71875 13.402344 14.6875 C 13.660156 14.582031 13.929688 14.53125 14.210938 14.503906 C 14.464844 14.480469 14.722656 14.46875 14.984375 14.449219 Z M 14.984375 14.449219 " fill-opacity="1" fill-rule="evenodd"/><g clip-path="url(#ebfee6be6f)"><path fill="#ec6f4f" d="M 13.082031 15.152344 C 13.285156 15.261719 13.492188 15.34375 13.714844 15.398438 C 13.710938 15.460938 13.660156 15.496094 13.632812 15.542969 C 13.464844 15.8125 13.351562 16.105469 13.335938 16.421875 C 13.289062 17.257812 13.347656 18.09375 13.347656 18.933594 C 13.347656 19.289062 13.347656 19.65625 13.367188 20.011719 C 13.390625 20.585938 13.371094 21.160156 13.398438 21.734375 C 13.410156 22.128906 13.398438 22.519531 13.414062 22.914062 C 13.421875 23.050781 13.433594 23.191406 13.441406 23.335938 C 13.441406 23.414062 13.410156 23.421875 13.339844 23.390625 C 13.203125 23.332031 13.070312 23.253906 12.953125 23.15625 C 12.808594 23.042969 12.746094 22.898438 12.746094 22.714844 C 12.738281 21.871094 12.738281 21.03125 12.714844 20.1875 C 12.703125 19.566406 12.722656 18.945312 12.695312 18.320312 C 12.660156 17.59375 12.691406 16.871094 12.671875 16.144531 C 12.660156 15.902344 12.734375 15.6875 12.863281 15.484375 C 12.933594 15.371094 13.007812 15.261719 13.082031 15.152344 Z M 13.082031 15.152344 " fill-opacity="1" fill-rule="evenodd"/></g><g clip-path="url(#36b2733150)"><path fill="#e83c37" d="M 16.4375 15.589844 C 16.503906 15.578125 16.535156 15.609375 16.566406 15.664062 C 16.699219 15.90625 16.769531 16.164062 16.792969 16.4375 C 16.863281 17.246094 16.789062 18.058594 16.789062 18.871094 C 16.789062 19.667969 16.789062 20.46875 16.761719 21.261719 C 16.742188 21.855469 16.757812 22.453125 16.738281 23.042969 C 16.730469 23.210938 16.71875 23.371094 16.71875 23.539062 C 16.597656 23.640625 16.46875 23.671875 16.3125 23.628906 C 16.273438 23.582031 16.285156 23.523438 16.285156 23.46875 C 16.285156 21.308594 16.285156 19.160156 16.285156 17.007812 C 16.285156 16.523438 16.207031 16.0625 15.972656 15.625 C 16.128906 15.589844 16.285156 15.644531 16.4375 15.589844 Z M 16.4375 15.589844 " fill-opacity="1" fill-rule="evenodd"/></g><path fill="#fdfefd" d="M 16.238281 11.390625 C 16.210938 11.644531 16.1875 11.902344 16.167969 12.160156 C 16.105469 12.996094 16.042969 13.832031 15.980469 14.671875 C 15.980469 14.707031 15.929688 14.777344 16.011719 14.785156 C 16.09375 14.796875 16.097656 14.722656 16.097656 14.664062 C 16.097656 14.640625 16.105469 14.617188 16.113281 14.59375 C 16.230469 14.605469 16.347656 14.542969 16.46875 14.59375 C 16.550781 14.59375 16.59375 14.632812 16.582031 14.707031 C 16.566406 14.789062 16.5625 14.878906 16.4375 14.886719 C 16.269531 14.964844 16.09375 14.9375 15.925781 14.902344 C 15.855469 14.886719 15.785156 14.886719 15.722656 14.886719 C 15.421875 14.910156 15.125 14.890625 14.828125 14.898438 C 14.785156 14.898438 14.746094 14.878906 14.710938 14.855469 C 14.609375 14.777344 14.617188 14.722656 14.734375 14.683594 C 15.003906 14.59375 15.285156 14.585938 15.566406 14.59375 C 15.625 14.59375 15.617188 14.640625 15.628906 14.671875 C 15.605469 14.777344 15.6875 14.789062 15.761719 14.796875 C 15.867188 14.800781 15.824219 14.71875 15.824219 14.683594 C 15.90625 13.628906 15.988281 12.578125 16.066406 11.527344 C 16.082031 11.371094 16.082031 11.371094 16.238281 11.390625 Z M 16.238281 11.390625 " fill-opacity="1" fill-rule="evenodd"/><path fill="#8e8d89" d="M 16.4375 14.886719 C 16.585938 14.789062 16.597656 14.683594 16.46875 14.59375 C 16.519531 14.542969 16.566406 14.609375 16.617188 14.59375 C 16.71875 14.628906 16.820312 14.664062 16.917969 14.707031 C 16.949219 14.71875 16.988281 14.734375 16.980469 14.773438 C 16.980469 14.8125 16.9375 14.820312 16.90625 14.824219 C 16.75 14.855469 16.597656 14.921875 16.4375 14.886719 Z M 16.4375 14.886719 " fill-opacity="1" fill-rule="evenodd"/><path fill="#a09e9a" d="M 14.710938 14.855469 C 14.921875 14.910156 15.140625 14.875 15.355469 14.886719 C 15.480469 14.890625 15.597656 14.886719 15.722656 14.886719 C 15.699219 14.921875 15.660156 14.910156 15.628906 14.910156 C 15.375 14.910156 15.117188 14.910156 14.859375 14.910156 C 14.804688 14.910156 14.753906 14.898438 14.703125 14.878906 C 14.703125 14.875 14.703125 14.867188 14.703125 14.867188 C 14.703125 14.863281 14.710938 14.863281 14.710938 14.855469 Z M 14.710938 14.855469 " fill-opacity="1" fill-rule="evenodd"/><path fill="#e3e1de" d="M 15.367188 14.695312 C 15.410156 14.71875 15.40625 14.753906 15.375 14.777344 C 15.304688 14.832031 15 14.820312 14.910156 14.761719 C 15.03125 14.640625 15.179688 14.683594 15.316406 14.6875 C 15.335938 14.6875 15.347656 14.695312 15.367188 14.695312 Z M 15.367188 14.695312 " fill-opacity="1" fill-rule="evenodd"/><path fill="#a4a19c" d="M 15.367188 14.695312 C 15.261719 14.710938 15.148438 14.671875 15.035156 14.707031 C 14.992188 14.722656 14.953125 14.734375 14.910156 14.761719 C 14.910156 14.707031 14.949219 14.695312 14.992188 14.6875 C 15.117188 14.652344 15.242188 14.640625 15.367188 14.695312 Z M 15.367188 14.695312 " fill-opacity="1" fill-rule="evenodd"/></svg>