<svg xmlns="http://www.w3.org/2000/svg" xmlns:xlink="http://www.w3.org/1999/xlink" width="185" zoomAndPan="magnify" viewBox="0 0 138.75 104.999996" height="140" preserveAspectRatio="xMidYMid meet" version="1.0"><defs><clipPath id="1100c5a02d"><path d="M 28 9 L 118.207031 9 L 118.207031 99.316406 L 28 99.316406 Z M 28 9 " clip-rule="nonzero"/></clipPath><clipPath id="dc132e3b14"><path d="M 25.207031 6 L 116 6 L 116 97 L 25.207031 97 Z M 25.207031 6 " clip-rule="nonzero"/></clipPath></defs><g clip-path="url(#1100c5a02d)"><path fill="#e6e7e8" d="M 117.609375 68.121094 L 109.207031 53.585938 C 108.167969 51.785156 105.855469 51.167969 104.058594 52.207031 L 102.984375 52.824219 C 103.914062 50.320312 105.617188 48.097656 107.972656 46.570312 C 108.9375 45.945312 109.515625 44.886719 109.515625 43.734375 C 109.515625 42.585938 108.9375 41.523438 107.972656 40.902344 C 102.9375 37.640625 100.847656 31.210938 103.007812 25.609375 C 103.421875 24.535156 103.265625 23.339844 102.589844 22.410156 C 101.914062 21.480469 100.820312 20.960938 99.675781 21.023438 C 93.695312 21.347656 88.21875 17.371094 86.675781 11.574219 C 86.382812 10.460938 85.550781 9.585938 84.457031 9.230469 C 83.367188 8.875 82.179688 9.09375 81.285156 9.820312 C 76.628906 13.605469 69.875 13.605469 65.21875 9.820312 C 64.324219 9.09375 63.140625 8.875 62.046875 9.230469 C 60.953125 9.585938 60.125 10.460938 59.828125 11.574219 C 58.285156 17.371094 52.820312 21.339844 46.828125 21.023438 C 45.683594 20.960938 44.589844 21.480469 43.914062 22.410156 C 43.238281 23.339844 43.082031 24.535156 43.496094 25.609375 C 45.652344 31.210938 43.566406 37.640625 38.53125 40.898438 C 37.566406 41.523438 36.988281 42.585938 36.988281 43.734375 C 36.988281 44.886719 37.566406 45.945312 38.53125 46.570312 C 40.886719 48.097656 42.589844 50.320312 43.519531 52.824219 L 42.445312 52.207031 C 40.644531 51.167969 38.335938 51.785156 37.296875 53.585938 L 28.894531 68.121094 C 28.390625 68.992188 28.257812 70.011719 28.515625 70.984375 C 28.777344 71.960938 29.402344 72.773438 30.277344 73.277344 L 36.09375 76.636719 C 36.683594 76.980469 37.332031 77.140625 37.972656 77.140625 C 39.277344 77.140625 40.542969 76.464844 41.242188 75.257812 L 41.640625 74.570312 L 49.394531 80.675781 C 49.261719 81.296875 49.269531 81.945312 49.457031 82.574219 C 49.753906 83.554688 50.410156 84.359375 51.308594 84.84375 C 51.882812 85.152344 52.503906 85.296875 53.113281 85.296875 C 53.417969 85.296875 53.71875 85.257812 54.011719 85.183594 C 53.917969 85.757812 53.941406 86.347656 54.113281 86.921875 C 54.410156 87.914062 55.074219 88.726562 55.980469 89.214844 C 56.5625 89.527344 57.1875 89.671875 57.804688 89.671875 C 58.140625 89.671875 58.476562 89.628906 58.804688 89.542969 C 58.75 90.050781 58.792969 90.574219 58.945312 91.078125 C 59.242188 92.070312 59.90625 92.882812 60.8125 93.371094 C 61.394531 93.683594 62.019531 93.832031 62.632812 93.832031 C 63.238281 93.832031 63.828125 93.679688 64.363281 93.414062 C 64.386719 93.527344 64.398438 93.644531 64.433594 93.757812 C 64.703125 94.652344 65.300781 95.386719 66.117188 95.824219 C 66.640625 96.105469 67.203125 96.238281 67.761719 96.238281 C 68.148438 96.238281 68.53125 96.164062 68.894531 96.039062 L 71.695312 98.246094 C 72.371094 98.792969 73.175781 99.0625 73.976562 99.0625 C 74.925781 99.0625 75.867188 98.6875 76.582031 97.945312 C 77.1875 97.316406 77.523438 96.527344 77.589844 95.71875 L 77.703125 95.816406 C 79.355469 97.167969 81.792969 96.921875 83.140625 95.269531 C 83.703125 94.582031 84.003906 93.757812 84.042969 92.929688 C 85.523438 93.789062 87.449219 93.589844 88.722656 92.359375 C 89.464844 91.632812 89.882812 90.671875 89.902344 89.636719 L 90.566406 90.191406 C 91.398438 90.878906 92.492188 91.1875 93.566406 91.03125 C 94.636719 90.878906 95.601562 90.273438 96.214844 89.371094 C 97.324219 87.738281 96.945312 85.441406 95.351562 84.148438 L 92.285156 81.648438 L 104.804688 74.464844 L 105.261719 75.257812 C 105.957031 76.464844 107.230469 77.140625 108.53125 77.140625 C 109.171875 77.140625 109.820312 76.980469 110.410156 76.636719 L 116.226562 73.277344 C 117.101562 72.773438 117.726562 71.960938 117.984375 70.984375 C 118.246094 70.011719 118.113281 68.992188 117.609375 68.121094 Z M 117.609375 68.121094 " fill-opacity="1" fill-rule="nonzero"/></g><path fill="#6dc9f7" d="M 35.921875 42.917969 C 39.011719 44.921875 41.042969 48.011719 41.777344 51.414062 L 44.867188 53.199219 C 46.3125 54.035156 46.808594 55.882812 45.972656 57.324219 L 45.921875 57.414062 L 50.574219 60.101562 C 51.765625 60.792969 53.214844 60.890625 54.492188 60.371094 L 58.65625 58.679688 C 60.671875 57.859375 62.972656 58.203125 64.660156 59.574219 L 65.449219 60.21875 L 74.199219 57.460938 C 75.738281 56.972656 77.394531 57.003906 78.917969 57.539062 L 86.519531 60.226562 C 87.746094 60.660156 89.097656 60.539062 90.230469 59.890625 L 94.546875 57.410156 L 94.496094 57.324219 C 93.664062 55.882812 94.15625 54.035156 95.601562 53.199219 L 98.695312 51.414062 C 99.429688 48.011719 101.457031 44.917969 104.546875 42.917969 C 106.144531 41.886719 106.144531 39.546875 104.546875 38.515625 C 99.183594 35.042969 96.988281 28.28125 99.289062 22.320312 C 99.972656 20.542969 98.601562 18.65625 96.703125 18.757812 C 90.320312 19.101562 84.574219 14.925781 82.933594 8.746094 C 82.441406 6.910156 80.222656 6.1875 78.746094 7.386719 C 73.789062 11.417969 66.683594 11.417969 61.726562 7.386719 C 60.25 6.1875 58.027344 6.910156 57.539062 8.746094 C 55.894531 14.925781 50.148438 19.101562 43.769531 18.757812 C 41.871094 18.65625 40.5 20.542969 41.183594 22.320312 C 43.480469 28.28125 41.285156 35.042969 35.921875 38.515625 C 34.324219 39.550781 34.324219 41.886719 35.921875 42.917969 Z M 35.921875 42.917969 " fill-opacity="1" fill-rule="nonzero"/><path fill="#d4fbff" d="M 56.003906 59.757812 L 58.65625 58.675781 C 60.671875 57.859375 62.972656 58.203125 64.660156 59.574219 L 65.449219 60.21875 L 74.199219 57.457031 C 75.738281 56.972656 77.394531 57 78.917969 57.539062 L 84.6875 59.578125 C 90.34375 55.234375 93.996094 48.402344 93.996094 40.714844 C 93.996094 27.589844 83.355469 16.945312 70.234375 16.945312 C 57.113281 16.945312 46.476562 27.589844 46.476562 40.714844 C 46.476562 48.507812 50.21875 55.421875 56.003906 59.757812 Z M 56.003906 59.757812 " fill-opacity="1" fill-rule="nonzero"/><path fill="#fa759e" d="M 82.875 31.96875 C 79.777344 28.871094 74.753906 28.871094 71.65625 31.96875 L 70.234375 33.394531 L 68.8125 31.96875 C 65.714844 28.871094 60.691406 28.871094 57.59375 31.96875 C 54.496094 35.070312 54.496094 40.09375 57.59375 43.195312 L 59.015625 44.617188 L 68.472656 54.078125 C 69.445312 55.050781 71.023438 55.050781 71.996094 54.078125 L 81.453125 44.617188 L 82.875 43.191406 C 85.972656 40.09375 85.972656 35.070312 82.875 31.96875 Z M 82.875 31.96875 " fill-opacity="1" fill-rule="nonzero"/><path fill="#ffd7e5" d="M 91.859375 81.710938 L 87.941406 78.523438 L 102.0625 70.417969 L 94.546875 57.410156 L 90.226562 59.890625 C 89.097656 60.535156 87.742188 60.660156 86.515625 60.226562 L 78.917969 57.539062 C 77.394531 57 75.738281 56.972656 74.195312 57.457031 L 65.449219 60.21875 L 64.65625 59.574219 C 62.96875 58.203125 60.671875 57.859375 58.65625 58.675781 L 54.488281 60.371094 C 53.210938 60.890625 51.765625 60.792969 50.570312 60.101562 L 45.921875 57.410156 L 38.40625 70.417969 L 47.238281 77.375 C 46.707031 78.792969 47.28125 80.425781 48.648438 81.160156 C 49.683594 81.714844 50.898438 81.597656 51.816406 80.984375 L 52.105469 81.214844 L 52.050781 81.316406 C 51.242188 82.824219 51.8125 84.722656 53.320312 85.53125 C 54.535156 86.183594 55.992188 85.925781 56.9375 85.019531 L 57.070312 85.121094 L 56.882812 85.472656 C 56.074219 86.980469 56.644531 88.878906 58.152344 89.6875 C 59.449219 90.386719 61.035156 90.050781 61.96875 88.980469 L 62.105469 89.089844 C 61.820312 90.265625 62.339844 91.542969 63.457031 92.140625 C 64.273438 92.582031 65.226562 92.554688 65.996094 92.15625 L 69.152344 94.640625 C 70.308594 95.578125 71.988281 95.476562 73.019531 94.40625 C 74.042969 93.34375 74.09375 91.675781 73.136719 90.554688 L 72.925781 90.308594 L 75.164062 92.214844 C 76.488281 93.296875 78.460938 93.101562 79.542969 91.773438 C 80.566406 90.523438 80.523438 88.648438 79.390625 87.535156 L 80.890625 88.882812 C 82.121094 89.988281 83.992188 89.949219 85.179688 88.800781 C 86.453125 87.5625 86.449219 85.511719 85.167969 84.28125 L 84.597656 83.734375 L 88.027344 86.589844 C 89.421875 87.738281 91.527344 87.46875 92.574219 85.929688 C 93.488281 84.582031 93.121094 82.738281 91.859375 81.710938 Z M 91.859375 81.710938 " fill-opacity="1" fill-rule="nonzero"/><path fill="#0089ef" d="M 33.453125 72.964844 L 27.636719 69.605469 C 26.191406 68.773438 25.695312 66.925781 26.53125 65.480469 L 34.933594 50.945312 C 35.765625 49.503906 37.609375 49.007812 39.050781 49.839844 L 44.871094 53.199219 C 46.3125 54.035156 46.808594 55.882812 45.972656 57.324219 L 37.574219 71.863281 C 36.738281 73.304688 34.894531 73.796875 33.453125 72.964844 Z M 33.453125 72.964844 " fill-opacity="1" fill-rule="nonzero"/><path fill="#d4fbff" d="M 42.628906 56.867188 C 42.628906 57.128906 42.578125 57.378906 42.480469 57.621094 C 42.378906 57.863281 42.238281 58.078125 42.050781 58.261719 C 41.867188 58.445312 41.652344 58.589844 41.410156 58.691406 C 41.171875 58.789062 40.917969 58.839844 40.65625 58.839844 C 40.394531 58.839844 40.144531 58.789062 39.902344 58.691406 C 39.660156 58.589844 39.449219 58.445312 39.261719 58.261719 C 39.078125 58.078125 38.933594 57.863281 38.835938 57.621094 C 38.734375 57.378906 38.683594 57.128906 38.683594 56.867188 C 38.683594 56.605469 38.734375 56.351562 38.835938 56.109375 C 38.933594 55.871094 39.078125 55.65625 39.261719 55.472656 C 39.449219 55.285156 39.660156 55.144531 39.902344 55.042969 C 40.144531 54.941406 40.394531 54.894531 40.65625 54.894531 C 40.917969 54.894531 41.171875 54.941406 41.410156 55.042969 C 41.652344 55.144531 41.867188 55.285156 42.050781 55.472656 C 42.238281 55.65625 42.378906 55.871094 42.480469 56.109375 C 42.578125 56.351562 42.628906 56.605469 42.628906 56.867188 Z M 42.628906 56.867188 " fill-opacity="1" fill-rule="nonzero"/><path fill="#0089ef" d="M 107.015625 72.964844 L 112.832031 69.605469 C 114.277344 68.773438 114.773438 66.925781 113.9375 65.480469 L 105.535156 50.945312 C 104.703125 49.503906 102.859375 49.007812 101.417969 49.839844 L 95.601562 53.199219 C 94.15625 54.035156 93.660156 55.882812 94.496094 57.324219 L 102.894531 71.863281 C 103.730469 73.304688 105.574219 73.796875 107.015625 72.964844 Z M 107.015625 72.964844 " fill-opacity="1" fill-rule="nonzero"/><path fill="#ffffff" d="M 111.84375 67.210938 L 103.078125 52.039062 C 102.480469 51.003906 101.371094 50.460938 100.253906 50.511719 L 101.417969 49.839844 C 102.859375 49.007812 104.703125 49.5 105.535156 50.945312 L 113.9375 65.480469 C 114.769531 66.921875 114.277344 68.769531 112.832031 69.605469 L 111.941406 70.121094 C 112.378906 69.226562 112.378906 68.136719 111.84375 67.210938 Z M 111.84375 67.210938 " fill-opacity="1" fill-rule="nonzero"/><path fill="#d4fbff" d="M 101.785156 56.867188 C 101.785156 57.128906 101.734375 57.378906 101.632812 57.621094 C 101.535156 57.863281 101.390625 58.078125 101.207031 58.261719 C 101.023438 58.445312 100.808594 58.589844 100.566406 58.691406 C 100.324219 58.789062 100.074219 58.839844 99.8125 58.839844 C 99.550781 58.839844 99.300781 58.789062 99.058594 58.691406 C 98.816406 58.589844 98.601562 58.445312 98.417969 58.261719 C 98.234375 58.078125 98.089844 57.863281 97.988281 57.621094 C 97.890625 57.378906 97.839844 57.128906 97.839844 56.867188 C 97.839844 56.605469 97.890625 56.351562 97.988281 56.109375 C 98.089844 55.871094 98.234375 55.65625 98.417969 55.472656 C 98.601562 55.285156 98.816406 55.144531 99.058594 55.042969 C 99.300781 54.941406 99.550781 54.894531 99.8125 54.894531 C 100.074219 54.894531 100.324219 54.941406 100.566406 55.042969 C 100.808594 55.144531 101.023438 55.285156 101.207031 55.472656 C 101.390625 55.65625 101.535156 55.871094 101.632812 56.109375 C 101.734375 56.351562 101.785156 56.605469 101.785156 56.867188 Z M 101.785156 56.867188 " fill-opacity="1" fill-rule="nonzero"/><path fill="#3a2c60" d="M 67.941406 54.609375 C 68.574219 55.242188 69.402344 55.5625 70.234375 55.5625 C 71.066406 55.5625 71.898438 55.246094 72.53125 54.609375 L 83.40625 43.726562 C 86.792969 40.339844 86.792969 34.824219 83.40625 31.4375 C 80.019531 28.046875 74.511719 28.046875 71.125 31.4375 L 70.234375 32.328125 L 69.34375 31.4375 C 67.703125 29.796875 65.523438 28.890625 63.203125 28.890625 C 60.882812 28.890625 58.703125 29.796875 57.0625 31.4375 C 55.421875 33.078125 54.515625 35.261719 54.515625 37.582031 C 54.515625 39.90625 55.421875 42.085938 57.0625 43.726562 Z M 58.128906 32.503906 C 59.484375 31.148438 61.285156 30.402344 63.203125 30.402344 C 65.121094 30.402344 66.921875 31.148438 68.277344 32.503906 L 69.703125 33.925781 C 69.996094 34.222656 70.472656 34.222656 70.769531 33.925781 L 72.191406 32.503906 C 74.992188 29.703125 79.542969 29.703125 82.34375 32.503906 C 85.140625 35.304688 85.140625 39.859375 82.34375 42.660156 L 71.464844 53.542969 C 70.785156 54.21875 69.683594 54.222656 69.007812 53.542969 L 58.128906 42.660156 C 56.773438 41.304688 56.027344 39.5 56.027344 37.582031 C 56.027344 35.664062 56.773438 33.859375 58.128906 32.503906 Z M 58.128906 32.503906 " fill-opacity="1" fill-rule="nonzero"/><path fill="#3a2c60" d="M 29.308594 60.675781 C 29.429688 60.742188 29.558594 60.777344 29.6875 60.777344 C 29.945312 60.777344 30.199219 60.640625 30.339844 60.398438 L 33.027344 55.746094 C 33.238281 55.386719 33.113281 54.921875 32.753906 54.714844 C 32.394531 54.507812 31.929688 54.628906 31.722656 54.992188 L 29.035156 59.644531 C 28.824219 60.003906 28.949219 60.464844 29.308594 60.675781 Z M 29.308594 60.675781 " fill-opacity="1" fill-rule="nonzero"/><path fill="#3a2c60" d="M 43.382812 56.867188 C 43.382812 55.363281 42.160156 54.136719 40.65625 54.136719 C 39.152344 54.136719 37.929688 55.363281 37.929688 56.867188 C 37.929688 58.371094 39.152344 59.59375 40.65625 59.59375 C 42.160156 59.59375 43.382812 58.371094 43.382812 56.867188 Z M 39.4375 56.867188 C 39.4375 56.195312 39.984375 55.648438 40.65625 55.648438 C 41.328125 55.648438 41.875 56.195312 41.875 56.867188 C 41.875 57.539062 41.328125 58.085938 40.65625 58.085938 C 39.984375 58.085938 39.4375 57.539062 39.4375 56.867188 Z M 39.4375 56.867188 " fill-opacity="1" fill-rule="nonzero"/><g clip-path="url(#dc132e3b14)"><path fill="#3a2c60" d="M 114.589844 65.101562 L 106.191406 50.566406 C 105.148438 48.765625 102.839844 48.148438 101.039062 49.1875 L 99.964844 49.804688 C 100.898438 47.300781 102.601562 45.078125 104.957031 43.550781 C 105.921875 42.925781 106.496094 41.867188 106.496094 40.714844 C 106.496094 39.566406 105.921875 38.507812 104.957031 37.882812 C 99.921875 34.621094 97.832031 28.191406 99.992188 22.589844 C 100.40625 21.515625 100.25 20.320312 99.574219 19.390625 C 98.898438 18.460938 97.800781 17.941406 96.660156 18.003906 C 90.667969 18.320312 85.203125 14.351562 83.660156 8.554688 C 83.363281 7.441406 82.535156 6.566406 81.441406 6.210938 C 80.347656 5.855469 79.160156 6.074219 78.269531 6.800781 C 73.613281 10.585938 66.855469 10.585938 62.199219 6.800781 C 61.308594 6.074219 60.125 5.855469 59.027344 6.210938 C 57.933594 6.566406 57.105469 7.441406 56.808594 8.554688 C 55.265625 14.351562 49.800781 18.328125 43.808594 18.003906 C 42.65625 17.941406 41.570312 18.457031 40.898438 19.390625 C 40.222656 20.320312 40.0625 21.515625 40.476562 22.589844 C 42.636719 28.191406 40.546875 34.621094 35.511719 37.882812 C 34.546875 38.507812 33.972656 39.566406 33.972656 40.714844 C 33.972656 41.867188 34.546875 42.925781 35.511719 43.550781 C 37.871094 45.078125 39.574219 47.300781 40.503906 49.804688 L 39.429688 49.1875 C 37.628906 48.144531 35.320312 48.765625 34.277344 50.566406 L 33.074219 52.648438 C 32.867188 53.011719 32.988281 53.472656 33.351562 53.679688 C 33.710938 53.890625 34.171875 53.765625 34.378906 53.40625 L 35.585938 51.320312 C 36.207031 50.242188 37.59375 49.871094 38.675781 50.492188 L 44.492188 53.851562 C 45.015625 54.15625 45.390625 54.644531 45.546875 55.226562 C 45.703125 55.8125 45.625 56.421875 45.320312 56.945312 L 45.269531 57.035156 L 43.386719 60.292969 L 36.921875 71.480469 C 36.296875 72.5625 34.910156 72.929688 33.832031 72.308594 L 28.011719 68.953125 C 27.488281 68.648438 27.113281 68.160156 26.957031 67.574219 C 26.800781 66.992188 26.882812 66.382812 27.183594 65.855469 L 29.039062 62.644531 C 29.25 62.285156 29.125 61.824219 28.765625 61.617188 C 28.40625 61.40625 27.945312 61.53125 27.734375 61.890625 L 25.878906 65.101562 C 25.375 65.976562 25.242188 66.992188 25.5 67.964844 C 25.761719 68.941406 26.386719 69.753906 27.261719 70.257812 L 33.078125 73.617188 C 33.667969 73.960938 34.316406 74.121094 34.957031 74.121094 C 36.261719 74.121094 37.53125 73.445312 38.226562 72.238281 L 38.625 71.550781 L 46.378906 77.65625 C 46.246094 78.277344 46.253906 78.925781 46.445312 79.554688 C 46.738281 80.535156 47.398438 81.339844 48.296875 81.824219 C 48.871094 82.132812 49.488281 82.277344 50.097656 82.277344 C 50.402344 82.277344 50.703125 82.238281 50.996094 82.164062 C 50.902344 82.738281 50.925781 83.328125 51.097656 83.902344 C 51.394531 84.894531 52.058594 85.707031 52.964844 86.195312 C 53.546875 86.507812 54.171875 86.65625 54.785156 86.65625 C 55.125 86.65625 55.460938 86.609375 55.785156 86.523438 C 55.730469 87.03125 55.777344 87.554688 55.929688 88.058594 C 56.226562 89.050781 56.890625 89.867188 57.796875 90.351562 C 58.378906 90.664062 59 90.8125 59.617188 90.8125 C 60.21875 90.8125 60.8125 90.664062 61.347656 90.394531 C 61.371094 90.511719 61.382812 90.625 61.414062 90.738281 C 61.683594 91.632812 62.285156 92.367188 63.101562 92.804688 C 63.625 93.085938 64.1875 93.21875 64.742188 93.21875 C 65.132812 93.21875 65.515625 93.148438 65.878906 93.023438 L 68.679688 95.226562 C 69.351562 95.773438 70.160156 96.042969 70.960938 96.042969 C 71.910156 96.042969 72.851562 95.667969 73.566406 94.929688 C 74.171875 94.300781 74.507812 93.507812 74.570312 92.699219 L 74.6875 92.800781 C 76.339844 94.148438 78.777344 93.902344 80.125 92.253906 C 80.6875 91.566406 80.984375 90.738281 81.027344 89.910156 C 82.507812 90.773438 84.433594 90.574219 85.703125 89.339844 C 86.449219 88.617188 86.867188 87.652344 86.882812 86.621094 L 87.546875 87.171875 C 88.382812 87.859375 89.476562 88.167969 90.550781 88.015625 C 91.636719 87.859375 92.578125 87.269531 93.199219 86.355469 C 94.308594 84.71875 93.929688 82.425781 92.335938 81.128906 L 89.269531 78.632812 L 101.789062 71.445312 L 102.246094 72.238281 C 102.941406 73.445312 104.214844 74.121094 105.515625 74.121094 C 106.15625 74.121094 106.804688 73.960938 107.394531 73.617188 L 113.214844 70.257812 C 114.085938 69.753906 114.710938 68.941406 114.972656 67.964844 C 115.230469 66.992188 115.09375 65.976562 114.589844 65.101562 Z M 45.246094 52.546875 L 42.398438 50.902344 C 41.558594 47.449219 39.464844 44.316406 36.332031 42.285156 C 35.789062 41.9375 35.480469 41.363281 35.480469 40.71875 C 35.480469 40.074219 35.789062 39.5 36.332031 39.148438 C 41.964844 35.503906 44.300781 28.3125 41.886719 22.050781 C 41.652344 21.445312 41.738281 20.800781 42.117188 20.277344 C 42.496094 19.757812 43.089844 19.480469 43.730469 19.511719 C 50.421875 19.867188 56.542969 15.425781 58.269531 8.941406 C 58.433594 8.316406 58.882812 7.84375 59.496094 7.644531 C 60.109375 7.445312 60.75 7.566406 61.25 7.972656 C 66.457031 12.207031 74.015625 12.203125 79.222656 7.972656 C 79.722656 7.566406 80.363281 7.449219 80.976562 7.644531 C 81.589844 7.847656 82.035156 8.320312 82.203125 8.941406 C 83.929688 15.429688 90.03125 19.871094 96.742188 19.511719 C 97.382812 19.476562 97.972656 19.757812 98.351562 20.277344 C 98.730469 20.800781 98.816406 21.445312 98.585938 22.050781 C 96.167969 28.3125 98.503906 35.503906 104.136719 39.148438 C 104.679688 39.5 104.988281 40.074219 104.988281 40.71875 C 104.988281 41.363281 104.679688 41.9375 104.136719 42.289062 C 101.003906 44.316406 98.914062 47.449219 98.070312 50.902344 L 95.222656 52.546875 C 94.351562 53.050781 93.726562 53.867188 93.464844 54.839844 C 93.261719 55.597656 93.308594 56.382812 93.570312 57.101562 L 89.851562 59.238281 C 88.914062 59.777344 87.789062 59.878906 86.769531 59.515625 L 79.167969 56.828125 C 77.503906 56.242188 75.65625 56.210938 73.972656 56.742188 L 65.609375 59.378906 L 65.136719 58.992188 C 63.234375 57.445312 60.644531 57.054688 58.375 57.980469 L 54.207031 59.671875 C 53.136719 60.109375 51.949219 60.027344 50.953125 59.449219 L 46.898438 57.105469 C 47.164062 56.382812 47.207031 55.597656 47.003906 54.839844 C 46.742188 53.863281 46.121094 53.050781 45.246094 52.546875 Z M 49.007812 80.492188 C 48.464844 80.203125 48.066406 79.714844 47.886719 79.117188 C 47.707031 78.523438 47.769531 77.894531 48.058594 77.351562 L 49.539062 74.59375 C 49.957031 73.8125 50.761719 73.371094 51.589844 73.371094 C 51.957031 73.371094 52.332031 73.460938 52.679688 73.644531 C 53.222656 73.9375 53.621094 74.425781 53.800781 75.019531 C 53.980469 75.617188 53.917969 76.246094 53.625 76.785156 L 52.144531 79.546875 C 51.539062 80.675781 50.132812 81.097656 49.007812 80.492188 Z M 53.675781 84.867188 C 53.125 84.570312 52.722656 84.074219 52.539062 83.46875 C 52.355469 82.863281 52.417969 82.226562 52.714844 81.675781 L 54.875 77.652344 C 55.296875 76.863281 56.113281 76.414062 56.953125 76.414062 C 57.328125 76.414062 57.707031 76.503906 58.0625 76.691406 C 58.613281 76.988281 59.019531 77.484375 59.199219 78.089844 C 59.382812 78.695312 59.320312 79.332031 59.023438 79.882812 L 56.867188 83.90625 C 56.253906 85.050781 54.824219 85.480469 53.675781 84.867188 Z M 58.507812 89.023438 C 57.957031 88.726562 57.550781 88.230469 57.371094 87.625 C 57.1875 87.019531 57.25 86.382812 57.546875 85.832031 L 59.703125 81.808594 C 60.128906 81.019531 60.945312 80.570312 61.785156 80.570312 C 62.160156 80.570312 62.539062 80.660156 62.894531 80.847656 C 63.445312 81.144531 63.847656 81.640625 64.03125 82.246094 C 64.214844 82.851562 64.152344 83.488281 63.855469 84.039062 L 63.609375 84.496094 C 63.597656 84.515625 63.582031 84.53125 63.574219 84.550781 L 61.675781 88.082031 C 61.675781 88.089844 61.671875 88.09375 61.667969 88.101562 C 61.042969 89.210938 59.640625 89.628906 58.507812 89.023438 Z M 63.8125 91.476562 C 63.351562 91.226562 63.011719 90.8125 62.859375 90.300781 C 62.707031 89.804688 62.757812 89.28125 62.996094 88.824219 C 63.003906 88.808594 63.015625 88.792969 63.027344 88.773438 L 64.941406 85.210938 C 65.191406 84.777344 65.589844 84.457031 66.074219 84.3125 C 66.265625 84.253906 66.457031 84.226562 66.652344 84.226562 C 66.972656 84.226562 67.289062 84.304688 67.578125 84.460938 C 68.039062 84.707031 68.378906 85.125 68.53125 85.632812 C 68.683594 86.140625 68.632812 86.675781 68.382812 87.136719 L 66.488281 90.667969 C 65.972656 91.628906 64.773438 91.992188 63.8125 91.476562 Z M 72.476562 93.878906 C 71.710938 94.675781 70.484375 94.75 69.617188 94.046875 L 67.238281 92.171875 C 67.460938 91.941406 67.65625 91.679688 67.816406 91.382812 L 69.511719 88.230469 L 72.382812 90.835938 L 72.5625 91.046875 C 73.273438 91.875 73.234375 93.09375 72.476562 93.878906 Z M 91.949219 85.503906 C 91.570312 86.066406 90.996094 86.425781 90.335938 86.519531 C 89.683594 86.613281 89.015625 86.425781 88.511719 86.007812 L 85.082031 83.15625 L 74.136719 73.894531 C 73.820312 73.628906 73.34375 73.667969 73.074219 73.984375 C 72.808594 74.304688 72.847656 74.777344 73.164062 75.046875 L 84.089844 84.292969 L 84.644531 84.824219 C 85.113281 85.277344 85.375 85.886719 85.375 86.539062 C 85.378906 87.191406 85.121094 87.800781 84.652344 88.257812 C 83.757812 89.128906 82.324219 89.15625 81.394531 88.320312 L 79.894531 86.972656 C 79.890625 86.972656 79.890625 86.972656 79.890625 86.972656 C 79.890625 86.96875 79.890625 86.96875 79.890625 86.96875 L 69.539062 77.808594 C 69.226562 77.53125 68.75 77.5625 68.472656 77.871094 C 68.199219 78.183594 68.226562 78.660156 68.539062 78.9375 L 78.867188 88.078125 C 79.699219 88.898438 79.738281 90.339844 78.957031 91.296875 C 78.136719 92.300781 76.648438 92.453125 75.652344 91.640625 L 73.425781 89.742188 L 70.078125 86.707031 C 70.152344 86.210938 70.125 85.695312 69.976562 85.195312 C 69.707031 84.300781 69.109375 83.570312 68.292969 83.128906 C 67.523438 82.714844 66.648438 82.621094 65.804688 82.832031 L 65.625 82.671875 C 65.605469 82.382812 65.5625 82.09375 65.476562 81.808594 C 65.179688 80.820312 64.515625 80.003906 63.609375 79.515625 C 62.707031 79.035156 61.703125 78.953125 60.785156 79.199219 C 60.84375 78.6875 60.800781 78.164062 60.648438 77.652344 C 60.347656 76.660156 59.683594 75.847656 58.777344 75.359375 C 57.683594 74.773438 56.433594 74.78125 55.378906 75.253906 C 55.351562 75.027344 55.3125 74.804688 55.246094 74.582031 C 54.949219 73.601562 54.292969 72.796875 53.394531 72.3125 C 51.539062 71.316406 49.210938 72.015625 48.214844 73.875 L 46.96875 76.199219 L 39.386719 70.226562 L 46.199219 58.441406 L 50.195312 60.753906 C 51.605469 61.566406 53.273438 61.679688 54.777344 61.070312 L 58.945312 59.375 C 60.578125 58.710938 62.421875 58.933594 63.859375 59.929688 L 57.375 61.972656 C 55.238281 62.644531 54.039062 64.933594 54.699219 67.070312 C 55.355469 69.199219 57.550781 70.398438 59.695312 69.800781 L 71.875 66.417969 L 91.386719 82.296875 C 92.375 83.105469 92.621094 84.515625 91.949219 85.503906 Z M 101.03125 70.140625 L 88.015625 77.609375 L 72.539062 65 C 72.402344 64.890625 72.234375 64.832031 72.0625 64.832031 C 71.996094 64.832031 71.925781 64.839844 71.859375 64.859375 L 59.289062 68.347656 C 57.9375 68.722656 56.554688 67.96875 56.140625 66.628906 C 55.722656 65.28125 56.480469 63.839844 57.824219 63.414062 L 74.425781 58.179688 C 75.800781 57.746094 77.304688 57.769531 78.667969 58.253906 L 86.265625 60.9375 C 87.703125 61.445312 89.285156 61.304688 90.601562 60.546875 L 94.269531 58.441406 L 96.792969 62.808594 Z M 113.511719 67.578125 C 113.355469 68.160156 112.980469 68.648438 112.457031 68.953125 L 106.640625 72.3125 C 105.558594 72.933594 104.171875 72.5625 103.550781 71.484375 L 97.082031 60.292969 L 95.199219 57.035156 L 95.148438 56.949219 C 94.847656 56.425781 94.765625 55.8125 94.921875 55.230469 C 95.078125 54.644531 95.453125 54.15625 95.976562 53.855469 L 101.792969 50.496094 C 102.148438 50.289062 102.539062 50.191406 102.921875 50.191406 C 103.703125 50.191406 104.464844 50.597656 104.886719 51.324219 L 113.285156 65.859375 C 113.585938 66.382812 113.667969 66.992188 113.511719 67.578125 Z M 113.511719 67.578125 " fill-opacity="1" fill-rule="nonzero"/></g><path fill="#3a2c60" d="M 99.8125 54.136719 C 98.308594 54.136719 97.085938 55.363281 97.085938 56.867188 C 97.085938 58.371094 98.308594 59.59375 99.8125 59.59375 C 101.316406 59.59375 102.539062 58.371094 102.539062 56.867188 C 102.539062 55.363281 101.316406 54.136719 99.8125 54.136719 Z M 99.8125 58.085938 C 99.140625 58.085938 98.59375 57.539062 98.59375 56.867188 C 98.59375 56.195312 99.140625 55.648438 99.8125 55.648438 C 100.484375 55.648438 101.03125 56.195312 101.03125 56.867188 C 101.03125 57.539062 100.484375 58.085938 99.8125 58.085938 Z M 99.8125 58.085938 " fill-opacity="1" fill-rule="nonzero"/></svg>