<svg xmlns="http://www.w3.org/2000/svg" xmlns:xlink="http://www.w3.org/1999/xlink" width="40" zoomAndPan="magnify" viewBox="0 0 30 30.000001" height="40" preserveAspectRatio="xMidYMid meet" version="1.0"><defs><clipPath id="c1c06e1f39"><path d="M 0.484375 0 L 29.515625 0 L 29.515625 29.03125 L 0.484375 29.03125 Z M 0.484375 0 " clip-rule="nonzero"/></clipPath><clipPath id="6b7a01019d"><path d="M 8.207031 19 L 21.996094 19 L 21.996094 23.226562 L 8.207031 23.226562 Z M 8.207031 19 " clip-rule="nonzero"/></clipPath><clipPath id="4a7cd8a871"><path d="M 15 6 L 21.996094 6 L 21.996094 22 L 15 22 Z M 15 6 " clip-rule="nonzero"/></clipPath><clipPath id="17124fe026"><path d="M 15 6 L 21.996094 6 L 21.996094 22 L 15 22 Z M 15 6 " clip-rule="nonzero"/></clipPath><clipPath id="b9b7976850"><path d="M 17 5.804688 L 20 5.804688 L 20 7 L 17 7 Z M 17 5.804688 " clip-rule="nonzero"/></clipPath><clipPath id="14f2e294d7"><path d="M 8.207031 16 L 17 16 L 17 19 L 8.207031 19 Z M 8.207031 16 " clip-rule="nonzero"/></clipPath><clipPath id="21b9253994"><path d="M 8.207031 16 L 17 16 L 17 18 L 8.207031 18 Z M 8.207031 16 " clip-rule="nonzero"/></clipPath><clipPath id="70f6c8d652"><path d="M 8.207031 16 L 17 16 L 17 18 L 8.207031 18 Z M 8.207031 16 " clip-rule="nonzero"/></clipPath><clipPath id="a9caeb96dd"><path d="M 8.207031 9 L 17 9 L 17 11 L 8.207031 11 Z M 8.207031 9 " clip-rule="nonzero"/></clipPath><clipPath id="72e8c7a0d3"><path d="M 8.207031 9 L 17 9 L 17 10 L 8.207031 10 Z M 8.207031 9 " clip-rule="nonzero"/></clipPath><clipPath id="6be0dd0724"><path d="M 17 15 L 21.996094 15 L 21.996094 22 L 17 22 Z M 17 15 " clip-rule="nonzero"/></clipPath><clipPath id="eaa7a9afd4"><path d="M 18.105469 15.816406 L 19.070312 15.816406 L 19.070312 16.480469 L 18.105469 16.480469 Z M 18.105469 15.816406 " clip-rule="nonzero"/></clipPath><clipPath id="6754bc14fc"><path d="M 19.035156 16.449219 C 18.710938 16.207031 18.390625 15.992188 18.117188 15.816406 C 18.347656 15.925781 18.683594 16.160156 19.035156 16.449219 " clip-rule="nonzero"/></clipPath><clipPath id="d7c9281f8c"><path d="M 17 15 L 21.996094 15 L 21.996094 21 L 17 21 Z M 17 15 " clip-rule="nonzero"/></clipPath></defs><g clip-path="url(#c1c06e1f39)"><path fill="#ffffff" d="M 0.484375 0 L 29.515625 0 L 29.515625 36.289062 L 0.484375 36.289062 Z M 0.484375 0 " fill-opacity="1" fill-rule="nonzero"/><path fill="#ffffff" d="M 0.484375 0 L 29.515625 0 L 29.515625 29.03125 L 0.484375 29.03125 Z M 0.484375 0 " fill-opacity="1" fill-rule="nonzero"/><path fill="#ffffff" d="M 0.484375 0 L 29.515625 0 L 29.515625 29.03125 L 0.484375 29.03125 Z M 0.484375 0 " fill-opacity="1" fill-rule="nonzero"/></g><g clip-path="url(#6b7a01019d)"><path fill="#1c2733" d="M 15.097656 23.226562 C 11.292969 23.226562 8.207031 22.328125 8.207031 21.222656 C 8.207031 20.746094 8.777344 20.308594 9.730469 19.964844 C 9.847656 20.648438 9.957031 21.289062 10.011719 21.59375 C 10.015625 21.617188 10.019531 21.636719 10.019531 21.652344 C 10.03125 21.722656 10.039062 21.765625 10.042969 21.773438 C 10.042969 21.777344 10.042969 21.777344 10.042969 21.777344 C 10.042969 22.007812 11.332031 22.503906 12.921875 22.503906 C 14.511719 22.503906 15.804688 22.007812 15.804688 21.777344 C 15.804688 21.761719 15.835938 21.546875 15.886719 21.21875 C 16.398438 21.476562 17.222656 21.59375 18.164062 21.605469 L 18.675781 22.503906 L 20.914062 21.683594 C 20.914062 21.683594 21.238281 21.582031 21.269531 20.878906 C 21.347656 20.769531 21.390625 20.640625 21.390625 20.5 C 21.390625 20.476562 21.386719 20.453125 21.386719 20.429688 C 21.386719 20.433594 21.386719 20.433594 21.386719 20.433594 C 21.386719 20.433594 21.386719 20.429688 21.386719 20.429688 C 21.386719 20.425781 21.386719 20.414062 21.382812 20.398438 C 21.773438 20.648438 21.988281 20.929688 21.988281 21.222656 C 21.988281 22.328125 18.90625 23.226562 15.097656 23.226562 " fill-opacity="1" fill-rule="nonzero"/></g><g clip-path="url(#4a7cd8a871)"><path fill="#5bc1ea" d="M 21.386719 20.429688 C 21.390625 20.433594 21.390625 20.425781 21.382812 20.398438 C 21.363281 20.277344 21.320312 20.15625 21.253906 20.03125 C 20.972656 19.222656 20.359375 17.332031 20.546875 15.707031 C 20.800781 13.523438 21.089844 11.476562 20.332031 9.871094 C 19.816406 8.789062 19.480469 7.746094 19.273438 7.183594 C 19.554688 7.136719 19.730469 7.066406 19.730469 6.988281 C 19.730469 6.84375 19.121094 6.726562 18.371094 6.726562 C 17.617188 6.726562 17.007812 6.84375 17.007812 6.988281 C 17.007812 7.066406 17.179688 7.132812 17.449219 7.179688 C 17.25 7.742188 16.9375 8.785156 16.421875 9.871094 C 15.660156 11.476562 15.949219 13.523438 16.203125 15.707031 C 16.390625 17.296875 15.804688 19.144531 15.515625 19.980469 C 15.410156 20.15625 15.351562 20.332031 15.351562 20.5 C 15.351562 21.3125 16.703125 21.609375 18.371094 21.609375 C 20.039062 21.609375 21.390625 21.3125 21.390625 20.5 C 21.390625 20.476562 21.386719 20.453125 21.386719 20.429688 " fill-opacity="1" fill-rule="nonzero"/></g><path fill="#ffffff" d="M 20.933594 19.949219 C 20.921875 19.847656 20.882812 19.75 20.828125 19.648438 C 20.585938 18.980469 20.066406 17.417969 20.226562 16.078125 C 20.441406 14.277344 20.6875 12.589844 20.039062 11.265625 C 19.867188 10.914062 19.71875 10.089844 19.59375 9.773438 L 17.148438 9.773438 C 17.027344 10.089844 16.882812 10.914062 16.710938 11.265625 C 16.0625 12.589844 16.308594 14.277344 16.527344 16.078125 C 16.683594 17.390625 16.1875 18.914062 15.941406 19.601562 C 15.847656 19.746094 15.796875 19.894531 15.796875 20.03125 C 15.796875 20.703125 16.949219 20.945312 18.371094 20.945312 C 19.789062 20.945312 20.941406 20.703125 20.941406 20.03125 C 20.941406 20.015625 20.941406 19.996094 20.9375 19.976562 C 20.941406 19.976562 20.941406 19.96875 20.933594 19.949219 " fill-opacity="1" fill-rule="nonzero"/><path fill="#bbd7e2" d="M 19.628906 9.839844 C 19.628906 10.015625 19.066406 10.160156 18.371094 10.160156 C 17.671875 10.160156 17.109375 10.015625 17.109375 9.839844 C 17.109375 9.664062 17.671875 9.519531 18.371094 9.519531 C 19.066406 9.519531 19.628906 9.664062 19.628906 9.839844 " fill-opacity="1" fill-rule="nonzero"/><g clip-path="url(#17124fe026)"><path fill="#4b96c0" d="M 18.164062 21.605469 C 17.222656 21.59375 16.398438 21.476562 15.886719 21.21875 C 15.921875 21.007812 15.964844 20.746094 16.007812 20.464844 C 16.328125 20.746094 16.984375 20.886719 17.78125 20.929688 L 18.164062 21.605469 M 21.269531 20.878906 C 21.285156 20.566406 21.242188 20.128906 21.085938 19.53125 C 21.148438 19.726562 21.207031 19.894531 21.253906 20.03125 C 21.320312 20.15625 21.363281 20.277344 21.382812 20.398438 C 21.386719 20.414062 21.386719 20.425781 21.386719 20.429688 C 21.386719 20.429688 21.386719 20.433594 21.386719 20.433594 C 21.386719 20.433594 21.386719 20.433594 21.386719 20.429688 C 21.386719 20.453125 21.390625 20.476562 21.390625 20.5 C 21.390625 20.640625 21.347656 20.769531 21.269531 20.878906 M 20.90625 18.925781 C 20.824219 18.667969 20.71875 18.382812 20.597656 18.074219 C 20.511719 17.914062 20.40625 17.757812 20.277344 17.601562 C 20.199219 17.101562 20.164062 16.574219 20.226562 16.078125 C 20.441406 14.277344 20.6875 12.589844 20.039062 11.265625 C 19.882812 10.945312 19.746094 10.226562 19.625 9.863281 C 19.628906 9.855469 19.628906 9.847656 19.628906 9.839844 C 19.628906 9.777344 19.5625 9.71875 19.441406 9.671875 C 19.160156 8.402344 18.734375 7.371094 18.226562 6.730469 C 18.273438 6.730469 18.320312 6.726562 18.371094 6.726562 C 19.121094 6.726562 19.730469 6.84375 19.730469 6.988281 C 19.730469 7.066406 19.554688 7.136719 19.273438 7.183594 C 19.480469 7.746094 19.816406 8.789062 20.332031 9.871094 C 20.699219 10.644531 20.820312 11.523438 20.820312 12.46875 C 20.820312 13.484375 20.679688 14.578125 20.546875 15.707031 C 20.523438 15.917969 20.511719 16.132812 20.511719 16.347656 C 20.511719 17.25 20.703125 18.179688 20.90625 18.925781 " fill-opacity="1" fill-rule="nonzero"/></g><path fill="#c3c5ca" d="M 17.78125 20.929688 C 16.984375 20.886719 16.328125 20.746094 16.007812 20.464844 C 16.015625 20.425781 16.019531 20.386719 16.027344 20.347656 C 16.328125 20.632812 16.65625 20.789062 16.992188 20.789062 C 17.203125 20.789062 17.40625 20.730469 17.601562 20.617188 L 17.78125 20.929688 M 20.277344 17.601562 C 20.0625 17.328125 19.789062 17.066406 19.503906 16.824219 C 19.710938 15.796875 19.824219 14.628906 19.824219 13.390625 C 19.824219 12.160156 19.710938 11 19.507812 9.976562 C 19.574219 9.941406 19.613281 9.90625 19.625 9.863281 C 19.746094 10.226562 19.882812 10.945312 20.039062 11.265625 C 20.6875 12.589844 20.441406 14.277344 20.226562 16.078125 C 20.164062 16.574219 20.199219 17.101562 20.277344 17.601562 " fill-opacity="1" fill-rule="nonzero"/><path fill="#93a8b8" d="M 19.507812 9.976562 C 19.488281 9.875 19.464844 9.769531 19.441406 9.671875 C 19.5625 9.71875 19.628906 9.777344 19.628906 9.839844 C 19.628906 9.847656 19.628906 9.855469 19.625 9.863281 C 19.613281 9.90625 19.574219 9.941406 19.507812 9.976562 " fill-opacity="1" fill-rule="nonzero"/><g clip-path="url(#b9b7976850)"><path fill="#265b89" d="M 19.652344 6.128906 L 17.089844 6.128906 L 17.089844 5.808594 L 19.652344 5.808594 L 19.652344 6.128906 " fill-opacity="1" fill-rule="nonzero"/></g><path fill="#3b81bd" d="M 19.652344 6.808594 L 17.089844 6.808594 L 17.089844 6.007812 L 19.652344 6.007812 L 19.652344 6.808594 " fill-opacity="1" fill-rule="nonzero"/><path fill="#70cfed" d="M 16.519531 11.25 C 16.554688 10.921875 16.585938 10.65625 16.601562 10.476562 C 16.851562 10.410156 16.992188 10.332031 16.992188 10.253906 C 16.992188 10.253906 16.992188 10.25 16.992188 10.25 C 16.980469 10.230469 16.976562 9.84375 16.984375 9.613281 C 16.984375 9.566406 16.984375 9.527344 16.984375 9.5 C 17.117188 9.183594 17.246094 8.878906 17.332031 8.636719 C 17.667969 7.703125 17.328125 7.492188 17.636719 7.464844 C 17.640625 7.464844 17.648438 7.464844 17.65625 7.464844 C 17.777344 7.464844 17.921875 7.621094 18.011719 8.558594 C 18.039062 8.847656 17.9375 9.203125 17.777344 9.554688 C 17.378906 9.609375 17.109375 9.714844 17.109375 9.839844 C 17.109375 9.851562 17.113281 9.863281 17.117188 9.871094 C 17.027344 10.15625 16.925781 10.640625 16.8125 10.996094 C 16.699219 11.117188 16.59375 11.207031 16.519531 11.25 " fill-opacity="1" fill-rule="nonzero"/><path fill="#ffffff" d="M 16.8125 10.996094 C 16.925781 10.640625 17.027344 10.15625 17.117188 9.871094 C 17.148438 9.949219 17.289062 10.019531 17.503906 10.074219 C 17.28125 10.4375 17.027344 10.773438 16.8125 10.996094 " fill-opacity="1" fill-rule="nonzero"/><path fill="#c7dee7" d="M 17.503906 10.074219 C 17.289062 10.019531 17.148438 9.949219 17.117188 9.871094 C 17.113281 9.863281 17.109375 9.851562 17.109375 9.839844 C 17.109375 9.714844 17.378906 9.609375 17.777344 9.554688 C 17.699219 9.730469 17.605469 9.90625 17.503906 10.074219 " fill-opacity="1" fill-rule="nonzero"/><path fill="#448dd0" d="M 16.464844 17.542969 L 9.339844 17.5625 C 9.339844 17.726562 10.042969 21.769531 10.042969 21.777344 C 10.042969 22.007812 11.332031 22.503906 12.921875 22.503906 C 14.511719 22.503906 15.804688 22.007812 15.804688 21.777344 C 15.792969 21.769531 16.457031 17.703125 16.464844 17.542969 " fill-opacity="1" fill-rule="nonzero"/><path fill="#e2e1e1" d="M 16.25 18.429688 C 15.914062 18.652344 14.542969 18.816406 12.902344 18.816406 C 11.257812 18.816406 9.886719 18.652344 9.550781 18.429688 L 9.472656 18.429688 L 9.472656 18.539062 C 9.472656 18.8125 11.007812 19.035156 12.902344 19.035156 C 14.796875 19.035156 16.332031 18.8125 16.332031 18.539062 C 16.328125 18.539062 16.324219 18.492188 16.324219 18.429688 L 16.25 18.429688 " fill-opacity="1" fill-rule="nonzero"/><path fill="#e2e1e1" d="M 16.210938 18.910156 C 15.878906 19.128906 14.523438 19.292969 12.902344 19.292969 C 11.28125 19.292969 9.925781 19.128906 9.59375 18.910156 L 9.515625 18.910156 L 9.515625 19.019531 C 9.515625 19.289062 11.03125 19.507812 12.902344 19.507812 C 14.773438 19.507812 16.289062 19.289062 16.289062 19.019531 C 16.285156 19.019531 16.28125 18.972656 16.28125 18.910156 L 16.210938 18.910156 " fill-opacity="1" fill-rule="nonzero"/><path fill="#e2e1e1" d="M 15.546875 20.886719 C 15.546875 21.433594 14.363281 21.882812 12.902344 21.882812 C 11.441406 21.882812 10.257812 21.433594 10.257812 20.886719 C 10.257812 20.335938 11.441406 19.886719 12.902344 19.886719 C 14.363281 19.886719 15.546875 20.335938 15.546875 20.886719 " fill-opacity="1" fill-rule="nonzero"/><path fill="#3476ac" d="M 15.054688 20.886719 C 15.054688 21.300781 14.089844 21.640625 12.902344 21.640625 C 11.710938 21.640625 10.75 21.300781 10.75 20.886719 C 10.75 20.46875 11.710938 20.128906 12.902344 20.128906 C 14.089844 20.128906 15.054688 20.46875 15.054688 20.886719 " fill-opacity="1" fill-rule="nonzero"/><path fill="#151e29" d="M 12.921875 22.503906 C 11.332031 22.503906 10.042969 22.007812 10.042969 21.777344 C 10.042969 21.777344 10.042969 21.777344 10.042969 21.773438 C 10.042969 21.777344 10.042969 21.777344 10.042969 21.777344 C 10.042969 22.007812 11.332031 22.503906 12.921875 22.503906 C 14.511719 22.503906 15.804688 22.007812 15.804688 21.777344 C 15.804688 22.007812 14.511719 22.503906 12.921875 22.503906 " fill-opacity="1" fill-rule="nonzero"/><path fill="#151e29" d="M 10.019531 21.652344 C 10.019531 21.636719 10.015625 21.617188 10.011719 21.59375 C 10.015625 21.617188 10.019531 21.636719 10.019531 21.652344 " fill-opacity="1" fill-rule="nonzero"/><path fill="#3873ad" d="M 12.921875 22.503906 C 11.332031 22.503906 10.042969 22.007812 10.042969 21.777344 C 10.042969 21.777344 10.042969 21.777344 10.042969 21.773438 C 10.039062 21.765625 10.03125 21.722656 10.019531 21.652344 C 10.019531 21.636719 10.015625 21.617188 10.011719 21.59375 C 10.578125 21.933594 11.238281 22.128906 11.945312 22.128906 C 12.429688 22.128906 12.894531 22.039062 13.324219 21.867188 C 14.585938 21.792969 15.546875 21.382812 15.546875 20.886719 C 15.546875 20.691406 15.402344 20.511719 15.152344 20.359375 C 15.359375 20.039062 15.519531 19.6875 15.628906 19.308594 C 15.917969 19.253906 16.125 19.1875 16.222656 19.117188 C 16.160156 19.519531 16.089844 19.953125 16.027344 20.347656 C 16.019531 20.386719 16.015625 20.425781 16.007812 20.464844 C 15.964844 20.746094 15.921875 21.007812 15.886719 21.21875 C 15.835938 21.546875 15.804688 21.761719 15.804688 21.777344 C 15.804688 22.007812 14.511719 22.503906 12.921875 22.503906 " fill-opacity="1" fill-rule="nonzero"/><path fill="#3873ad" d="M 15.6875 19.082031 C 15.710938 18.996094 15.726562 18.90625 15.742188 18.820312 C 16.039062 18.753906 16.238281 18.679688 16.304688 18.601562 C 16.289062 18.699219 16.273438 18.804688 16.257812 18.910156 L 16.210938 18.910156 C 16.113281 18.972656 15.933594 19.03125 15.6875 19.082031 M 15.769531 18.59375 C 15.785156 18.457031 15.792969 18.316406 15.792969 18.175781 C 15.792969 18.089844 15.789062 18.007812 15.785156 17.925781 C 15.878906 17.910156 15.964844 17.894531 16.046875 17.878906 L 16.339844 18.390625 C 16.332031 18.417969 16.328125 18.449219 16.324219 18.480469 C 16.324219 18.464844 16.324219 18.449219 16.324219 18.429688 L 16.25 18.429688 C 16.160156 18.488281 15.996094 18.542969 15.769531 18.59375 " fill-opacity="1" fill-rule="nonzero"/><path fill="#adafb6" d="M 15.742188 18.820312 C 15.753906 18.746094 15.761719 18.667969 15.769531 18.59375 C 15.996094 18.542969 16.160156 18.488281 16.25 18.429688 L 16.324219 18.429688 C 16.324219 18.449219 16.324219 18.464844 16.324219 18.480469 C 16.316406 18.519531 16.3125 18.558594 16.304688 18.601562 C 16.238281 18.679688 16.039062 18.753906 15.742188 18.820312 " fill-opacity="1" fill-rule="nonzero"/><path fill="#adafb6" d="M 15.628906 19.308594 C 15.652344 19.234375 15.671875 19.160156 15.6875 19.082031 C 15.933594 19.03125 16.113281 18.972656 16.210938 18.910156 L 16.257812 18.910156 C 16.246094 18.976562 16.234375 19.046875 16.222656 19.117188 C 16.125 19.1875 15.917969 19.253906 15.628906 19.308594 " fill-opacity="1" fill-rule="nonzero"/><path fill="#adafb6" d="M 13.324219 21.867188 C 13.546875 21.78125 13.761719 21.671875 13.964844 21.542969 C 14.617188 21.410156 15.054688 21.167969 15.054688 20.886719 C 15.054688 20.800781 15.015625 20.722656 14.945312 20.648438 C 15.019531 20.554688 15.085938 20.460938 15.152344 20.359375 C 15.402344 20.511719 15.546875 20.691406 15.546875 20.886719 C 15.546875 21.382812 14.585938 21.792969 13.324219 21.867188 " fill-opacity="1" fill-rule="nonzero"/><path fill="#295f8e" d="M 13.964844 21.542969 C 14.339844 21.304688 14.671875 21 14.945312 20.648438 C 15.015625 20.722656 15.054688 20.800781 15.054688 20.886719 C 15.054688 21.167969 14.617188 21.410156 13.964844 21.542969 " fill-opacity="1" fill-rule="nonzero"/><path fill="#3873ad" d="M 14.730469 20.164062 C 14.417969 20.050781 14.035156 19.96875 13.605469 19.921875 C 13.667969 19.777344 13.71875 19.632812 13.761719 19.492188 C 14.269531 19.472656 14.730469 19.4375 15.117188 19.390625 C 15.015625 19.644531 14.886719 19.910156 14.730469 20.164062 M 13.820312 19.277344 C 13.839844 19.1875 13.859375 19.101562 13.871094 19.015625 C 14.414062 18.992188 14.898438 18.949219 15.292969 18.894531 C 15.265625 18.984375 15.238281 19.074219 15.203125 19.164062 C 14.816406 19.214844 14.34375 19.253906 13.820312 19.277344 M 13.902344 18.796875 C 13.941406 18.484375 13.933594 18.230469 13.925781 18.089844 C 14.523438 18.066406 15.066406 18.019531 15.515625 17.964844 C 15.488281 18.117188 15.441406 18.367188 15.359375 18.667969 C 14.960938 18.726562 14.464844 18.773438 13.902344 18.796875 " fill-opacity="1" fill-rule="nonzero"/><path fill="#adafb6" d="M 13.871094 19.015625 C 13.886719 18.941406 13.894531 18.867188 13.902344 18.796875 C 14.464844 18.773438 14.960938 18.726562 15.359375 18.667969 C 15.339844 18.742188 15.316406 18.816406 15.292969 18.894531 C 14.898438 18.949219 14.414062 18.992188 13.871094 19.015625 " fill-opacity="1" fill-rule="nonzero"/><path fill="#adafb6" d="M 13.761719 19.492188 C 13.785156 19.421875 13.800781 19.347656 13.820312 19.277344 C 14.34375 19.253906 14.816406 19.214844 15.203125 19.164062 C 15.175781 19.238281 15.148438 19.3125 15.117188 19.390625 C 14.730469 19.4375 14.269531 19.472656 13.761719 19.492188 " fill-opacity="1" fill-rule="nonzero"/><path fill="#adafb6" d="M 12.066406 21.75 C 11.96875 21.75 11.867188 21.746094 11.765625 21.734375 C 11.875 21.6875 11.976562 21.636719 12.074219 21.582031 C 12.328125 21.621094 12.605469 21.640625 12.898438 21.640625 C 12.644531 21.710938 12.371094 21.75 12.066406 21.75 M 14.570312 20.410156 C 14.296875 20.289062 13.921875 20.203125 13.492188 20.160156 C 13.53125 20.082031 13.570312 20 13.605469 19.921875 C 14.035156 19.96875 14.417969 20.050781 14.730469 20.164062 C 14.683594 20.246094 14.628906 20.328125 14.570312 20.410156 " fill-opacity="1" fill-rule="nonzero"/><path fill="#295f8e" d="M 12.898438 21.640625 C 12.605469 21.640625 12.328125 21.621094 12.074219 21.582031 C 12.777344 21.195312 13.21875 20.679688 13.492188 20.160156 C 13.921875 20.203125 14.296875 20.289062 14.570312 20.410156 C 14.183594 20.957031 13.644531 21.433594 12.898438 21.640625 " fill-opacity="1" fill-rule="nonzero"/><path fill="#5aa4d8" d="M 10.476562 21.515625 C 10.210938 21.515625 9.839844 20.195312 9.667969 19.167969 C 9.871094 19.261719 10.265625 19.34375 10.789062 19.402344 C 10.792969 19.699219 10.789062 20.007812 10.773438 20.292969 C 10.449219 20.457031 10.257812 20.664062 10.257812 20.886719 C 10.257812 21.066406 10.382812 21.234375 10.609375 21.382812 C 10.570312 21.460938 10.53125 21.507812 10.484375 21.511719 C 10.480469 21.515625 10.480469 21.515625 10.476562 21.515625 M 10.785156 19.1875 C 10.230469 19.125 9.820312 19.035156 9.628906 18.933594 C 9.617188 18.84375 9.605469 18.753906 9.597656 18.671875 C 9.792969 18.777344 10.214844 18.863281 10.773438 18.929688 C 10.777344 19.011719 10.78125 19.097656 10.785156 19.1875 M 10.761719 18.710938 C 10.183594 18.644531 9.761719 18.550781 9.574219 18.445312 C 9.550781 18.171875 9.535156 17.972656 9.535156 17.832031 C 9.8125 17.898438 10.1875 17.957031 10.628906 18.003906 C 10.683594 18.132812 10.726562 18.292969 10.742188 18.488281 C 10.75 18.558594 10.757812 18.632812 10.761719 18.710938 " fill-opacity="1" fill-rule="nonzero"/><path fill="#e8e6e7" d="M 10.773438 18.929688 C 10.214844 18.863281 9.792969 18.777344 9.597656 18.671875 C 9.59375 18.648438 9.59375 18.621094 9.589844 18.59375 C 9.585938 18.542969 9.578125 18.492188 9.574219 18.445312 C 9.761719 18.550781 10.183594 18.644531 10.761719 18.710938 C 10.765625 18.78125 10.769531 18.851562 10.773438 18.929688 " fill-opacity="1" fill-rule="nonzero"/><path fill="#e8e6e7" d="M 10.789062 19.402344 C 10.265625 19.34375 9.871094 19.261719 9.667969 19.167969 C 9.652344 19.085938 9.640625 19.007812 9.628906 18.933594 C 9.820312 19.035156 10.230469 19.125 10.785156 19.1875 C 10.785156 19.257812 10.789062 19.332031 10.789062 19.402344 " fill-opacity="1" fill-rule="nonzero"/><path fill="#e8e6e7" d="M 10.609375 21.382812 C 10.382812 21.234375 10.257812 21.066406 10.257812 20.886719 C 10.257812 20.664062 10.449219 20.457031 10.773438 20.292969 C 10.75 20.765625 10.695312 21.179688 10.609375 21.382812 " fill-opacity="1" fill-rule="nonzero"/><g clip-path="url(#14f2e294d7)"><path fill="#e2e1e1" d="M 16.816406 17.542969 C 16.816406 17.855469 15.0625 18.109375 12.902344 18.109375 C 10.738281 18.109375 8.988281 17.855469 8.988281 17.542969 C 8.988281 17.527344 8.988281 16.683594 8.988281 16.683594 C 8.988281 16.65625 11.6875 16.6875 12.902344 16.6875 C 14.175781 16.6875 16.816406 16.699219 16.816406 16.683594 C 16.800781 16.667969 16.800781 17.527344 16.816406 17.542969 " fill-opacity="1" fill-rule="nonzero"/></g><g clip-path="url(#21b9253994)"><path fill="#ffffff" d="M 9.296875 17.761719 C 9.296875 17.746094 9.296875 16.855469 9.296875 16.855469 C 9.296875 16.824219 12.148438 16.855469 13.429688 16.855469 C 14.332031 16.855469 15.882812 16.863281 16.804688 16.863281 C 16.808594 16.753906 16.808594 16.679688 16.816406 16.683594 C 16.816406 16.699219 14.175781 16.6875 12.902344 16.6875 C 11.6875 16.6875 8.988281 16.65625 8.988281 16.683594 C 8.988281 16.683594 8.988281 17.527344 8.988281 17.542969 C 8.988281 17.621094 9.097656 17.695312 9.296875 17.761719 " fill-opacity="1" fill-rule="nonzero"/></g><path fill="#3873ad" d="M 12.898438 18.109375 C 12.898438 18.109375 12.898438 18.109375 12.894531 18.109375 C 12.894531 18.109375 12.898438 18.109375 12.898438 18.109375 M 12.890625 18.109375 L 12.890625 18.109375 M 12.886719 18.109375 L 12.886719 18.109375 M 12.882812 18.109375 C 12.882812 18.109375 12.882812 18.109375 12.878906 18.109375 C 12.882812 18.109375 12.882812 18.109375 12.882812 18.109375 M 12.878906 18.109375 C 12.878906 18.109375 12.878906 18.109375 12.875 18.109375 C 12.878906 18.109375 12.878906 18.109375 12.878906 18.109375 M 12.871094 18.109375 L 12.871094 18.109375 M 12.867188 18.109375 L 12.867188 18.109375 M 12.863281 18.109375 L 12.863281 18.109375 M 12.851562 18.109375 L 12.851562 18.109375 M 12.84375 18.109375 L 12.84375 18.109375 M 12.832031 18.109375 L 12.832031 18.109375 M 12.828125 18.109375 L 12.828125 18.109375 M 12.824219 18.109375 L 12.824219 18.109375 M 12.820312 18.109375 L 12.816406 18.109375 L 12.820312 18.109375 M 12.808594 18.109375 L 12.808594 18.109375 M 12.789062 18.109375 L 12.789062 18.109375 M 12.785156 18.109375 L 12.785156 18.109375 M 12.765625 18.105469 L 12.765625 18.105469 " fill-opacity="1" fill-rule="nonzero"/><path fill="#adafb6" d="M 12.902344 18.109375 C 12.898438 18.109375 12.898438 18.109375 12.898438 18.109375 C 12.898438 18.109375 12.894531 18.109375 12.894531 18.109375 C 12.894531 18.109375 12.894531 18.109375 12.890625 18.109375 C 12.890625 18.109375 12.886719 18.109375 12.886719 18.109375 C 12.886719 18.109375 12.882812 18.109375 12.882812 18.109375 C 12.882812 18.109375 12.882812 18.109375 12.878906 18.109375 C 12.878906 18.109375 12.878906 18.109375 12.875 18.109375 C 12.875 18.109375 12.875 18.109375 12.871094 18.109375 C 12.871094 18.109375 12.867188 18.109375 12.867188 18.109375 C 12.867188 18.109375 12.863281 18.109375 12.863281 18.109375 C 12.859375 18.109375 12.855469 18.109375 12.851562 18.109375 C 12.847656 18.109375 12.847656 18.109375 12.84375 18.109375 C 12.839844 18.109375 12.835938 18.109375 12.832031 18.109375 C 12.832031 18.109375 12.828125 18.109375 12.828125 18.109375 C 12.828125 18.109375 12.824219 18.109375 12.824219 18.109375 C 12.820312 18.109375 12.820312 18.109375 12.820312 18.109375 L 12.816406 18.109375 C 12.816406 18.109375 12.8125 18.109375 12.808594 18.109375 C 12.800781 18.109375 12.796875 18.109375 12.789062 18.109375 C 12.789062 18.109375 12.785156 18.109375 12.785156 18.109375 C 12.777344 18.109375 12.769531 18.105469 12.765625 18.105469 C 11.203125 18.101562 9.875 17.960938 9.296875 17.761719 C 9.296875 17.761719 9.296875 17.753906 9.296875 17.75 C 9.90625 17.804688 10.628906 17.835938 11.40625 17.835938 C 13.566406 17.835938 15.320312 17.585938 15.320312 17.273438 C 15.316406 17.269531 15.3125 17.21875 15.308594 17.144531 C 15.414062 17.132812 15.515625 17.121094 15.609375 17.105469 L 16.046875 17.878906 C 15.964844 17.894531 15.878906 17.910156 15.785156 17.925781 C 15.699219 17.9375 15.609375 17.953125 15.515625 17.964844 C 15.066406 18.019531 14.523438 18.066406 13.925781 18.089844 C 13.601562 18.101562 13.257812 18.109375 12.902344 18.109375 " fill-opacity="1" fill-rule="nonzero"/><path fill="#c3c5ca" d="M 9.296875 17.761719 C 9.277344 17.757812 9.261719 17.75 9.242188 17.742188 C 9.261719 17.746094 9.28125 17.746094 9.296875 17.75 C 9.296875 17.753906 9.296875 17.761719 9.296875 17.761719 " fill-opacity="1" fill-rule="nonzero"/><g clip-path="url(#70f6c8d652)"><path fill="#c6c2c8" d="M 16.816406 16.699219 C 16.816406 17.011719 15.0625 17.265625 12.902344 17.265625 C 10.742188 17.265625 8.988281 17.011719 8.988281 16.699219 C 8.972656 16.667969 9.902344 16.328125 9.902344 16.328125 C 10.621094 16.203125 11.6875 16.421875 12.902344 16.421875 C 14.175781 16.421875 15.230469 16.230469 15.945312 16.367188 C 15.945312 16.363281 16.164062 16.449219 16.382812 16.535156 C 16.601562 16.617188 16.820312 16.703125 16.816406 16.699219 " fill-opacity="1" fill-rule="nonzero"/></g><path fill="#e2e1e1" d="M 15.957031 16.414062 C 15.957031 16.660156 14.589844 16.898438 12.902344 16.898438 C 11.214844 16.898438 9.84375 16.660156 9.84375 16.414062 C 9.84375 16.171875 11.214844 15.976562 12.902344 15.976562 C 14.589844 15.976562 15.957031 16.171875 15.957031 16.414062 " fill-opacity="1" fill-rule="nonzero"/><path fill="#ffffff" d="M 14.570312 16.296875 C 14.570312 16.398438 13.617188 16.484375 12.441406 16.484375 C 11.265625 16.484375 10.3125 16.398438 10.3125 16.296875 C 10.3125 16.191406 11.265625 16.109375 12.441406 16.109375 C 13.617188 16.109375 14.570312 16.191406 14.570312 16.296875 " fill-opacity="1" fill-rule="nonzero"/><path fill="#e72436" d="M 16.625 10.25 L 9.175781 10.269531 C 9.175781 10.421875 9.910156 16.472656 9.910156 16.480469 C 9.910156 16.699219 11.261719 17.164062 12.921875 17.164062 C 14.585938 17.164062 15.933594 16.699219 15.933594 16.480469 C 15.925781 16.472656 16.621094 10.402344 16.625 10.25 " fill-opacity="1" fill-rule="nonzero"/><path fill="#e2e1e1" d="M 15.667969 13.625 C 15.667969 14.914062 14.429688 15.957031 12.902344 15.957031 C 11.375 15.957031 10.136719 14.914062 10.136719 13.625 C 10.136719 12.335938 11.375 11.289062 12.902344 11.289062 C 14.429688 11.289062 15.667969 12.335938 15.667969 13.625 " fill-opacity="1" fill-rule="nonzero"/><path fill="#e72436" d="M 15.152344 13.625 C 15.152344 14.601562 14.144531 15.390625 12.902344 15.390625 C 11.660156 15.390625 10.652344 14.601562 10.652344 13.625 C 10.652344 12.648438 11.660156 11.855469 12.902344 11.855469 C 14.144531 11.855469 15.152344 12.648438 15.152344 13.625 " fill-opacity="1" fill-rule="nonzero"/><path fill="#1a2430" d="M 9.882812 16.335938 C 9.882812 16.328125 9.882812 16.320312 9.878906 16.308594 C 9.882812 16.3125 9.886719 16.316406 9.890625 16.316406 C 9.894531 16.320312 9.894531 16.328125 9.894531 16.332031 C 9.890625 16.332031 9.886719 16.332031 9.882812 16.335938 " fill-opacity="1" fill-rule="nonzero"/><path fill="#90919c" d="M 9.886719 16.34375 C 9.886719 16.339844 9.882812 16.335938 9.882812 16.335938 C 9.886719 16.332031 9.890625 16.332031 9.894531 16.332031 C 9.894531 16.332031 9.894531 16.335938 9.894531 16.335938 C 9.890625 16.339844 9.886719 16.339844 9.886719 16.34375 " fill-opacity="1" fill-rule="nonzero"/><path fill="#a4a6ae" d="M 9.910156 16.480469 C 9.910156 16.480469 9.902344 16.429688 9.886719 16.34375 C 9.886719 16.339844 9.890625 16.339844 9.894531 16.335938 C 9.90625 16.429688 9.910156 16.480469 9.910156 16.480469 " fill-opacity="1" fill-rule="nonzero"/><path fill="#a91d2c" d="M 12.921875 17.164062 C 11.261719 17.164062 9.910156 16.699219 9.910156 16.480469 C 9.910156 16.480469 9.90625 16.429688 9.894531 16.335938 C 9.894531 16.335938 9.894531 16.332031 9.894531 16.332031 C 9.894531 16.328125 9.894531 16.320312 9.890625 16.316406 C 10.484375 16.632812 11.167969 16.8125 11.902344 16.8125 C 12.605469 16.8125 13.265625 16.421875 13.839844 15.820312 C 14.90625 15.496094 15.667969 14.632812 15.667969 13.625 C 15.667969 13.367188 15.617188 13.117188 15.527344 12.886719 C 15.78125 12.144531 15.921875 11.421875 15.921875 10.84375 C 15.921875 10.765625 15.917969 10.6875 15.914062 10.609375 C 16.191406 10.570312 16.425781 10.527344 16.601562 10.476562 C 16.570312 10.789062 16.503906 11.386719 16.425781 12.089844 C 16.382812 12.453125 16.339844 12.84375 16.296875 13.238281 C 16.230469 13.808594 16.167969 14.386719 16.109375 14.890625 C 16.070312 15.25 16.03125 15.570312 16.003906 15.832031 L 15.980469 15.839844 L 15.078125 16.171875 L 15.429688 16.789062 C 14.890625 16.980469 13.96875 17.164062 12.921875 17.164062 " fill-opacity="1" fill-rule="nonzero"/><path fill="#a4a6ae" d="M 13.839844 15.820312 C 14.144531 15.5 14.425781 15.121094 14.675781 14.707031 C 14.914062 14.46875 15.074219 14.179688 15.128906 13.863281 C 15.28125 13.542969 15.414062 13.214844 15.527344 12.886719 C 15.617188 13.117188 15.667969 13.367188 15.667969 13.625 C 15.667969 14.632812 14.90625 15.496094 13.839844 15.820312 " fill-opacity="1" fill-rule="nonzero"/><path fill="#a91d2c" d="M 14.675781 14.707031 C 14.84375 14.4375 14.996094 14.15625 15.128906 13.863281 C 15.074219 14.179688 14.914062 14.46875 14.675781 14.707031 " fill-opacity="1" fill-rule="nonzero"/><path fill="#a91d2c" d="M 11.917969 16.449219 C 11.851562 16.449219 11.785156 16.449219 11.714844 16.441406 C 12.019531 16.320312 12.289062 16.144531 12.519531 15.933594 C 12.644531 15.949219 12.769531 15.957031 12.902344 15.957031 C 13.101562 15.957031 13.292969 15.9375 13.480469 15.90625 C 13.050781 16.242188 12.535156 16.449219 11.917969 16.449219 M 15.316406 12.484375 C 15.015625 12.035156 14.546875 11.675781 13.976562 11.472656 C 13.984375 11.152344 13.976562 10.902344 13.96875 10.761719 C 14.601562 10.742188 15.171875 10.699219 15.644531 10.644531 C 15.609375 10.953125 15.523438 11.664062 15.316406 12.484375 " fill-opacity="1" fill-rule="nonzero"/><path fill="#a4a6ae" d="M 12.902344 15.957031 C 12.769531 15.957031 12.644531 15.949219 12.519531 15.933594 C 12.695312 15.773438 12.851562 15.589844 12.988281 15.390625 C 13.472656 15.375 13.917969 15.242188 14.273438 15.023438 C 14.046875 15.363281 13.785156 15.667969 13.480469 15.90625 C 13.292969 15.9375 13.101562 15.957031 12.902344 15.957031 M 15.097656 13.246094 C 14.957031 12.730469 14.527344 12.300781 13.953125 12.058594 C 13.964844 11.847656 13.972656 11.648438 13.976562 11.472656 C 14.546875 11.675781 15.015625 12.035156 15.316406 12.484375 C 15.253906 12.730469 15.183594 12.988281 15.097656 13.246094 " fill-opacity="1" fill-rule="nonzero"/><path fill="#a91d2c" d="M 12.988281 15.390625 C 13.65625 14.417969 13.882812 13.070312 13.953125 12.058594 C 14.527344 12.300781 14.957031 12.730469 15.097656 13.246094 C 14.898438 13.859375 14.632812 14.488281 14.273438 15.023438 C 13.917969 15.242188 13.472656 15.375 12.988281 15.390625 " fill-opacity="1" fill-rule="nonzero"/><path fill="#ea3146" d="M 10.601562 16.234375 C 10.269531 16.234375 9.773438 14.449219 9.675781 13.5 C 9.597656 12.789062 9.582031 11.3125 9.710938 10.585938 C 9.847656 10.605469 9.992188 10.625 10.152344 10.644531 C 10.308594 11.0625 10.5 11.683594 10.652344 12.265625 C 10.328125 12.648438 10.136719 13.117188 10.136719 13.625 C 10.136719 14.25 10.429688 14.816406 10.902344 15.234375 C 10.859375 15.789062 10.769531 16.222656 10.609375 16.234375 C 10.605469 16.234375 10.605469 16.234375 10.601562 16.234375 " fill-opacity="1" fill-rule="nonzero"/><path fill="#e4e4e4" d="M 10.902344 15.234375 C 10.429688 14.816406 10.136719 14.25 10.136719 13.625 C 10.136719 13.117188 10.328125 12.648438 10.652344 12.265625 C 10.714844 12.511719 10.769531 12.753906 10.8125 12.964844 C 10.707031 13.167969 10.652344 13.390625 10.652344 13.625 C 10.652344 13.933594 10.753906 14.222656 10.929688 14.476562 C 10.929688 14.734375 10.921875 14.996094 10.902344 15.234375 " fill-opacity="1" fill-rule="nonzero"/><path fill="#ea3146" d="M 10.929688 14.476562 C 10.753906 14.222656 10.652344 13.933594 10.652344 13.625 C 10.652344 13.390625 10.707031 13.167969 10.8125 12.964844 C 10.84375 13.128906 10.867188 13.273438 10.882812 13.398438 C 10.914062 13.699219 10.929688 14.085938 10.929688 14.476562 " fill-opacity="1" fill-rule="nonzero"/><g clip-path="url(#a9caeb96dd)"><path fill="#e2e1e1" d="M 16.992188 10.253906 C 16.992188 10.542969 15.160156 10.78125 12.902344 10.78125 C 10.640625 10.78125 8.808594 10.542969 8.808594 10.253906 C 8.808594 10.238281 8.808594 9.449219 8.808594 9.449219 C 8.808594 9.417969 11.632812 9.449219 12.902344 9.449219 C 14.234375 9.449219 16.992188 9.460938 16.992188 9.449219 C 16.976562 9.433594 16.976562 10.238281 16.992188 10.253906 " fill-opacity="1" fill-rule="nonzero"/><path fill="#ffffff" d="M 9.132812 10.457031 C 9.132812 10.441406 9.132812 9.605469 9.132812 9.605469 C 9.132812 9.578125 12.113281 9.609375 13.453125 9.609375 C 14.394531 9.609375 16.019531 9.613281 16.984375 9.613281 C 16.984375 9.515625 16.988281 9.445312 16.992188 9.449219 C 16.992188 9.460938 14.234375 9.449219 12.902344 9.449219 C 11.632812 9.449219 8.808594 9.417969 8.808594 9.449219 C 8.808594 9.449219 8.808594 10.238281 8.808594 10.253906 C 8.808594 10.324219 8.925781 10.394531 9.132812 10.460938 L 9.132812 10.457031 " fill-opacity="1" fill-rule="nonzero"/></g><path fill="#5ca2c2" d="M 16.992188 10.253906 C 16.992188 10.253906 16.992188 10.25 16.992188 10.25 C 16.992188 10.25 16.992188 10.253906 16.992188 10.253906 M 16.992188 10.25 C 16.980469 10.230469 16.976562 9.84375 16.984375 9.613281 C 16.976562 9.84375 16.980469 10.230469 16.992188 10.25 " fill-opacity="1" fill-rule="nonzero"/><path fill="#adafb6" d="M 12.902344 10.78125 C 12.898438 10.78125 12.894531 10.78125 12.890625 10.78125 C 12.886719 10.78125 12.886719 10.78125 12.886719 10.78125 C 12.886719 10.78125 12.882812 10.78125 12.882812 10.78125 C 12.878906 10.78125 12.878906 10.78125 12.878906 10.78125 C 12.878906 10.78125 12.875 10.78125 12.875 10.78125 C 12.875 10.78125 12.871094 10.78125 12.871094 10.78125 C 12.871094 10.78125 12.871094 10.78125 12.867188 10.78125 C 12.863281 10.78125 12.863281 10.78125 12.863281 10.78125 C 12.859375 10.78125 12.859375 10.78125 12.859375 10.78125 C 12.859375 10.78125 12.855469 10.78125 12.855469 10.78125 C 12.851562 10.78125 12.851562 10.78125 12.851562 10.78125 C 12.847656 10.78125 12.84375 10.78125 12.839844 10.78125 C 12.835938 10.78125 12.835938 10.78125 12.835938 10.78125 C 11.171875 10.777344 9.75 10.644531 9.132812 10.457031 C 9.132812 10.457031 9.132812 10.453125 9.132812 10.445312 C 9.769531 10.496094 10.527344 10.527344 11.335938 10.527344 C 13.597656 10.527344 15.429688 10.292969 15.429688 10 C 15.421875 9.992188 15.417969 9.804688 15.417969 9.613281 C 15.902344 9.613281 16.375 9.613281 16.773438 9.613281 C 16.84375 9.613281 16.914062 9.613281 16.984375 9.613281 C 16.976562 9.84375 16.980469 10.230469 16.992188 10.25 C 16.992188 10.25 16.992188 10.253906 16.992188 10.253906 C 16.992188 10.332031 16.851562 10.410156 16.601562 10.476562 C 16.425781 10.527344 16.191406 10.570312 15.914062 10.609375 C 15.828125 10.621094 15.738281 10.632812 15.644531 10.644531 C 15.171875 10.699219 14.601562 10.742188 13.96875 10.761719 C 13.628906 10.777344 13.269531 10.78125 12.902344 10.78125 M 16.992188 9.449219 L 16.992188 9.449219 " fill-opacity="1" fill-rule="nonzero"/><path fill="#c3c5ca" d="M 9.132812 10.457031 C 9.113281 10.453125 9.09375 10.445312 9.078125 10.441406 C 9.097656 10.441406 9.113281 10.445312 9.132812 10.445312 C 9.132812 10.453125 9.132812 10.457031 9.132812 10.457031 M 16.773438 9.613281 C 16.375 9.613281 15.902344 9.613281 15.417969 9.613281 C 15.417969 9.558594 15.417969 9.503906 15.417969 9.453125 C 15.640625 9.453125 15.855469 9.453125 16.050781 9.453125 C 16.484375 9.453125 16.8125 9.453125 16.9375 9.449219 C 16.96875 9.449219 16.988281 9.449219 16.992188 9.449219 C 16.988281 9.457031 16.984375 9.523438 16.984375 9.613281 C 16.914062 9.613281 16.84375 9.613281 16.773438 9.613281 " fill-opacity="1" fill-rule="nonzero"/><g clip-path="url(#72e8c7a0d3)"><path fill="#c6c2c8" d="M 16.992188 9.460938 C 16.992188 9.753906 15.160156 9.992188 12.902344 9.992188 C 10.640625 9.992188 8.808594 9.753906 8.808594 9.460938 C 8.792969 9.433594 9.765625 9.113281 9.765625 9.113281 C 10.515625 8.996094 11.632812 9.203125 12.902344 9.203125 C 14.234375 9.203125 15.335938 9.023438 16.082031 9.148438 C 16.078125 9.144531 17 9.464844 16.992188 9.460938 " fill-opacity="1" fill-rule="nonzero"/></g><path fill="#e2e1e1" d="M 16.097656 9.195312 C 16.097656 9.425781 14.667969 9.648438 12.902344 9.648438 C 11.136719 9.648438 9.707031 9.425781 9.707031 9.195312 C 9.707031 8.96875 11.136719 8.78125 12.902344 8.78125 C 14.667969 8.78125 16.097656 8.96875 16.097656 9.195312 " fill-opacity="1" fill-rule="nonzero"/><path fill="#ffffff" d="M 14.644531 9.082031 C 14.644531 9.179688 13.648438 9.257812 12.417969 9.257812 C 11.191406 9.257812 10.191406 9.179688 10.191406 9.082031 C 10.191406 8.984375 11.191406 8.90625 12.417969 8.90625 C 13.648438 8.90625 14.644531 8.984375 14.644531 9.082031 " fill-opacity="1" fill-rule="nonzero"/><path fill="#f3b623" d="M 18.675781 22.503906 L 15.078125 16.171875 L 17.316406 15.351562 L 20.914062 21.683594 L 18.675781 22.503906 " fill-opacity="1" fill-rule="nonzero"/><g clip-path="url(#6be0dd0724)"><path fill="#f8db21" d="M 20.597656 18.074219 C 19.863281 16.691406 17.316406 15.351562 17.316406 15.351562 L 20.914062 21.683594 C 20.914062 21.683594 21.90625 21.378906 20.597656 18.074219 " fill-opacity="1" fill-rule="nonzero"/></g><path fill="#dd8f2a" d="M 17.132812 16.804688 C 16.9375 16.878906 16.71875 16.78125 16.644531 16.585938 C 16.574219 16.394531 16.671875 16.179688 16.867188 16.105469 C 17.066406 16.035156 17.285156 16.132812 17.355469 16.324219 C 17.429688 16.519531 17.328125 16.734375 17.132812 16.804688 " fill-opacity="1" fill-rule="nonzero"/><path fill="#dd8f2a" d="M 15.996094 16.714844 C 15.898438 16.75 15.789062 16.699219 15.753906 16.605469 C 15.714844 16.507812 15.765625 16.398438 15.863281 16.363281 C 15.960938 16.328125 16.070312 16.375 16.109375 16.472656 C 16.144531 16.570312 16.09375 16.679688 15.996094 16.714844 " fill-opacity="1" fill-rule="nonzero"/><path fill="#dd8f2a" d="M 17.808594 18.5625 C 17.5625 18.652344 17.289062 18.53125 17.199219 18.289062 C 17.109375 18.046875 17.234375 17.777344 17.476562 17.6875 C 17.722656 17.597656 17.996094 17.71875 18.089844 17.960938 C 18.179688 18.203125 18.054688 18.472656 17.808594 18.5625 " fill-opacity="1" fill-rule="nonzero"/><path fill="#f3b623" d="M 20.890625 20.988281 C 20.789062 21.027344 20.636719 20.859375 20.542969 20.617188 C 20.453125 20.375 20.460938 20.148438 20.5625 20.113281 C 20.660156 20.074219 20.816406 20.242188 20.910156 20.484375 C 21 20.726562 20.992188 20.953125 20.890625 20.988281 " fill-opacity="1" fill-rule="nonzero"/><path fill="#f3b623" d="M 20.394531 18.957031 C 20.300781 18.988281 20.160156 18.839844 20.074219 18.617188 C 19.992188 18.398438 20 18.191406 20.089844 18.15625 C 20.183594 18.125 20.324219 18.277344 20.410156 18.496094 C 20.492188 18.714844 20.484375 18.921875 20.394531 18.957031 " fill-opacity="1" fill-rule="nonzero"/><path fill="#f3b623" d="M 19.683594 18.929688 C 19.585938 18.964844 19.429688 18.796875 19.335938 18.558594 C 19.246094 18.316406 19.253906 18.089844 19.355469 18.050781 C 19.453125 18.015625 19.609375 18.179688 19.703125 18.421875 C 19.792969 18.664062 19.785156 18.890625 19.683594 18.929688 " fill-opacity="1" fill-rule="nonzero"/><path fill="#f3b623" d="M 20.523438 19.9375 C 20.476562 19.957031 20.402344 19.878906 20.359375 19.765625 C 20.316406 19.652344 20.320312 19.546875 20.367188 19.53125 C 20.414062 19.511719 20.488281 19.589844 20.53125 19.703125 C 20.574219 19.816406 20.570312 19.921875 20.523438 19.9375 " fill-opacity="1" fill-rule="nonzero"/><path fill="#f3b623" d="M 18.273438 16.664062 C 18.226562 16.683594 18.152344 16.605469 18.109375 16.492188 C 18.066406 16.378906 18.070312 16.273438 18.117188 16.257812 C 18.164062 16.238281 18.238281 16.316406 18.28125 16.429688 C 18.324219 16.542969 18.320312 16.648438 18.273438 16.664062 " fill-opacity="1" fill-rule="nonzero"/><path fill="#f3b623" d="M 18.8125 17.277344 C 18.742188 17.300781 18.636719 17.1875 18.574219 17.019531 C 18.507812 16.855469 18.515625 16.699219 18.585938 16.671875 C 18.652344 16.648438 18.761719 16.761719 18.824219 16.929688 C 18.886719 17.09375 18.882812 17.25 18.8125 17.277344 " fill-opacity="1" fill-rule="nonzero"/><path fill="#dd8f2a" d="M 16.644531 17.925781 C 16.542969 17.964844 16.425781 17.914062 16.390625 17.8125 C 16.351562 17.707031 16.402344 17.59375 16.507812 17.558594 C 16.609375 17.519531 16.726562 17.570312 16.765625 17.671875 C 16.804688 17.773438 16.75 17.890625 16.644531 17.925781 " fill-opacity="1" fill-rule="nonzero"/><path fill="#dd8f2a" d="M 19.1875 20.660156 C 19.035156 20.71875 18.863281 20.640625 18.808594 20.492188 C 18.75 20.339844 18.828125 20.171875 18.980469 20.117188 C 19.132812 20.0625 19.304688 20.136719 19.359375 20.289062 C 19.417969 20.4375 19.339844 20.605469 19.1875 20.660156 " fill-opacity="1" fill-rule="nonzero"/><path fill="#dd8f2a" d="M 19.671875 21.945312 C 19.519531 22 19.351562 21.925781 19.292969 21.773438 C 19.238281 21.625 19.316406 21.457031 19.46875 21.402344 C 19.621094 21.34375 19.789062 21.421875 19.847656 21.570312 C 19.902344 21.722656 19.828125 21.890625 19.671875 21.945312 " fill-opacity="1" fill-rule="nonzero"/><path fill="#dd8f2a" d="M 18.421875 21.480469 C 18.34375 21.507812 18.257812 21.46875 18.226562 21.390625 C 18.195312 21.3125 18.238281 21.226562 18.316406 21.199219 C 18.394531 21.167969 18.484375 21.207031 18.511719 21.285156 C 18.542969 21.363281 18.503906 21.449219 18.421875 21.480469 " fill-opacity="1" fill-rule="nonzero"/><path fill="#dd8f2a" d="M 18.804688 18.753906 C 18.6875 18.792969 18.5625 18.738281 18.519531 18.625 C 18.476562 18.511719 18.535156 18.386719 18.648438 18.34375 C 18.761719 18.300781 18.890625 18.359375 18.933594 18.472656 C 18.976562 18.585938 18.917969 18.710938 18.804688 18.753906 " fill-opacity="1" fill-rule="nonzero"/><g clip-path="url(#eaa7a9afd4)"><g clip-path="url(#6754bc14fc)"><path fill="#ffffff" d="M 18.117188 16.449219 L 19.035156 16.449219 L 19.035156 15.816406 L 18.117188 15.816406 Z M 18.117188 16.449219 " fill-opacity="1" fill-rule="nonzero"/></g></g><g clip-path="url(#d7c9281f8c)"><path fill="#f9eb60" d="M 21.054688 20.019531 C 20.957031 20.019531 20.710938 19.550781 20.355469 18.960938 C 20.359375 18.960938 20.363281 18.960938 20.367188 18.960938 C 20.375 18.960938 20.382812 18.960938 20.394531 18.957031 C 20.484375 18.921875 20.492188 18.714844 20.410156 18.496094 C 20.332031 18.296875 20.210938 18.152344 20.117188 18.152344 C 20.109375 18.152344 20.101562 18.15625 20.089844 18.15625 C 20.027344 18.183594 20.003906 18.289062 20.023438 18.429688 C 20.019531 18.421875 20.015625 18.414062 20.011719 18.410156 C 19.773438 18.046875 19.308594 17.554688 18.867188 17.09375 C 18.859375 17.042969 18.847656 16.984375 18.824219 16.929688 C 18.765625 16.777344 18.671875 16.667969 18.605469 16.667969 C 18.597656 16.667969 18.589844 16.671875 18.585938 16.671875 C 18.558594 16.679688 18.542969 16.707031 18.535156 16.746094 C 18.453125 16.65625 18.375 16.574219 18.300781 16.492188 C 18.296875 16.472656 18.289062 16.453125 18.28125 16.429688 C 18.242188 16.328125 18.179688 16.253906 18.132812 16.253906 C 18.125 16.253906 18.121094 16.253906 18.117188 16.257812 C 18.109375 16.257812 18.105469 16.261719 18.101562 16.269531 C 17.878906 16.007812 17.761719 15.820312 17.84375 15.769531 C 17.859375 15.761719 17.878906 15.753906 17.902344 15.753906 C 17.957031 15.753906 18.027344 15.777344 18.117188 15.816406 C 18.390625 15.992188 18.710938 16.207031 19.035156 16.449219 C 19.554688 16.878906 20.109375 17.425781 20.386719 17.851562 C 20.949219 18.714844 21.058594 19.6875 21.070312 20.015625 C 21.0625 20.019531 21.058594 20.019531 21.054688 20.019531 " fill-opacity="1" fill-rule="nonzero"/></g><path fill="#f6d262" d="M 20.367188 18.960938 C 20.363281 18.960938 20.359375 18.960938 20.355469 18.960938 C 20.253906 18.789062 20.144531 18.609375 20.023438 18.429688 C 20.003906 18.289062 20.027344 18.183594 20.089844 18.15625 C 20.101562 18.15625 20.109375 18.152344 20.117188 18.152344 C 20.210938 18.152344 20.332031 18.296875 20.410156 18.496094 C 20.492188 18.714844 20.484375 18.921875 20.394531 18.957031 C 20.382812 18.960938 20.375 18.960938 20.367188 18.960938 " fill-opacity="1" fill-rule="nonzero"/><path fill="#f6d262" d="M 18.300781 16.492188 C 18.226562 16.414062 18.160156 16.339844 18.101562 16.269531 C 18.105469 16.261719 18.109375 16.257812 18.117188 16.257812 C 18.121094 16.253906 18.125 16.253906 18.132812 16.253906 C 18.179688 16.253906 18.242188 16.328125 18.28125 16.429688 C 18.289062 16.453125 18.296875 16.472656 18.300781 16.492188 " fill-opacity="1" fill-rule="nonzero"/><path fill="#f6d262" d="M 18.867188 17.09375 C 18.753906 16.972656 18.640625 16.855469 18.535156 16.746094 C 18.542969 16.707031 18.558594 16.679688 18.585938 16.671875 C 18.589844 16.671875 18.597656 16.667969 18.605469 16.667969 C 18.671875 16.667969 18.765625 16.777344 18.824219 16.929688 C 18.847656 16.984375 18.859375 17.042969 18.867188 17.09375 " fill-opacity="1" fill-rule="nonzero"/><path fill="#bb901f" d="M 18.675781 22.503906 L 15.429688 16.789062 L 15.078125 16.171875 L 15.980469 15.839844 C 15.980469 16.011719 15.996094 16.191406 16.027344 16.378906 C 16 16.359375 15.964844 16.351562 15.929688 16.351562 C 15.910156 16.351562 15.886719 16.355469 15.863281 16.363281 C 15.765625 16.398438 15.714844 16.507812 15.753906 16.605469 C 15.78125 16.679688 15.851562 16.726562 15.929688 16.726562 C 15.953125 16.726562 15.976562 16.722656 15.996094 16.714844 C 16.03125 16.699219 16.058594 16.679688 16.082031 16.652344 C 16.152344 16.96875 16.261719 17.300781 16.40625 17.636719 C 16.375 17.6875 16.367188 17.75 16.390625 17.8125 C 16.414062 17.878906 16.476562 17.925781 16.542969 17.9375 C 16.703125 18.261719 16.894531 18.589844 17.117188 18.914062 C 18.113281 20.347656 19.441406 21.242188 20.421875 21.242188 C 20.5 21.242188 20.578125 21.238281 20.652344 21.226562 L 20.914062 21.683594 L 18.675781 22.503906 M 19.570312 21.382812 C 19.535156 21.382812 19.5 21.386719 19.46875 21.402344 C 19.316406 21.457031 19.238281 21.625 19.292969 21.773438 C 19.339844 21.890625 19.449219 21.964844 19.570312 21.964844 C 19.605469 21.964844 19.640625 21.957031 19.671875 21.945312 C 19.828125 21.890625 19.902344 21.722656 19.847656 21.570312 C 19.804688 21.453125 19.691406 21.382812 19.570312 21.382812 M 18.371094 21.1875 C 18.351562 21.1875 18.335938 21.191406 18.316406 21.199219 C 18.238281 21.226562 18.195312 21.3125 18.226562 21.390625 C 18.25 21.453125 18.308594 21.488281 18.371094 21.488281 C 18.386719 21.488281 18.40625 21.484375 18.421875 21.480469 C 18.503906 21.449219 18.542969 21.363281 18.511719 21.285156 C 18.488281 21.226562 18.433594 21.1875 18.371094 21.1875 " fill-opacity="1" fill-rule="nonzero"/><path fill="#bfad1f" d="M 20.914062 21.683594 L 20.652344 21.226562 L 20.914062 21.683594 " fill-opacity="1" fill-rule="nonzero"/><path fill="#ab7025" d="M 15.929688 16.726562 C 15.851562 16.726562 15.78125 16.679688 15.753906 16.605469 C 15.714844 16.507812 15.765625 16.398438 15.863281 16.363281 C 15.886719 16.355469 15.910156 16.351562 15.929688 16.351562 C 15.964844 16.351562 16 16.359375 16.027344 16.378906 C 16.042969 16.46875 16.058594 16.558594 16.082031 16.652344 C 16.058594 16.679688 16.03125 16.699219 15.996094 16.714844 C 15.976562 16.722656 15.953125 16.726562 15.929688 16.726562 " fill-opacity="1" fill-rule="nonzero"/><path fill="#ab7025" d="M 16.542969 17.9375 C 16.476562 17.925781 16.414062 17.878906 16.390625 17.8125 C 16.367188 17.75 16.375 17.6875 16.40625 17.636719 C 16.449219 17.738281 16.496094 17.835938 16.542969 17.9375 " fill-opacity="1" fill-rule="nonzero"/><path fill="#ab7025" d="M 19.570312 21.964844 C 19.449219 21.964844 19.339844 21.890625 19.292969 21.773438 C 19.238281 21.625 19.316406 21.457031 19.46875 21.402344 C 19.5 21.386719 19.535156 21.382812 19.570312 21.382812 C 19.691406 21.382812 19.804688 21.453125 19.847656 21.570312 C 19.902344 21.722656 19.828125 21.890625 19.671875 21.945312 C 19.640625 21.957031 19.605469 21.964844 19.570312 21.964844 " fill-opacity="1" fill-rule="nonzero"/><path fill="#ab7025" d="M 18.371094 21.488281 C 18.308594 21.488281 18.25 21.453125 18.226562 21.390625 C 18.195312 21.3125 18.238281 21.226562 18.316406 21.199219 C 18.335938 21.191406 18.351562 21.1875 18.371094 21.1875 C 18.433594 21.1875 18.488281 21.226562 18.511719 21.285156 C 18.542969 21.363281 18.503906 21.449219 18.421875 21.480469 C 18.40625 21.484375 18.386719 21.488281 18.371094 21.488281 " fill-opacity="1" fill-rule="nonzero"/></svg>