<svg xmlns="http://www.w3.org/2000/svg" xmlns:xlink="http://www.w3.org/1999/xlink" width="230" zoomAndPan="magnify" viewBox="0 0 172.5 30.000001" height="40" preserveAspectRatio="xMidYMid meet" version="1.0"><defs><g/><clipPath id="1201edee80"><path d="M 2.539062 0 L 169.476562 0 L 169.476562 29.03125 L 2.539062 29.03125 Z M 2.539062 0 " clip-rule="nonzero"/></clipPath></defs><g clip-path="url(#1201edee80)"><path fill="#ffffff" d="M 2.539062 0 L 169.960938 0 L 169.960938 36.394531 L 2.539062 36.394531 Z M 2.539062 0 " fill-opacity="1" fill-rule="nonzero"/><path fill="#ffffff" d="M 2.539062 0 L 169.960938 0 L 169.960938 29.117188 L 2.539062 29.117188 Z M 2.539062 0 " fill-opacity="1" fill-rule="nonzero"/><path fill="#ffffff" d="M 2.539062 0 L 169.960938 0 L 169.960938 29.117188 L 2.539062 29.117188 Z M 2.539062 0 " fill-opacity="1" fill-rule="nonzero"/></g><g fill="#bc1823" fill-opacity="1"><g transform="translate(7.093509, 20.1446)"><g><path d="M 0.671875 -5.390625 C 0.671875 -7.023438 1.054688 -8.335938 1.828125 -9.328125 C 2.609375 -10.328125 3.660156 -10.828125 4.984375 -10.828125 C 6.148438 -10.828125 7.054688 -10.425781 7.703125 -9.625 L 7.828125 -10.625 L 10.390625 -10.625 L 10.390625 -0.359375 C 10.390625 0.578125 10.175781 1.390625 9.75 2.078125 C 9.332031 2.765625 8.738281 3.285156 7.96875 3.640625 C 7.207031 4.003906 6.3125 4.1875 5.28125 4.1875 C 4.507812 4.1875 3.75 4.03125 3 3.71875 C 2.257812 3.40625 1.703125 3.003906 1.328125 2.515625 L 2.578125 0.78125 C 3.285156 1.570312 4.144531 1.96875 5.15625 1.96875 C 5.914062 1.96875 6.503906 1.765625 6.921875 1.359375 C 7.335938 0.960938 7.546875 0.394531 7.546875 -0.34375 L 7.546875 -0.90625 C 6.890625 -0.164062 6.03125 0.203125 4.96875 0.203125 C 3.6875 0.203125 2.648438 -0.296875 1.859375 -1.296875 C 1.066406 -2.296875 0.671875 -3.625 0.671875 -5.28125 Z M 3.515625 -5.1875 C 3.515625 -4.226562 3.707031 -3.472656 4.09375 -2.921875 C 4.476562 -2.378906 5.007812 -2.109375 5.6875 -2.109375 C 6.550781 -2.109375 7.171875 -2.429688 7.546875 -3.078125 L 7.546875 -7.546875 C 7.171875 -8.191406 6.554688 -8.515625 5.703125 -8.515625 C 5.023438 -8.515625 4.488281 -8.234375 4.09375 -7.671875 C 3.707031 -7.117188 3.515625 -6.289062 3.515625 -5.1875 Z M 3.515625 -5.1875 "/></g></g></g><g fill="#bc1823" fill-opacity="1"><g transform="translate(19.124693, 20.1446)"><g><path d="M 4.09375 0 L 1.234375 0 L 1.234375 -15.09375 L 4.09375 -15.09375 Z M 4.09375 0 "/></g></g></g><g fill="#bc1823" fill-opacity="1"><g transform="translate(25.004215, 20.1446)"><g><path d="M 0.65625 -5.421875 C 0.65625 -6.472656 0.851562 -7.410156 1.25 -8.234375 C 1.65625 -9.054688 2.238281 -9.691406 3 -10.140625 C 3.769531 -10.597656 4.660156 -10.828125 5.671875 -10.828125 C 7.109375 -10.828125 8.28125 -10.390625 9.1875 -9.515625 C 10.09375 -8.640625 10.597656 -7.445312 10.703125 -5.9375 L 10.71875 -5.203125 C 10.71875 -3.578125 10.257812 -2.269531 9.34375 -1.28125 C 8.4375 -0.289062 7.21875 0.203125 5.6875 0.203125 C 4.15625 0.203125 2.929688 -0.285156 2.015625 -1.265625 C 1.109375 -2.253906 0.65625 -3.59375 0.65625 -5.28125 Z M 3.484375 -5.203125 C 3.484375 -4.191406 3.671875 -3.421875 4.046875 -2.890625 C 4.429688 -2.359375 4.976562 -2.09375 5.6875 -2.09375 C 6.375 -2.09375 6.910156 -2.351562 7.296875 -2.875 C 7.679688 -3.40625 7.875 -4.253906 7.875 -5.421875 C 7.875 -6.398438 7.679688 -7.160156 7.296875 -7.703125 C 6.910156 -8.253906 6.367188 -8.53125 5.671875 -8.53125 C 4.972656 -8.53125 4.429688 -8.257812 4.046875 -7.71875 C 3.671875 -7.175781 3.484375 -6.335938 3.484375 -5.203125 Z M 3.484375 -5.203125 "/></g></g></g><g fill="#bc1823" fill-opacity="1"><g transform="translate(36.927302, 20.1446)"><g><path d="M 10.671875 -5.21875 C 10.671875 -3.507812 10.304688 -2.175781 9.578125 -1.21875 C 8.847656 -0.269531 7.832031 0.203125 6.53125 0.203125 C 5.382812 0.203125 4.46875 -0.238281 3.78125 -1.125 L 3.640625 0 L 1.09375 0 L 1.09375 -15.09375 L 3.9375 -15.09375 L 3.9375 -9.671875 C 4.582031 -10.441406 5.441406 -10.828125 6.515625 -10.828125 C 7.804688 -10.828125 8.820312 -10.347656 9.5625 -9.390625 C 10.300781 -8.441406 10.671875 -7.101562 10.671875 -5.375 Z M 7.828125 -5.421875 C 7.828125 -6.492188 7.65625 -7.273438 7.3125 -7.765625 C 6.976562 -8.265625 6.472656 -8.515625 5.796875 -8.515625 C 4.890625 -8.515625 4.269531 -8.144531 3.9375 -7.40625 L 3.9375 -3.21875 C 4.28125 -2.46875 4.90625 -2.09375 5.8125 -2.09375 C 6.726562 -2.09375 7.332031 -2.546875 7.625 -3.453125 C 7.757812 -3.878906 7.828125 -4.535156 7.828125 -5.421875 Z M 7.828125 -5.421875 "/></g></g></g><g fill="#bc1823" fill-opacity="1"><g transform="translate(48.801254, 20.1446)"><g><path d="M 7.25 0 C 7.125 -0.257812 7.03125 -0.578125 6.96875 -0.953125 C 6.28125 -0.179688 5.382812 0.203125 4.28125 0.203125 C 3.238281 0.203125 2.375 -0.0976562 1.6875 -0.703125 C 1.007812 -1.304688 0.671875 -2.066406 0.671875 -2.984375 C 0.671875 -4.109375 1.085938 -4.972656 1.921875 -5.578125 C 2.753906 -6.179688 3.960938 -6.488281 5.546875 -6.5 L 6.84375 -6.5 L 6.84375 -7.109375 C 6.84375 -7.597656 6.71875 -7.988281 6.46875 -8.28125 C 6.21875 -8.570312 5.820312 -8.71875 5.28125 -8.71875 C 4.800781 -8.71875 4.425781 -8.601562 4.15625 -8.375 C 3.882812 -8.144531 3.75 -7.832031 3.75 -7.4375 L 0.90625 -7.4375 C 0.90625 -8.050781 1.09375 -8.617188 1.46875 -9.140625 C 1.851562 -9.671875 2.390625 -10.082031 3.078125 -10.375 C 3.773438 -10.675781 4.554688 -10.828125 5.421875 -10.828125 C 6.734375 -10.828125 7.773438 -10.5 8.546875 -9.84375 C 9.316406 -9.1875 9.703125 -8.257812 9.703125 -7.0625 L 9.703125 -2.453125 C 9.703125 -1.441406 9.84375 -0.679688 10.125 -0.171875 L 10.125 0 Z M 4.90625 -1.96875 C 5.320312 -1.96875 5.707031 -2.0625 6.0625 -2.25 C 6.414062 -2.4375 6.675781 -2.6875 6.84375 -3 L 6.84375 -4.828125 L 5.78125 -4.828125 C 4.363281 -4.828125 3.609375 -4.335938 3.515625 -3.359375 L 3.515625 -3.1875 C 3.515625 -2.832031 3.632812 -2.539062 3.875 -2.3125 C 4.125 -2.082031 4.46875 -1.96875 4.90625 -1.96875 Z M 4.90625 -1.96875 "/></g></g></g><g fill="#bc1823" fill-opacity="1"><g transform="translate(60.134721, 20.1446)"><g><path d="M 4.09375 0 L 1.234375 0 L 1.234375 -15.09375 L 4.09375 -15.09375 Z M 4.09375 0 "/></g></g></g><g fill="#210d41" fill-opacity="1"><g transform="translate(66.01409, 20.1446)"><g><path d="M 5.078125 -3.46875 L 7.046875 -10.625 L 10.015625 -10.625 L 6.421875 0 L 3.71875 0 L 0.125 -10.625 L 3.09375 -10.625 Z M 5.078125 -3.46875 "/></g></g></g><g fill="#210d41" fill-opacity="1"><g transform="translate(76.728464, 20.1446)"><g><path d="M 4.09375 0 L 1.234375 0 L 1.234375 -10.625 L 4.09375 -10.625 Z M 1.078125 -13.390625 C 1.078125 -13.804688 1.21875 -14.148438 1.5 -14.421875 C 1.78125 -14.703125 2.164062 -14.84375 2.65625 -14.84375 C 3.144531 -14.84375 3.53125 -14.703125 3.8125 -14.421875 C 4.101562 -14.148438 4.25 -13.804688 4.25 -13.390625 C 4.25 -12.953125 4.101562 -12.59375 3.8125 -12.3125 C 3.519531 -12.039062 3.132812 -11.90625 2.65625 -11.90625 C 2.1875 -11.90625 1.804688 -12.039062 1.515625 -12.3125 C 1.222656 -12.59375 1.078125 -12.953125 1.078125 -13.390625 Z M 1.078125 -13.390625 "/></g></g></g><g fill="#210d41" fill-opacity="1"><g transform="translate(82.607987, 20.1446)"><g><path d="M 6.84375 -2.9375 C 6.84375 -3.28125 6.671875 -3.550781 6.328125 -3.75 C 5.984375 -3.957031 5.429688 -4.140625 4.671875 -4.296875 C 2.148438 -4.828125 0.890625 -5.898438 0.890625 -7.515625 C 0.890625 -8.460938 1.28125 -9.25 2.0625 -9.875 C 2.84375 -10.507812 3.863281 -10.828125 5.125 -10.828125 C 6.476562 -10.828125 7.554688 -10.507812 8.359375 -9.875 C 9.171875 -9.238281 9.578125 -8.414062 9.578125 -7.40625 L 6.734375 -7.40625 C 6.734375 -7.8125 6.601562 -8.144531 6.34375 -8.40625 C 6.082031 -8.675781 5.675781 -8.8125 5.125 -8.8125 C 4.644531 -8.8125 4.269531 -8.703125 4 -8.484375 C 3.738281 -8.265625 3.609375 -7.988281 3.609375 -7.65625 C 3.609375 -7.34375 3.757812 -7.085938 4.0625 -6.890625 C 4.363281 -6.703125 4.867188 -6.535156 5.578125 -6.390625 C 6.285156 -6.253906 6.878906 -6.097656 7.359375 -5.921875 C 8.859375 -5.367188 9.609375 -4.414062 9.609375 -3.0625 C 9.609375 -2.09375 9.191406 -1.304688 8.359375 -0.703125 C 7.523438 -0.0976562 6.453125 0.203125 5.140625 0.203125 C 4.242188 0.203125 3.453125 0.046875 2.765625 -0.265625 C 2.078125 -0.585938 1.535156 -1.023438 1.140625 -1.578125 C 0.742188 -2.140625 0.546875 -2.738281 0.546875 -3.375 L 3.25 -3.375 C 3.269531 -2.875 3.453125 -2.488281 3.796875 -2.21875 C 4.148438 -1.945312 4.617188 -1.8125 5.203125 -1.8125 C 5.742188 -1.8125 6.148438 -1.914062 6.421875 -2.125 C 6.703125 -2.332031 6.84375 -2.601562 6.84375 -2.9375 Z M 6.84375 -2.9375 "/></g></g></g><g fill="#210d41" fill-opacity="1"><g transform="translate(93.499248, 20.1446)"><g><path d="M 4.484375 -13.25 L 4.484375 -10.625 L 6.3125 -10.625 L 6.3125 -8.546875 L 4.484375 -8.546875 L 4.484375 -3.25 C 4.484375 -2.851562 4.554688 -2.566406 4.703125 -2.390625 C 4.859375 -2.222656 5.148438 -2.140625 5.578125 -2.140625 C 5.890625 -2.140625 6.171875 -2.164062 6.421875 -2.21875 L 6.421875 -0.0625 C 5.859375 0.113281 5.285156 0.203125 4.703125 0.203125 C 2.703125 0.203125 1.6875 -0.800781 1.65625 -2.8125 L 1.65625 -8.546875 L 0.09375 -8.546875 L 0.09375 -10.625 L 1.65625 -10.625 L 1.65625 -13.25 Z M 4.484375 -13.25 "/></g></g></g><g fill="#210d41" fill-opacity="1"><g transform="translate(100.842979, 20.1446)"><g><path d="M 7.25 0 C 7.125 -0.257812 7.03125 -0.578125 6.96875 -0.953125 C 6.28125 -0.179688 5.382812 0.203125 4.28125 0.203125 C 3.238281 0.203125 2.375 -0.0976562 1.6875 -0.703125 C 1.007812 -1.304688 0.671875 -2.066406 0.671875 -2.984375 C 0.671875 -4.109375 1.085938 -4.972656 1.921875 -5.578125 C 2.753906 -6.179688 3.960938 -6.488281 5.546875 -6.5 L 6.84375 -6.5 L 6.84375 -7.109375 C 6.84375 -7.597656 6.71875 -7.988281 6.46875 -8.28125 C 6.21875 -8.570312 5.820312 -8.71875 5.28125 -8.71875 C 4.800781 -8.71875 4.425781 -8.601562 4.15625 -8.375 C 3.882812 -8.144531 3.75 -7.832031 3.75 -7.4375 L 0.90625 -7.4375 C 0.90625 -8.050781 1.09375 -8.617188 1.46875 -9.140625 C 1.851562 -9.671875 2.390625 -10.082031 3.078125 -10.375 C 3.773438 -10.675781 4.554688 -10.828125 5.421875 -10.828125 C 6.734375 -10.828125 7.773438 -10.5 8.546875 -9.84375 C 9.316406 -9.1875 9.703125 -8.257812 9.703125 -7.0625 L 9.703125 -2.453125 C 9.703125 -1.441406 9.84375 -0.679688 10.125 -0.171875 L 10.125 0 Z M 4.90625 -1.96875 C 5.320312 -1.96875 5.707031 -2.0625 6.0625 -2.25 C 6.414062 -2.4375 6.675781 -2.6875 6.84375 -3 L 6.84375 -4.828125 L 5.78125 -4.828125 C 4.363281 -4.828125 3.609375 -4.335938 3.515625 -3.359375 L 3.515625 -3.1875 C 3.515625 -2.832031 3.632812 -2.539062 3.875 -2.3125 C 4.125 -2.082031 4.46875 -1.96875 4.90625 -1.96875 Z M 4.90625 -1.96875 "/></g></g></g><g fill="#210d41" fill-opacity="1"><g transform="translate(112.176447, 20.1446)"><g><path d="M 7.0625 -7.96875 C 6.675781 -8.019531 6.335938 -8.046875 6.046875 -8.046875 C 4.972656 -8.046875 4.269531 -7.679688 3.9375 -6.953125 L 3.9375 0 L 1.09375 0 L 1.09375 -10.625 L 3.78125 -10.625 L 3.859375 -9.359375 C 4.421875 -10.335938 5.207031 -10.828125 6.21875 -10.828125 C 6.53125 -10.828125 6.828125 -10.785156 7.109375 -10.703125 Z M 7.0625 -7.96875 "/></g></g></g><g fill="#210d41" fill-opacity="1"><g transform="translate(120.060663, 20.1446)"><g><path d="M 1.234375 -1.390625 C 1.234375 -1.847656 1.382812 -2.21875 1.6875 -2.5 C 2 -2.78125 2.382812 -2.921875 2.84375 -2.921875 C 3.300781 -2.921875 3.679688 -2.78125 3.984375 -2.5 C 4.296875 -2.21875 4.453125 -1.847656 4.453125 -1.390625 C 4.453125 -0.953125 4.300781 -0.59375 4 -0.3125 C 3.695312 -0.03125 3.3125 0.109375 2.84375 0.109375 C 2.375 0.109375 1.988281 -0.03125 1.6875 -0.3125 C 1.382812 -0.59375 1.234375 -0.953125 1.234375 -1.390625 Z M 1.234375 -1.390625 "/></g></g></g><g fill="#210d41" fill-opacity="1"><g transform="translate(126.451184, 20.1446)"><g><path d="M 5.515625 -2.09375 C 6.035156 -2.09375 6.457031 -2.234375 6.78125 -2.515625 C 7.113281 -2.804688 7.285156 -3.191406 7.296875 -3.671875 L 9.96875 -3.671875 C 9.957031 -2.953125 9.757812 -2.289062 9.375 -1.6875 C 8.988281 -1.09375 8.457031 -0.628906 7.78125 -0.296875 C 7.113281 0.0351562 6.375 0.203125 5.5625 0.203125 C 4.039062 0.203125 2.84375 -0.28125 1.96875 -1.25 C 1.09375 -2.21875 0.65625 -3.550781 0.65625 -5.25 L 0.65625 -5.4375 C 0.65625 -7.082031 1.085938 -8.390625 1.953125 -9.359375 C 2.828125 -10.335938 4.023438 -10.828125 5.546875 -10.828125 C 6.867188 -10.828125 7.929688 -10.445312 8.734375 -9.6875 C 9.535156 -8.9375 9.945312 -7.929688 9.96875 -6.671875 L 7.296875 -6.671875 C 7.285156 -7.222656 7.113281 -7.671875 6.78125 -8.015625 C 6.457031 -8.359375 6.03125 -8.53125 5.5 -8.53125 C 4.832031 -8.53125 4.328125 -8.285156 3.984375 -7.796875 C 3.648438 -7.316406 3.484375 -6.539062 3.484375 -5.46875 L 3.484375 -5.171875 C 3.484375 -4.078125 3.648438 -3.289062 3.984375 -2.8125 C 4.316406 -2.332031 4.828125 -2.09375 5.515625 -2.09375 Z M 5.515625 -2.09375 "/></g></g></g><g fill="#210d41" fill-opacity="1"><g transform="translate(137.489844, 20.1446)"><g><path d="M 0.65625 -5.421875 C 0.65625 -6.472656 0.851562 -7.410156 1.25 -8.234375 C 1.65625 -9.054688 2.238281 -9.691406 3 -10.140625 C 3.769531 -10.597656 4.660156 -10.828125 5.671875 -10.828125 C 7.109375 -10.828125 8.28125 -10.390625 9.1875 -9.515625 C 10.09375 -8.640625 10.597656 -7.445312 10.703125 -5.9375 L 10.71875 -5.203125 C 10.71875 -3.578125 10.257812 -2.269531 9.34375 -1.28125 C 8.4375 -0.289062 7.21875 0.203125 5.6875 0.203125 C 4.15625 0.203125 2.929688 -0.285156 2.015625 -1.265625 C 1.109375 -2.253906 0.65625 -3.59375 0.65625 -5.28125 Z M 3.484375 -5.203125 C 3.484375 -4.191406 3.671875 -3.421875 4.046875 -2.890625 C 4.429688 -2.359375 4.976562 -2.09375 5.6875 -2.09375 C 6.375 -2.09375 6.910156 -2.351562 7.296875 -2.875 C 7.679688 -3.40625 7.875 -4.253906 7.875 -5.421875 C 7.875 -6.398438 7.679688 -7.160156 7.296875 -7.703125 C 6.910156 -8.253906 6.367188 -8.53125 5.671875 -8.53125 C 4.972656 -8.53125 4.429688 -8.257812 4.046875 -7.71875 C 3.671875 -7.175781 3.484375 -6.335938 3.484375 -5.203125 Z M 3.484375 -5.203125 "/></g></g></g><g fill="#210d41" fill-opacity="1"><g transform="translate(149.412927, 20.1446)"><g><path d="M 3.75 -10.625 L 3.84375 -9.4375 C 4.59375 -10.363281 5.609375 -10.828125 6.890625 -10.828125 C 8.265625 -10.828125 9.207031 -10.285156 9.71875 -9.203125 C 10.46875 -10.285156 11.53125 -10.828125 12.90625 -10.828125 C 14.0625 -10.828125 14.921875 -10.488281 15.484375 -9.8125 C 16.046875 -9.144531 16.328125 -8.140625 16.328125 -6.796875 L 16.328125 0 L 13.484375 0 L 13.484375 -6.78125 C 13.484375 -7.382812 13.363281 -7.820312 13.125 -8.09375 C 12.894531 -8.375 12.476562 -8.515625 11.875 -8.515625 C 11.03125 -8.515625 10.441406 -8.109375 10.109375 -7.296875 L 10.125 0 L 7.28125 0 L 7.28125 -6.765625 C 7.28125 -7.378906 7.15625 -7.820312 6.90625 -8.09375 C 6.664062 -8.375 6.257812 -8.515625 5.6875 -8.515625 C 4.875 -8.515625 4.289062 -8.179688 3.9375 -7.515625 L 3.9375 0 L 1.09375 0 L 1.09375 -10.625 Z M 3.75 -10.625 "/></g></g></g></svg>