<svg xmlns="http://www.w3.org/2000/svg" xmlns:xlink="http://www.w3.org/1999/xlink" width="40" zoomAndPan="magnify" viewBox="0 0 30 30.000001" height="40" preserveAspectRatio="xMidYMid meet" version="1.0"><defs><clipPath id="4a6eff6a4c"><path d="M 0.484375 0 L 29.515625 0 L 29.515625 29.03125 L 0.484375 29.03125 Z M 0.484375 0 " clip-rule="nonzero"/></clipPath><clipPath id="1e9e3a55d4"><path d="M 6.804688 7.695312 L 17 7.695312 L 17 21 L 6.804688 21 Z M 6.804688 7.695312 " clip-rule="nonzero"/></clipPath><clipPath id="baca220387"><path d="M 7 7.695312 L 9 7.695312 L 9 10 L 7 10 Z M 7 7.695312 " clip-rule="nonzero"/></clipPath><clipPath id="fb28f0da58"><path d="M 15 7.695312 L 17 7.695312 L 17 10 L 15 10 Z M 15 7.695312 " clip-rule="nonzero"/></clipPath><clipPath id="a9842f5368"><path d="M 15.222656 10.742188 L 23.476562 10.742188 L 23.476562 21.484375 L 15.222656 21.484375 Z M 15.222656 10.742188 " clip-rule="nonzero"/></clipPath><clipPath id="368acbc082"><path d="M 22 10 L 23.5 10 L 23.5 13 L 22 13 Z M 22 10 " clip-rule="nonzero"/></clipPath><clipPath id="3c2abc9cd6"><path d="M 15 20 L 17 20 L 17 21.484375 L 15 21.484375 Z M 15 20 " clip-rule="nonzero"/></clipPath><clipPath id="a0575ec8d6"><path d="M 22 20 L 23.5 20 L 23.5 21.484375 L 22 21.484375 Z M 22 20 " clip-rule="nonzero"/></clipPath><clipPath id="353f76baa0"><path d="M 15.714844 11.351562 L 23.476562 11.351562 L 23.476562 21.484375 L 15.714844 21.484375 Z M 15.714844 11.351562 " clip-rule="nonzero"/></clipPath></defs><g clip-path="url(#4a6eff6a4c)"><path fill="#ffffff" d="M 0.484375 0 L 29.515625 0 L 29.515625 36.289062 L 0.484375 36.289062 Z M 0.484375 0 " fill-opacity="1" fill-rule="nonzero"/><path fill="#ffffff" d="M 0.484375 0 L 29.515625 0 L 29.515625 29.03125 L 0.484375 29.03125 Z M 0.484375 0 " fill-opacity="1" fill-rule="nonzero"/><path fill="#ffffff" d="M 0.484375 0 L 29.515625 0 L 29.515625 29.03125 L 0.484375 29.03125 Z M 0.484375 0 " fill-opacity="1" fill-rule="nonzero"/></g><g clip-path="url(#1e9e3a55d4)"><path fill="#f2571d" d="M 16.648438 14.070312 C 16.648438 11.140625 16.238281 8.761719 15.730469 8.722656 C 15.730469 8.152344 13.945312 7.695312 11.746094 7.695312 C 9.542969 7.695312 7.757812 8.152344 7.757812 8.722656 C 7.246094 8.722656 6.828125 11.113281 6.828125 14.070312 C 6.828125 17.023438 7.246094 19.414062 7.757812 19.414062 C 7.757812 19.984375 9.542969 20.441406 11.746094 20.441406 C 13.945312 20.441406 15.730469 19.984375 15.730469 19.414062 C 16.238281 19.375 16.648438 16.996094 16.648438 14.070312 " fill-opacity="1" fill-rule="nonzero"/></g><g clip-path="url(#baca220387)"><path fill="#f2571d" d="M 8.359375 8.492188 C 8.359375 8.492188 8.355469 8.488281 8.351562 8.484375 C 8.351562 8.484375 8.351562 8.480469 8.351562 8.480469 C 8.335938 8.464844 8.320312 8.457031 8.304688 8.449219 C 8.113281 8.335938 7.921875 8.222656 7.730469 8.105469 C 7.625 8.042969 7.417969 7.855469 7.28125 7.902344 C 6.921875 8.015625 7.21875 8.4375 7.3125 8.648438 C 7.425781 8.898438 7.527344 9.464844 7.898438 9.292969 C 7.976562 9.253906 8.054688 9.136719 8.117188 9.078125 C 8.203125 8.988281 8.289062 8.902344 8.371094 8.816406 C 8.46875 8.714844 8.441406 8.597656 8.367188 8.503906 C 8.367188 8.5 8.363281 8.496094 8.359375 8.492188 " fill-opacity="1" fill-rule="nonzero"/></g><g clip-path="url(#fb28f0da58)"><path fill="#f2571d" d="M 15.109375 8.789062 C 15.199219 8.960938 15.441406 9.132812 15.578125 9.273438 C 15.882812 9.582031 16.082031 8.890625 16.152344 8.730469 C 16.226562 8.574219 16.597656 8.023438 16.265625 7.914062 C 16.105469 7.863281 15.976562 7.984375 15.847656 8.0625 C 15.632812 8.191406 15.414062 8.320312 15.199219 8.449219 C 15.183594 8.457031 15.167969 8.464844 15.152344 8.480469 C 15.152344 8.480469 15.152344 8.484375 15.152344 8.484375 C 15.148438 8.484375 15.148438 8.484375 15.148438 8.484375 C 15.148438 8.484375 15.148438 8.488281 15.144531 8.488281 C 15.140625 8.496094 15.136719 8.5 15.132812 8.503906 C 15.058594 8.597656 15.054688 8.679688 15.109375 8.789062 " fill-opacity="1" fill-rule="nonzero"/></g><path fill="#f2571d" d="M 8.394531 19.324219 C 8.304688 19.152344 8.0625 18.980469 7.925781 18.84375 C 7.621094 18.53125 7.421875 19.222656 7.347656 19.382812 C 7.277344 19.542969 6.902344 20.09375 7.238281 20.199219 C 7.394531 20.25 7.527344 20.128906 7.65625 20.050781 C 7.871094 19.921875 8.085938 19.792969 8.304688 19.664062 C 8.320312 19.660156 8.335938 19.648438 8.351562 19.632812 C 8.351562 19.628906 8.351562 19.628906 8.351562 19.628906 C 8.355469 19.628906 8.355469 19.625 8.355469 19.625 C 8.363281 19.621094 8.367188 19.613281 8.371094 19.609375 C 8.441406 19.519531 8.449219 19.4375 8.394531 19.324219 " fill-opacity="1" fill-rule="nonzero"/><path fill="#ed1b28" d="M 15.605469 18.824219 C 15.523438 18.859375 15.445312 18.976562 15.386719 19.039062 C 15.300781 19.125 15.214844 19.210938 15.128906 19.300781 C 15.035156 19.398438 15.058594 19.519531 15.132812 19.609375 C 15.136719 19.613281 15.140625 19.617188 15.140625 19.621094 C 15.144531 19.625 15.148438 19.628906 15.148438 19.628906 C 15.148438 19.628906 15.148438 19.628906 15.152344 19.632812 C 15.167969 19.648438 15.183594 19.660156 15.199219 19.664062 C 15.390625 19.777344 15.582031 19.894531 15.773438 20.007812 C 15.878906 20.070312 16.082031 20.257812 16.222656 20.214844 C 16.582031 20.097656 16.285156 19.675781 16.191406 19.46875 C 16.078125 19.21875 15.976562 18.648438 15.605469 18.824219 " fill-opacity="1" fill-rule="nonzero"/><path fill="#ed1b28" d="M 15.730469 8.722656 C 15.730469 8.605469 15.652344 8.492188 15.511719 8.386719 C 15.8125 9.328125 16.03125 11.011719 16.011719 12.933594 C 15.976562 16.757812 15.566406 19.398438 10.449219 19.308594 C 9.28125 19.285156 8.21875 19.207031 7.417969 19.042969 C 7.523438 19.28125 7.636719 19.414062 7.757812 19.414062 C 7.757812 19.984375 9.542969 20.441406 11.746094 20.441406 C 13.945312 20.441406 15.730469 19.984375 15.730469 19.414062 C 16.238281 19.375 16.648438 16.996094 16.648438 14.070312 C 16.648438 11.140625 16.238281 8.761719 15.730469 8.722656 " fill-opacity="1" fill-rule="nonzero"/><path fill="#fbc710" d="M 11.738281 10.757812 C 11.738281 10.757812 10.605469 12.109375 11.738281 13.050781 C 12.871094 12.109375 11.738281 10.757812 11.738281 10.757812 " fill-opacity="1" fill-rule="nonzero"/><path fill="#fbc710" d="M 13.410156 12.433594 C 13.410156 12.433594 11.703125 12.589844 11.828125 14 C 13.25 14.125 13.410156 12.433594 13.410156 12.433594 " fill-opacity="1" fill-rule="nonzero"/><path fill="#fbc710" d="M 10.070312 12.5 C 10.070312 12.5 10.292969 14.1875 11.707031 14.007812 C 11.78125 12.59375 10.070312 12.5 10.070312 12.5 " fill-opacity="1" fill-rule="nonzero"/><path fill="#fbc710" d="M 13.625 13.785156 C 13.625 13.785156 11.699219 13.964844 11.839844 15.558594 C 13.445312 15.699219 13.625 13.785156 13.625 13.785156 " fill-opacity="1" fill-rule="nonzero"/><path fill="#fbc710" d="M 9.851562 13.863281 C 9.851562 13.863281 10.105469 15.769531 11.703125 15.566406 C 11.785156 13.96875 9.851562 13.863281 9.851562 13.863281 " fill-opacity="1" fill-rule="nonzero"/><path fill="#fbc710" d="M 13.730469 15.195312 C 13.730469 15.195312 11.695312 15.382812 11.847656 17.0625 C 13.539062 17.210938 13.730469 15.195312 13.730469 15.195312 " fill-opacity="1" fill-rule="nonzero"/><path fill="#fbc710" d="M 9.75 15.277344 C 9.75 15.277344 10.015625 17.285156 11.703125 17.070312 C 11.789062 15.386719 9.75 15.277344 9.75 15.277344 " fill-opacity="1" fill-rule="nonzero"/><path fill="#fbc710" d="M 11.761719 9.695312 L 11.714844 9.695312 L 11.714844 11.027344 L 11.761719 11.027344 L 11.761719 9.695312 " fill-opacity="1" fill-rule="nonzero"/><path fill="#fbc710" d="M 13.902344 11.980469 L 13.871094 11.949219 L 12.917969 12.886719 L 12.945312 12.917969 L 13.902344 11.980469 " fill-opacity="1" fill-rule="nonzero"/><path fill="#fbc710" d="M 14.117188 13.332031 L 14.085938 13.300781 L 13.132812 14.238281 L 13.164062 14.269531 L 14.117188 13.332031 " fill-opacity="1" fill-rule="nonzero"/><path fill="#fbc710" d="M 14.222656 14.742188 L 14.191406 14.710938 L 13.238281 15.648438 L 13.269531 15.679688 L 14.222656 14.742188 " fill-opacity="1" fill-rule="nonzero"/><path fill="#fbc710" d="M 9.578125 12.046875 L 9.609375 12.015625 L 10.5625 12.953125 L 10.53125 12.984375 L 9.578125 12.046875 " fill-opacity="1" fill-rule="nonzero"/><path fill="#fbc710" d="M 9.359375 13.410156 L 9.390625 13.378906 L 10.34375 14.316406 L 10.3125 14.347656 L 9.359375 13.410156 " fill-opacity="1" fill-rule="nonzero"/><path fill="#fbc710" d="M 9.257812 14.824219 L 9.289062 14.792969 L 10.242188 15.730469 L 10.210938 15.761719 L 9.257812 14.824219 " fill-opacity="1" fill-rule="nonzero"/><g clip-path="url(#a9842f5368)"><path fill="#fbc710" d="M 23.476562 16.132812 C 23.476562 13.671875 23.132812 11.675781 22.703125 11.644531 C 22.703125 11.167969 21.207031 10.78125 19.359375 10.78125 C 17.507812 10.78125 16.011719 11.167969 16.011719 11.644531 C 15.578125 11.644531 15.230469 13.652344 15.230469 16.132812 C 15.230469 18.613281 15.578125 20.621094 16.011719 20.621094 C 16.011719 21.097656 17.507812 21.484375 19.359375 21.484375 C 21.207031 21.484375 22.703125 21.097656 22.703125 20.621094 C 23.132812 20.589844 23.476562 18.59375 23.476562 16.132812 " fill-opacity="1" fill-rule="nonzero"/></g><path fill="#fbc710" d="M 16.515625 11.453125 C 16.515625 11.449219 16.511719 11.445312 16.511719 11.445312 C 16.507812 11.445312 16.507812 11.445312 16.507812 11.445312 C 16.507812 11.441406 16.507812 11.441406 16.507812 11.441406 C 16.496094 11.429688 16.480469 11.421875 16.46875 11.414062 C 16.308594 11.320312 16.148438 11.222656 15.988281 11.128906 C 15.898438 11.074219 15.726562 10.917969 15.609375 10.953125 C 15.304688 11.050781 15.554688 11.40625 15.636719 11.582031 C 15.730469 11.792969 15.816406 12.265625 16.128906 12.121094 C 16.195312 12.09375 16.261719 11.992188 16.3125 11.941406 C 16.382812 11.867188 16.453125 11.792969 16.527344 11.722656 C 16.605469 11.640625 16.585938 11.539062 16.523438 11.460938 C 16.519531 11.457031 16.519531 11.453125 16.515625 11.453125 " fill-opacity="1" fill-rule="nonzero"/><g clip-path="url(#368acbc082)"><path fill="#fbc710" d="M 22.183594 11.699219 C 22.257812 11.847656 22.460938 11.988281 22.574219 12.105469 C 22.832031 12.367188 23 11.785156 23.058594 11.652344 C 23.121094 11.519531 23.433594 11.054688 23.152344 10.964844 C 23.019531 10.921875 22.910156 11.023438 22.800781 11.089844 C 22.621094 11.199219 22.441406 11.308594 22.257812 11.414062 C 22.246094 11.421875 22.230469 11.429688 22.21875 11.441406 C 22.21875 11.441406 22.21875 11.441406 22.21875 11.445312 C 22.21875 11.445312 22.214844 11.445312 22.214844 11.445312 C 22.214844 11.445312 22.214844 11.445312 22.210938 11.449219 C 22.207031 11.453125 22.207031 11.457031 22.203125 11.460938 C 22.140625 11.539062 22.136719 11.605469 22.183594 11.699219 " fill-opacity="1" fill-rule="nonzero"/></g><g clip-path="url(#3c2abc9cd6)"><path fill="#fbc710" d="M 16.542969 20.546875 C 16.46875 20.402344 16.265625 20.257812 16.148438 20.140625 C 15.894531 19.878906 15.726562 20.460938 15.667969 20.597656 C 15.605469 20.730469 15.292969 21.191406 15.574219 21.28125 C 15.707031 21.324219 15.816406 21.222656 15.925781 21.15625 C 16.105469 21.046875 16.285156 20.941406 16.46875 20.832031 C 16.480469 20.828125 16.496094 20.816406 16.507812 20.804688 C 16.507812 20.804688 16.507812 20.804688 16.511719 20.800781 C 16.511719 20.800781 16.511719 20.800781 16.511719 20.796875 C 16.515625 20.792969 16.519531 20.789062 16.523438 20.785156 C 16.585938 20.707031 16.589844 20.640625 16.542969 20.546875 " fill-opacity="1" fill-rule="nonzero"/></g><g clip-path="url(#a0575ec8d6)"><path fill="#f2571d" d="M 22.597656 20.125 C 22.53125 20.15625 22.464844 20.253906 22.414062 20.304688 C 22.34375 20.378906 22.269531 20.453125 22.199219 20.527344 C 22.121094 20.609375 22.140625 20.707031 22.203125 20.785156 C 22.203125 20.789062 22.207031 20.792969 22.210938 20.796875 C 22.210938 20.796875 22.214844 20.800781 22.214844 20.800781 C 22.214844 20.804688 22.21875 20.804688 22.21875 20.804688 C 22.230469 20.816406 22.246094 20.828125 22.257812 20.832031 C 22.417969 20.925781 22.578125 21.023438 22.738281 21.121094 C 22.828125 21.171875 23 21.332031 23.117188 21.292969 C 23.417969 21.195312 23.171875 20.84375 23.089844 20.667969 C 22.996094 20.457031 22.910156 19.980469 22.597656 20.125 " fill-opacity="1" fill-rule="nonzero"/></g><g clip-path="url(#353f76baa0)"><path fill="#f2571d" d="M 22.703125 11.644531 C 22.703125 11.542969 22.640625 11.449219 22.523438 11.363281 C 22.773438 12.152344 22.957031 13.566406 22.941406 15.179688 C 22.910156 18.390625 22.566406 20.609375 18.269531 20.53125 C 17.289062 20.515625 16.398438 20.449219 15.722656 20.308594 C 15.8125 20.511719 15.910156 20.621094 16.011719 20.621094 C 16.011719 21.097656 17.507812 21.484375 19.359375 21.484375 C 21.207031 21.484375 22.703125 21.097656 22.703125 20.621094 C 23.132812 20.589844 23.476562 18.59375 23.476562 16.132812 C 23.476562 13.671875 23.132812 11.675781 22.703125 11.644531 " fill-opacity="1" fill-rule="nonzero"/></g><path fill="#ed1b28" d="M 19.351562 13.351562 C 19.351562 13.351562 18.398438 14.488281 19.351562 15.28125 C 20.304688 14.488281 19.351562 13.351562 19.351562 13.351562 " fill-opacity="1" fill-rule="nonzero"/><path fill="#ed1b28" d="M 20.753906 14.761719 C 20.753906 14.761719 19.320312 14.890625 19.429688 16.078125 C 20.621094 16.183594 20.753906 14.761719 20.753906 14.761719 " fill-opacity="1" fill-rule="nonzero"/><path fill="#ed1b28" d="M 17.949219 14.816406 C 17.949219 14.816406 18.136719 16.234375 19.328125 16.082031 C 19.386719 14.894531 17.949219 14.816406 17.949219 14.816406 " fill-opacity="1" fill-rule="nonzero"/><path fill="#ed1b28" d="M 20.9375 15.898438 C 20.9375 15.898438 19.316406 16.046875 19.4375 17.382812 C 20.785156 17.503906 20.9375 15.898438 20.9375 15.898438 " fill-opacity="1" fill-rule="nonzero"/><path fill="#ed1b28" d="M 17.769531 15.960938 C 17.769531 15.960938 17.980469 17.5625 19.324219 17.390625 C 19.390625 16.046875 17.769531 15.960938 17.769531 15.960938 " fill-opacity="1" fill-rule="nonzero"/><path fill="#ed1b28" d="M 21.023438 17.078125 C 21.023438 17.078125 19.316406 17.234375 19.441406 18.648438 C 20.867188 18.773438 21.023438 17.078125 21.023438 17.078125 " fill-opacity="1" fill-rule="nonzero"/><path fill="#ed1b28" d="M 17.679688 17.148438 C 17.679688 17.148438 17.90625 18.832031 19.320312 18.652344 C 19.394531 17.238281 17.679688 17.148438 17.679688 17.148438 " fill-opacity="1" fill-rule="nonzero"/><path fill="#ed1b28" d="M 19.371094 12.460938 L 19.335938 12.460938 L 19.335938 13.578125 L 19.371094 13.578125 L 19.371094 12.460938 " fill-opacity="1" fill-rule="nonzero"/><path fill="#ed1b28" d="M 21.167969 14.378906 L 21.140625 14.351562 L 20.339844 15.140625 L 20.367188 15.167969 L 21.167969 14.378906 " fill-opacity="1" fill-rule="nonzero"/><path fill="#ed1b28" d="M 21.351562 15.515625 L 21.324219 15.488281 L 20.523438 16.277344 L 20.550781 16.304688 L 21.351562 15.515625 " fill-opacity="1" fill-rule="nonzero"/><path fill="#ed1b28" d="M 21.4375 16.699219 L 21.410156 16.671875 L 20.609375 17.457031 L 20.636719 17.484375 L 21.4375 16.699219 " fill-opacity="1" fill-rule="nonzero"/><path fill="#ed1b28" d="M 17.535156 14.4375 L 17.5625 14.410156 L 18.363281 15.199219 L 18.335938 15.222656 L 17.535156 14.4375 " fill-opacity="1" fill-rule="nonzero"/><path fill="#ed1b28" d="M 17.355469 15.582031 L 17.378906 15.554688 L 18.179688 16.339844 L 18.15625 16.367188 L 17.355469 15.582031 " fill-opacity="1" fill-rule="nonzero"/><path fill="#ed1b28" d="M 17.269531 16.765625 L 17.292969 16.738281 L 18.09375 17.527344 L 18.070312 17.554688 L 17.269531 16.765625 " fill-opacity="1" fill-rule="nonzero"/></svg>