<svg xmlns="http://www.w3.org/2000/svg" xmlns:xlink="http://www.w3.org/1999/xlink" width="185" zoomAndPan="magnify" viewBox="0 0 138.75 104.999996" height="140" preserveAspectRatio="xMidYMid meet" version="1.0"><defs><clipPath id="fcecc60dd4"><path d="M 0 0.09375 L 138.5 0.09375 L 138.5 104.90625 L 0 104.90625 Z M 0 0.09375 " clip-rule="nonzero"/></clipPath><clipPath id="5610fd6422"><path d="M 62 6.492188 L 86 6.492188 L 86 37 L 62 37 Z M 62 6.492188 " clip-rule="nonzero"/></clipPath><clipPath id="056d16df73"><path d="M 93 87 L 98 87 L 98 98.742188 L 93 98.742188 Z M 93 87 " clip-rule="nonzero"/></clipPath><clipPath id="7d345b97d6"><path d="M 93.113281 86.382812 L 98.207031 86.382812 L 98.207031 98.742188 L 93.113281 98.742188 Z M 93.113281 86.382812 " clip-rule="nonzero"/></clipPath><clipPath id="0c0deda1d5"><path d="M 117.683594 54.964844 L 122.964844 54.964844 L 122.964844 60.949219 L 117.683594 60.949219 Z M 117.683594 54.964844 " clip-rule="nonzero"/></clipPath></defs><g clip-path="url(#fcecc60dd4)"><path fill="#ffffff" d="M 0 0.09375 L 138.75 0.09375 L 138.75 112.59375 L 0 112.59375 Z M 0 0.09375 " fill-opacity="1" fill-rule="nonzero"/><path fill="#ffffff" d="M 0 0.09375 L 138.75 0.09375 L 138.75 105.09375 L 0 105.09375 Z M 0 0.09375 " fill-opacity="1" fill-rule="nonzero"/><path fill="#ffffff" d="M 0 0.09375 L 138.75 0.09375 L 138.75 105.09375 L 0 105.09375 Z M 0 0.09375 " fill-opacity="1" fill-rule="nonzero"/></g><path fill="#fdfeff" d="M 101.980469 56.945312 C 101.980469 58.363281 101.890625 59.769531 101.726562 61.140625 C 100.769531 68.992188 97.175781 76.039062 91.855469 81.355469 C 85.597656 87.609375 76.953125 91.476562 67.398438 91.476562 C 56.074219 91.476562 46.023438 86.039062 39.71875 77.636719 C 35.386719 71.871094 32.820312 64.703125 32.820312 56.945312 C 32.820312 50.308594 34.699219 44.109375 37.949219 38.84375 C 41.152344 33.652344 45.6875 29.382812 51.089844 26.492188 L 51.097656 26.492188 C 55.957031 23.886719 61.507812 22.417969 67.398438 22.417969 C 77.535156 22.417969 86.648438 26.773438 92.976562 33.714844 C 98.570312 39.84375 101.980469 48 101.980469 56.945312 " fill-opacity="1" fill-rule="nonzero"/><path fill="#1a2745" d="M 51.328125 27.046875 C 46.050781 29.878906 41.601562 34.066406 38.460938 39.15625 C 35.164062 44.496094 33.417969 50.644531 33.417969 56.945312 C 33.417969 64.34375 35.761719 71.375 40.195312 77.277344 C 46.683594 85.921875 56.601562 90.878906 67.398438 90.878906 C 76.480469 90.878906 85.015625 87.347656 91.429688 80.933594 C 96.777344 75.59375 100.222656 68.539062 101.128906 61.070312 C 101.296875 59.710938 101.378906 58.324219 101.378906 56.945312 C 101.378906 48.476562 98.238281 40.367188 92.53125 34.117188 C 86.101562 27.0625 76.941406 23.015625 67.398438 23.015625 C 61.808594 23.015625 56.269531 24.398438 51.382812 27.019531 C 51.363281 27.03125 51.347656 27.039062 51.328125 27.046875 Z M 67.398438 92.074219 C 56.21875 92.074219 45.953125 86.941406 39.238281 77.996094 C 34.648438 71.882812 32.222656 64.605469 32.222656 56.945312 C 32.222656 50.425781 34.027344 44.054688 37.441406 38.527344 C 40.703125 33.242188 45.324219 28.898438 50.808594 25.964844 C 50.828125 25.957031 50.84375 25.949219 50.863281 25.941406 C 55.914062 23.242188 61.628906 21.816406 67.398438 21.816406 C 77.277344 21.816406 86.761719 26.007812 93.417969 33.3125 C 99.324219 39.78125 102.578125 48.179688 102.578125 56.945312 C 102.578125 58.371094 102.492188 59.804688 102.320312 61.214844 C 101.378906 68.949219 97.8125 76.25 92.277344 81.777344 C 85.636719 88.417969 76.800781 92.074219 67.398438 92.074219 " fill-opacity="1" fill-rule="nonzero"/><path fill="#8aa0ff" d="M 92.976562 33.714844 C 91.128906 34.523438 87.007812 34.976562 88.191406 39.945312 C 88.90625 42.9375 88.351562 46.269531 85.148438 47.199219 C 81.0625 48.382812 78.746094 48.296875 77.503906 50.152344 C 76.265625 52.007812 79.054688 54.640625 77.503906 57.578125 C 75.957031 60.515625 73.167969 60.824219 70.6875 57.578125 C 68.210938 54.328125 68.832031 52.628906 63.769531 50.460938 C 58.699219 48.296875 61.394531 45.976562 63.253906 42.882812 C 65.113281 39.789062 61.707031 36.078125 56.285156 36.695312 C 52.070312 37.179688 47.597656 33.257812 51.089844 26.492188 L 51.097656 26.492188 C 55.957031 23.886719 61.507812 22.417969 67.398438 22.417969 C 77.535156 22.417969 86.648438 26.773438 92.976562 33.714844 " fill-opacity="1" fill-rule="nonzero"/><path fill="#ffffff" d="M 51.75 27.988281 C 51.890625 27.699219 52.128906 27.464844 52.417969 27.324219 C 54.332031 26.402344 62.039062 22.917969 68.277344 23.46875 C 77.871094 24.320312 86.613281 27.40625 92.882812 33.753906 C 92.914062 33.738281 92.945312 33.726562 92.976562 33.714844 C 86.648438 26.773438 77.535156 22.417969 67.398438 22.417969 C 61.507812 22.417969 55.957031 23.886719 51.097656 26.492188 L 51.089844 26.492188 C 49.011719 30.519531 49.753906 33.535156 51.585938 35.21875 C 50.511719 33.535156 50.289062 31.074219 51.75 27.988281 " fill-opacity="1" fill-rule="nonzero"/><path fill="#ffffff" d="M 68.289062 53.75 C 69.019531 54.816406 69.5 56.019531 70.6875 57.578125 C 70.917969 57.878906 71.152344 58.136719 71.382812 58.378906 C 69.957031 56.425781 69.597656 55.035156 68.289062 53.75 " fill-opacity="1" fill-rule="nonzero"/><path fill="#1a2745" d="M 57.433594 36.03125 C 60.148438 36.03125 62.527344 37.09375 63.6875 38.894531 C 64.5625 40.253906 64.59375 41.820312 63.769531 43.191406 C 63.484375 43.664062 63.183594 44.117188 62.890625 44.558594 C 62.003906 45.886719 61.238281 47.035156 61.507812 47.945312 C 61.714844 48.628906 62.554688 49.292969 64.003906 49.914062 C 67.78125 51.527344 68.589844 52.96875 69.617188 54.789062 C 70.015625 55.5 70.46875 56.300781 71.164062 57.214844 C 72.257812 58.644531 73.460938 59.394531 74.535156 59.292969 C 75.472656 59.214844 76.339844 58.507812 76.976562 57.300781 C 77.695312 55.929688 77.324219 54.613281 76.964844 53.34375 C 76.628906 52.144531 76.28125 50.90625 77.007812 49.820312 C 78.027344 48.292969 79.675781 47.914062 81.957031 47.386719 C 82.839844 47.183594 83.84375 46.953125 84.980469 46.625 C 87.871094 45.785156 88.234375 42.695312 87.609375 40.082031 C 86.480469 35.347656 89.8125 34.199219 91.804688 33.511719 C 91.847656 33.496094 91.886719 33.484375 91.925781 33.46875 C 84.8125 25.554688 76.648438 23.015625 67.398438 23.015625 C 61.867188 23.015625 56.386719 24.371094 51.539062 26.9375 C 50.15625 29.707031 50.070312 32.207031 51.304688 33.992188 C 52.34375 35.496094 54.269531 36.320312 56.214844 36.101562 C 56.628906 36.054688 57.03125 36.03125 57.433594 36.03125 Z M 74.351562 60.496094 C 73.292969 60.496094 71.792969 60.011719 70.210938 57.941406 C 69.464844 56.960938 68.992188 56.121094 68.574219 55.378906 C 67.585938 53.625 66.933594 52.46875 63.53125 51.011719 C 61.6875 50.222656 60.679688 49.359375 60.359375 48.285156 C 59.929688 46.839844 60.882812 45.410156 61.890625 43.894531 C 62.175781 43.46875 62.464844 43.03125 62.742188 42.574219 C 63.332031 41.59375 63.308594 40.515625 62.679688 39.542969 C 61.855469 38.265625 59.707031 36.914062 56.351562 37.289062 C 53.980469 37.566406 51.605469 36.535156 50.320312 34.671875 C 49.4375 33.398438 48.292969 30.601562 50.558594 26.21875 C 50.625 26.089844 50.734375 25.992188 50.863281 25.941406 C 55.914062 23.242188 61.628906 21.816406 67.398438 21.816406 C 77.277344 21.816406 86.761719 26.007812 93.417969 33.3125 C 93.550781 33.453125 93.601562 33.648438 93.5625 33.839844 C 93.523438 34.027344 93.394531 34.183594 93.21875 34.261719 C 92.914062 34.394531 92.566406 34.515625 92.195312 34.644531 C 90.179688 35.335938 87.898438 36.125 88.777344 39.804688 C 89.492188 42.808594 89.019531 46.699219 85.316406 47.773438 C 84.144531 48.113281 83.125 48.347656 82.226562 48.554688 C 80.066406 49.050781 78.761719 49.351562 78.003906 50.484375 C 77.601562 51.085938 77.785156 51.835938 78.121094 53.019531 C 78.503906 54.375 78.980469 56.066406 78.035156 57.855469 C 77.203125 59.441406 75.992188 60.375 74.636719 60.484375 C 74.546875 60.492188 74.453125 60.496094 74.351562 60.496094 " fill-opacity="1" fill-rule="nonzero"/><path fill="#8aa0ff" d="M 44.355469 46.75 C 41.105469 51.234375 38.007812 52.449219 40.640625 56.945312 C 43.273438 61.445312 47.40625 63.945312 43.792969 66.710938 C 40.152344 69.496094 45.019531 76.90625 39.71875 77.636719 C 35.386719 71.871094 32.820312 64.703125 32.820312 56.945312 C 32.820312 50.308594 34.699219 44.109375 37.949219 38.84375 C 44.976562 41.949219 47.261719 42.746094 44.355469 46.75 " fill-opacity="1" fill-rule="nonzero"/><path fill="#ffffff" d="M 34.023438 57.324219 C 34.023438 50.734375 35.871094 44.582031 39.082031 39.339844 C 38.71875 39.179688 38.34375 39.015625 37.949219 38.84375 C 34.699219 44.109375 32.820312 50.308594 32.820312 56.945312 C 32.820312 64.703125 35.386719 71.871094 39.714844 77.636719 C 40.011719 77.59375 40.273438 77.53125 40.511719 77.449219 C 36.429688 71.78125 34.023438 64.832031 34.023438 57.324219 " fill-opacity="1" fill-rule="nonzero"/><path fill="#1a2745" d="M 38.1875 39.601562 C 35.066406 44.835938 33.417969 50.820312 33.417969 56.945312 C 33.417969 64.222656 35.6875 71.140625 39.976562 76.984375 C 41.863281 76.5625 41.882812 75 41.75 72.378906 C 41.640625 70.183594 41.515625 67.699219 43.425781 66.234375 C 44.140625 65.6875 44.523438 65.15625 44.597656 64.605469 C 44.738281 63.53125 43.703125 62.191406 42.5 60.636719 C 41.738281 59.648438 40.871094 58.527344 40.121094 57.25 C 37.898438 53.453125 39.484375 51.625 41.679688 49.097656 C 42.351562 48.324219 43.109375 47.445312 43.871094 46.398438 C 44.773438 45.15625 45.113281 44.285156 44.941406 43.65625 C 44.613281 42.433594 42.308594 41.417969 38.492188 39.738281 Z M 39.71875 78.234375 C 39.53125 78.234375 39.351562 78.148438 39.238281 77.996094 C 34.648438 71.882812 32.222656 64.605469 32.222656 56.945312 C 32.222656 50.425781 34.027344 44.054688 37.441406 38.527344 C 37.597656 38.273438 37.921875 38.171875 38.191406 38.296875 L 38.976562 38.640625 C 43.261719 40.53125 45.621094 41.570312 46.101562 43.34375 C 46.378906 44.363281 45.988281 45.523438 44.84375 47.101562 C 44.050781 48.191406 43.273438 49.089844 42.585938 49.878906 C 40.445312 52.347656 39.367188 53.589844 41.15625 56.644531 C 41.867188 57.855469 42.707031 58.945312 43.449219 59.90625 C 44.8125 61.667969 45.992188 63.191406 45.785156 64.761719 C 45.671875 65.640625 45.136719 66.433594 44.15625 67.183594 C 42.742188 68.265625 42.84375 70.234375 42.949219 72.316406 C 43.078125 74.867188 43.222656 77.757812 39.796875 78.226562 C 39.769531 78.234375 39.742188 78.234375 39.71875 78.234375 " fill-opacity="1" fill-rule="nonzero"/><path fill="#fdfeff" d="M 101.726562 61.140625 C 100.769531 68.992188 97.175781 76.039062 91.855469 81.355469 C 85.289062 75.421875 85.597656 75.605469 88.191406 70.570312 C 90.980469 65.15625 92.617188 67.742188 97.175781 64.382812 C 98.96875 63.066406 100.523438 61.703125 101.726562 61.140625 " fill-opacity="1" fill-rule="nonzero"/><path fill="#1a2745" d="M 100.957031 62.285156 C 100.398438 62.667969 99.769531 63.152344 99.089844 63.679688 C 98.59375 64.066406 98.074219 64.464844 97.535156 64.863281 C 95.625 66.269531 94.179688 66.691406 93.019531 67.027344 C 91.371094 67.503906 90.28125 67.820312 88.726562 70.84375 L 88.421875 71.433594 C 86.347656 75.425781 86.296875 75.523438 91.832031 80.527344 C 96.664062 75.53125 99.871094 69.117188 100.957031 62.285156 Z M 91.855469 81.953125 C 91.710938 81.953125 91.566406 81.902344 91.453125 81.796875 C 85.183594 76.132812 84.808594 75.796875 87.359375 70.882812 L 87.660156 70.296875 C 89.453125 66.816406 90.878906 66.402344 92.6875 65.878906 C 93.8125 65.550781 95.085938 65.179688 96.820312 63.902344 C 97.355469 63.507812 97.867188 63.113281 98.355469 62.734375 C 99.542969 61.816406 100.570312 61.023438 101.46875 60.601562 C 101.667969 60.507812 101.898438 60.53125 102.074219 60.65625 C 102.253906 60.785156 102.34375 60.996094 102.320312 61.214844 C 101.378906 68.949219 97.8125 76.25 92.277344 81.777344 C 92.160156 81.894531 92.007812 81.953125 91.855469 81.953125 " fill-opacity="1" fill-rule="nonzero"/><path fill="#ff6ba6" d="M 84.8125 17.769531 C 84.8125 23.667969 74.117188 36.304688 74.117188 36.304688 C 74.117188 36.304688 63.421875 23.667969 63.421875 17.769531 C 63.421875 11.871094 68.207031 7.089844 74.117188 7.089844 C 80.023438 7.089844 84.8125 11.871094 84.8125 17.769531 " fill-opacity="1" fill-rule="nonzero"/><path fill="#ffffff" d="M 64.242188 18.746094 C 64.242188 12.847656 69.03125 8.066406 74.9375 8.066406 C 77.988281 8.066406 80.730469 9.347656 82.679688 11.394531 C 80.730469 8.785156 77.625 7.089844 74.117188 7.089844 C 68.207031 7.089844 63.421875 11.871094 63.421875 17.769531 C 63.421875 23.667969 74.117188 36.304688 74.117188 36.304688 C 74.117188 36.304688 74.125 36.296875 74.125 36.292969 C 71.636719 33.214844 64.242188 23.652344 64.242188 18.746094 " fill-opacity="1" fill-rule="nonzero"/><g clip-path="url(#5610fd6422)"><path fill="#1a2745" d="M 74.117188 7.6875 C 68.546875 7.6875 64.019531 12.210938 64.019531 17.769531 C 64.019531 22.703125 72.085938 32.882812 74.117188 35.367188 C 76.144531 32.882812 84.210938 22.703125 84.210938 17.769531 C 84.210938 12.210938 79.683594 7.6875 74.117188 7.6875 Z M 74.117188 36.90625 C 73.941406 36.90625 73.769531 36.828125 73.65625 36.691406 C 73.214844 36.167969 62.820312 23.816406 62.820312 17.769531 C 62.820312 11.550781 67.886719 6.492188 74.117188 6.492188 C 80.34375 6.492188 85.410156 11.550781 85.410156 17.769531 C 85.410156 23.816406 75.015625 36.167969 74.574219 36.691406 C 74.460938 36.828125 74.292969 36.90625 74.117188 36.90625 " fill-opacity="1" fill-rule="nonzero"/></g><path fill="#ffffff" d="M 79.601562 17.449219 C 79.601562 20.421875 77.1875 22.832031 74.207031 22.832031 C 71.230469 22.832031 68.8125 20.421875 68.8125 17.449219 C 68.8125 14.472656 71.230469 12.0625 74.207031 12.0625 C 77.1875 12.0625 79.601562 14.472656 79.601562 17.449219 " fill-opacity="1" fill-rule="nonzero"/><path fill="#edf2ff" d="M 78.195312 13.828125 C 78.527344 14.53125 78.722656 15.3125 78.722656 16.140625 C 78.722656 19.117188 76.308594 21.527344 73.328125 21.527344 C 71.746094 21.527344 70.328125 20.84375 69.34375 19.761719 C 70.210938 21.578125 72.058594 22.832031 74.207031 22.832031 C 77.1875 22.832031 79.601562 20.421875 79.601562 17.449219 C 79.601562 16.050781 79.066406 14.785156 78.195312 13.828125 " fill-opacity="1" fill-rule="nonzero"/><path fill="#ff6ba6" d="M 49.867188 43.308594 C 49.867188 47.992188 41.378906 58.019531 41.378906 58.019531 C 41.378906 58.019531 32.894531 47.992188 32.894531 43.308594 C 32.894531 38.628906 36.695312 34.835938 41.378906 34.835938 C 46.066406 34.835938 49.867188 38.628906 49.867188 43.308594 " fill-opacity="1" fill-rule="nonzero"/><path fill="#ffffff" d="M 33.714844 44.148438 C 33.714844 39.46875 37.515625 35.671875 42.199219 35.671875 C 44.511719 35.671875 46.601562 36.597656 48.132812 38.09375 C 46.582031 36.058594 44.140625 34.738281 41.378906 34.738281 C 36.695312 34.738281 32.894531 38.53125 32.894531 43.210938 C 32.894531 47.890625 41.378906 57.921875 41.378906 57.921875 C 41.378906 57.921875 41.390625 57.910156 41.410156 57.890625 C 39.300781 55.261719 33.714844 47.945312 33.714844 44.148438 " fill-opacity="1" fill-rule="nonzero"/><path fill="#1a2745" d="M 41.378906 35.433594 C 37.03125 35.433594 33.492188 38.96875 33.492188 43.308594 C 33.492188 47.109375 39.632812 54.929688 41.378906 57.078125 C 43.128906 54.929688 49.269531 47.109375 49.269531 43.308594 C 49.269531 38.96875 45.730469 35.433594 41.378906 35.433594 Z M 41.378906 58.617188 C 41.203125 58.617188 41.035156 58.539062 40.921875 58.40625 C 40.570312 57.988281 32.292969 48.152344 32.292969 43.308594 C 32.292969 38.308594 36.371094 34.238281 41.378906 34.238281 C 46.390625 34.238281 50.464844 38.308594 50.464844 43.308594 C 50.464844 48.152344 42.191406 57.988281 41.835938 58.40625 C 41.722656 58.539062 41.558594 58.617188 41.378906 58.617188 " fill-opacity="1" fill-rule="nonzero"/><path fill="#ffffff" d="M 45.734375 43.054688 C 45.734375 45.414062 43.816406 47.328125 41.453125 47.328125 C 39.089844 47.328125 37.171875 45.414062 37.171875 43.054688 C 37.171875 40.695312 39.089844 38.78125 41.453125 38.78125 C 43.816406 38.78125 45.734375 40.695312 45.734375 43.054688 " fill-opacity="1" fill-rule="nonzero"/><path fill="#edf2ff" d="M 44.453125 40.007812 C 44.789062 40.617188 44.988281 41.324219 44.988281 42.074219 C 44.988281 44.433594 43.070312 46.347656 40.707031 46.347656 C 39.539062 46.347656 38.480469 45.878906 37.707031 45.121094 C 38.4375 46.4375 39.839844 47.328125 41.453125 47.328125 C 43.816406 47.328125 45.734375 45.414062 45.734375 43.054688 C 45.734375 41.859375 45.242188 40.78125 44.453125 40.007812 " fill-opacity="1" fill-rule="nonzero"/><path fill="#ffd070" d="M 92.769531 54 L 55.460938 54 C 54.195312 54 53.164062 52.976562 53.164062 51.707031 L 53.164062 44.363281 C 53.164062 43.097656 54.195312 42.074219 55.460938 42.074219 L 92.769531 42.074219 C 94.039062 42.074219 95.066406 43.097656 95.066406 44.363281 L 95.066406 51.707031 C 95.066406 52.976562 94.039062 54 92.769531 54 " fill-opacity="1" fill-rule="nonzero"/><path fill="#ffffff" d="M 54.457031 44.960938 C 54.457031 44.078125 55.171875 43.363281 56.058594 43.363281 L 94.753906 43.363281 C 94.796875 43.363281 94.835938 43.371094 94.878906 43.375 C 94.527344 42.558594 93.714844 41.984375 92.769531 41.984375 L 55.460938 41.984375 C 54.195312 41.984375 53.164062 43.011719 53.164062 44.277344 L 53.164062 51.621094 C 53.164062 52.523438 53.695312 53.296875 54.457031 53.671875 L 54.457031 44.960938 " fill-opacity="1" fill-rule="nonzero"/><path fill="#1a2745" d="M 55.460938 42.671875 C 54.527344 42.671875 53.765625 43.429688 53.765625 44.367188 L 53.765625 51.707031 C 53.765625 52.644531 54.527344 53.402344 55.460938 53.402344 L 92.769531 53.402344 C 93.707031 53.402344 94.464844 52.644531 94.464844 51.707031 L 94.464844 44.367188 C 94.464844 43.429688 93.707031 42.671875 92.769531 42.671875 Z M 92.769531 54.597656 L 55.460938 54.597656 C 53.867188 54.597656 52.566406 53.300781 52.566406 51.707031 L 52.566406 44.367188 C 52.566406 42.773438 53.867188 41.472656 55.460938 41.472656 L 92.769531 41.472656 C 94.367188 41.472656 95.664062 42.773438 95.664062 44.367188 L 95.664062 51.707031 C 95.664062 53.300781 94.367188 54.597656 92.769531 54.597656 " fill-opacity="1" fill-rule="nonzero"/><path fill="#1a2745" d="M 86.695312 47.023438 L 61.105469 47.023438 C 60.773438 47.023438 60.507812 46.757812 60.507812 46.425781 C 60.507812 46.097656 60.773438 45.828125 61.105469 45.828125 L 86.695312 45.828125 C 87.027344 45.828125 87.296875 46.097656 87.296875 46.425781 C 87.296875 46.757812 87.027344 47.023438 86.695312 47.023438 " fill-opacity="1" fill-rule="nonzero"/><path fill="#1a2745" d="M 71.40625 50.769531 L 61.105469 50.769531 C 60.773438 50.769531 60.507812 50.503906 60.507812 50.171875 C 60.507812 49.839844 60.773438 49.574219 61.105469 49.574219 L 71.40625 49.574219 C 71.738281 49.574219 72.007812 49.839844 72.007812 50.171875 C 72.007812 50.503906 71.738281 50.769531 71.40625 50.769531 " fill-opacity="1" fill-rule="nonzero"/><path fill="#ffd070" d="M 33.054688 84.847656 C 33.054688 84.847656 32.792969 92.746094 34.886719 93.265625 C 36.6875 93.714844 39.808594 93.421875 39.136719 91.402344 C 37.941406 87.800781 38.851562 82.820312 38.851562 82.820312 L 33.054688 84.847656 " fill-opacity="1" fill-rule="nonzero"/><path fill="#ffffff" d="M 35.953125 93.371094 C 33.863281 92.847656 34.121094 84.949219 34.121094 84.949219 L 38.773438 83.324219 C 38.820312 83.003906 38.851562 82.820312 38.851562 82.820312 L 33.054688 84.847656 C 33.054688 84.847656 32.792969 92.746094 34.886719 93.265625 C 35.308594 93.371094 35.808594 93.433594 36.3125 93.445312 C 36.1875 93.421875 36.070312 93.398438 35.953125 93.371094 " fill-opacity="1" fill-rule="nonzero"/><path fill="#1a2745" d="M 33.640625 85.273438 C 33.574219 88.746094 34.097656 92.453125 35.03125 92.6875 C 36.21875 92.984375 37.949219 92.882812 38.480469 92.304688 C 38.59375 92.1875 38.703125 91.996094 38.570312 91.589844 C 37.652344 88.835938 37.910156 85.386719 38.117188 83.710938 Z M 35.710938 94.007812 C 35.351562 93.972656 35.019531 93.917969 34.742188 93.847656 C 32.363281 93.257812 32.390625 86.792969 32.457031 84.828125 C 32.464844 84.578125 32.621094 84.363281 32.855469 84.28125 L 38.65625 82.253906 C 38.855469 82.183594 39.078125 82.226562 39.242188 82.363281 C 39.40625 82.503906 39.480469 82.714844 39.441406 82.925781 C 39.433594 82.976562 38.574219 87.804688 39.707031 91.214844 C 39.949219 91.945312 39.824219 92.621094 39.359375 93.121094 C 38.558594 93.980469 36.964844 94.128906 35.710938 94.007812 " fill-opacity="1" fill-rule="nonzero"/><path fill="#ffd070" d="M 44.980469 80.601562 L 33.320312 84.820312 C 31.128906 85.613281 28.710938 84.484375 27.914062 82.292969 L 27.144531 80.167969 C 26.351562 77.980469 27.480469 75.5625 29.671875 74.769531 L 41.335938 70.550781 L 44.980469 80.601562 " fill-opacity="1" fill-rule="nonzero"/><path fill="#ffffff" d="M 27.824219 81.226562 C 27.03125 79.039062 28.164062 76.625 30.355469 75.828125 L 41.8125 71.683594 L 41.347656 70.40625 L 29.6875 74.625 C 27.496094 75.417969 26.363281 77.835938 27.15625 80.023438 L 27.929688 82.148438 C 28.089844 82.585938 28.3125 82.980469 28.585938 83.324219 L 27.824219 81.226562 " fill-opacity="1" fill-rule="nonzero"/><path fill="#1a2745" d="M 40.976562 71.316406 L 29.878906 75.332031 C 28 76.011719 27.027344 78.089844 27.707031 79.964844 L 28.480469 82.089844 C 29.15625 83.964844 31.238281 84.9375 33.117188 84.257812 L 44.214844 80.242188 Z M 31.425781 85.652344 C 29.628906 85.476562 28.003906 84.300781 27.351562 82.5 L 26.578125 80.371094 C 25.675781 77.875 26.972656 75.113281 29.46875 74.207031 L 41.128906 69.988281 C 41.441406 69.878906 41.785156 70.039062 41.898438 70.347656 L 45.546875 80.398438 C 45.597656 80.546875 45.589844 80.710938 45.523438 80.855469 C 45.457031 81 45.335938 81.109375 45.183594 81.164062 L 33.523438 85.382812 C 32.832031 85.636719 32.113281 85.71875 31.425781 85.652344 " fill-opacity="1" fill-rule="nonzero"/><path fill="#ffd070" d="M 62.273438 84.390625 L 45.496094 82.234375 C 42.425781 81.839844 39.859375 79.710938 38.914062 76.769531 C 38 73.933594 38.746094 70.828125 40.84375 68.714844 L 52.332031 57.148438 L 62.273438 84.390625 " fill-opacity="1" fill-rule="nonzero"/><path fill="#ffffff" d="M 39.738281 77.578125 C 38.824219 74.742188 39.566406 71.636719 41.667969 69.519531 L 52.769531 58.347656 L 52.332031 57.148438 L 40.84375 68.714844 C 38.746094 70.828125 38 73.933594 38.910156 76.769531 C 39.378906 78.214844 40.238281 79.464844 41.355469 80.410156 C 40.640625 79.601562 40.082031 78.644531 39.738281 77.578125 " fill-opacity="1" fill-rule="nonzero"/><path fill="#1a2745" d="M 52.09375 58.238281 L 41.269531 69.136719 C 39.320312 71.097656 38.632812 73.953125 39.484375 76.585938 C 40.355469 79.292969 42.746094 81.277344 45.574219 81.640625 L 61.371094 83.671875 Z M 62.214844 84.984375 C 62.207031 84.984375 62.203125 84.984375 62.195312 84.984375 L 45.421875 82.828125 C 42.132812 82.40625 39.355469 80.101562 38.339844 76.953125 C 37.355469 73.890625 38.152344 70.574219 40.417969 68.292969 L 51.910156 56.726562 C 52.050781 56.582031 52.257812 56.519531 52.460938 56.5625 C 52.664062 56.605469 52.828125 56.75 52.898438 56.941406 L 62.835938 84.183594 C 62.90625 84.382812 62.871094 84.601562 62.742188 84.761719 C 62.613281 84.921875 62.414062 85.003906 62.214844 84.984375 " fill-opacity="1" fill-rule="nonzero"/><path fill="#ffd070" d="M 62.808594 84.222656 C 61.105469 84.882812 58.144531 81.515625 55.550781 76.289062 C 54.914062 75.011719 54.304688 73.628906 53.738281 72.164062 C 53.265625 70.941406 52.851562 69.75 52.511719 68.589844 C 50.710938 62.652344 50.5625 57.832031 52.332031 57.148438 C 54.453125 56.332031 59.222656 61.710938 62.113281 69.1875 C 65.003906 76.664062 64.925781 83.410156 62.808594 84.222656 " fill-opacity="1" fill-rule="nonzero"/><path fill="#ffffff" d="M 52.984375 69.882812 C 51.183594 63.945312 51.03125 59.125 52.804688 58.445312 C 54.921875 57.625 59.691406 63.003906 62.582031 70.476562 C 62.4375 70.050781 62.28125 69.621094 62.113281 69.1875 C 59.222656 61.710938 54.453125 56.332031 52.332031 57.148438 C 50.5625 57.832031 50.710938 62.652344 52.511719 68.589844 C 52.800781 69.574219 53.152344 70.59375 53.539062 71.625 C 53.335938 71.035156 53.152344 70.457031 52.984375 69.882812 " fill-opacity="1" fill-rule="nonzero"/><path fill="#1a2745" d="M 52.898438 57.671875 C 52.761719 57.65625 52.644531 57.671875 52.546875 57.707031 C 51.539062 58.097656 51.042969 61.675781 53.085938 68.417969 C 53.414062 69.535156 53.824219 70.722656 54.296875 71.949219 C 54.835938 73.351562 55.441406 74.722656 56.085938 76.023438 C 58.734375 81.355469 61.464844 84.105469 62.589844 83.664062 L 62.59375 83.664062 C 63.171875 83.441406 63.820312 82.144531 63.738281 79.222656 C 63.65625 76.324219 62.882812 72.835938 61.554688 69.402344 C 60.234375 65.996094 58.382812 62.730469 56.472656 60.441406 C 54.910156 58.570312 53.632812 57.742188 52.898438 57.671875 Z M 62.15625 84.894531 C 59.851562 84.671875 57.03125 80.621094 55.011719 76.554688 C 54.347656 75.21875 53.730469 73.816406 53.175781 72.378906 C 52.691406 71.125 52.273438 69.90625 51.9375 68.761719 C 50.421875 63.765625 49.558594 57.574219 52.117188 56.589844 C 53.433594 56.085938 55.308594 57.179688 57.394531 59.675781 C 59.414062 62.09375 61.289062 65.394531 62.671875 68.972656 C 64.046875 72.527344 64.851562 76.15625 64.9375 79.1875 C 65.023438 82.285156 64.34375 84.273438 63.023438 84.78125 C 62.746094 84.890625 62.453125 84.921875 62.15625 84.894531 " fill-opacity="1" fill-rule="nonzero"/><path fill="#ffffff" d="M 59.402344 71.96875 C 59.425781 74.207031 57.738281 76.0625 55.550781 76.289062 C 54.914062 75.011719 54.304688 73.628906 53.738281 72.164062 C 53.265625 70.941406 52.851562 69.75 52.511719 68.589844 C 53.222656 68.054688 54.097656 67.734375 55.054688 67.726562 C 57.433594 67.699219 59.378906 69.601562 59.402344 71.96875 " fill-opacity="1" fill-rule="nonzero"/><path fill="#edf2ff" d="M 59.402344 71.96875 C 59.394531 71.140625 59.144531 70.375 58.730469 69.722656 C 58.734375 69.777344 58.742188 69.832031 58.742188 69.890625 C 58.742188 69.914062 58.742188 69.933594 58.742188 69.957031 C 58.726562 72.949219 54.519531 73.65625 53.394531 70.882812 C 53.285156 70.617188 53.179688 70.351562 53.078125 70.082031 C 52.878906 69.578125 52.703125 69.078125 52.527344 68.582031 C 52.523438 68.585938 52.515625 68.589844 52.511719 68.589844 C 52.851562 69.75 53.265625 70.941406 53.738281 72.164062 C 54.304688 73.628906 54.914062 75.011719 55.550781 76.289062 C 57.738281 76.0625 59.425781 74.207031 59.402344 71.96875 " fill-opacity="1" fill-rule="nonzero"/><path fill="#1a2745" d="M 53.210938 68.839844 C 53.519531 69.832031 53.882812 70.875 54.296875 71.949219 C 54.785156 73.210938 55.320312 74.445312 55.894531 75.628906 C 57.597656 75.261719 58.820312 73.761719 58.804688 71.976562 C 58.792969 70.992188 58.398438 70.070312 57.691406 69.378906 C 56.984375 68.6875 56.058594 68.3125 55.0625 68.324219 C 54.402344 68.332031 53.773438 68.507812 53.210938 68.839844 Z M 55.492188 76.882812 C 55.289062 76.863281 55.105469 76.742188 55.011719 76.554688 C 54.347656 75.21875 53.730469 73.816406 53.175781 72.378906 C 52.691406 71.125 52.273438 69.90625 51.9375 68.761719 C 51.867188 68.523438 51.949219 68.265625 52.152344 68.113281 C 52.992188 67.480469 53.996094 67.136719 55.050781 67.125 C 56.359375 67.113281 57.597656 67.609375 58.53125 68.523438 C 59.464844 69.4375 59.988281 70.660156 60 71.964844 C 60.027344 74.507812 58.140625 76.621094 55.609375 76.882812 C 55.570312 76.886719 55.53125 76.886719 55.492188 76.882812 " fill-opacity="1" fill-rule="nonzero"/><path fill="#ff6ba6" d="M 107.113281 71.050781 C 107.113281 77.398438 101.957031 82.546875 95.601562 82.546875 C 89.242188 82.546875 84.085938 77.398438 84.085938 71.050781 C 84.085938 64.703125 89.242188 59.554688 95.601562 59.554688 C 101.957031 59.554688 107.113281 64.703125 107.113281 71.050781 " fill-opacity="1" fill-rule="nonzero"/><path fill="#ffffff" d="M 85.082031 71.972656 C 85.082031 65.625 90.238281 60.480469 96.597656 60.480469 C 99.359375 60.480469 101.890625 61.449219 103.875 63.070312 C 101.78125 60.90625 98.851562 59.554688 95.601562 59.554688 C 89.242188 59.554688 84.085938 64.703125 84.085938 71.050781 C 84.085938 74.640625 85.738281 77.847656 88.320312 79.953125 C 86.320312 77.886719 85.082031 75.074219 85.082031 71.972656 " fill-opacity="1" fill-rule="nonzero"/><path fill="#1a2745" d="M 95.601562 60.152344 C 89.582031 60.152344 84.6875 65.042969 84.6875 71.050781 C 84.6875 77.058594 89.582031 81.949219 95.601562 81.949219 C 101.617188 81.949219 106.511719 77.058594 106.511719 71.050781 C 106.511719 65.042969 101.617188 60.152344 95.601562 60.152344 Z M 95.601562 83.144531 C 88.921875 83.144531 83.488281 77.71875 83.488281 71.050781 C 83.488281 64.382812 88.921875 58.957031 95.601562 58.957031 C 102.277344 58.957031 107.710938 64.382812 107.710938 71.050781 C 107.710938 77.71875 102.277344 83.144531 95.601562 83.144531 " fill-opacity="1" fill-rule="nonzero"/><path fill="#ffffff" d="M 98.835938 71.050781 C 98.835938 72.835938 97.386719 74.28125 95.601562 74.28125 C 93.8125 74.28125 92.363281 72.835938 92.363281 71.050781 C 92.363281 69.265625 93.8125 67.820312 95.601562 67.820312 C 97.386719 67.820312 98.835938 69.265625 98.835938 71.050781 " fill-opacity="1" fill-rule="nonzero"/><path fill="#edf2ff" d="M 97.851562 68.738281 C 98.089844 69.1875 98.234375 69.6875 98.234375 70.230469 C 98.234375 72.015625 96.785156 73.460938 95 73.460938 C 94.121094 73.460938 93.328125 73.109375 92.746094 72.542969 C 93.289062 73.570312 94.355469 74.28125 95.601562 74.28125 C 97.386719 74.28125 98.835938 72.835938 98.835938 71.050781 C 98.835938 70.140625 98.457031 69.324219 97.851562 68.738281 " fill-opacity="1" fill-rule="nonzero"/><g clip-path="url(#056d16df73)"><path fill="#8aa0ff" d="M 95.96875 98.152344 L 95.230469 98.152344 C 94.394531 98.152344 93.714844 97.472656 93.714844 96.640625 L 93.714844 88.746094 C 93.714844 87.910156 94.394531 87.234375 95.230469 87.234375 L 95.96875 87.234375 C 96.804688 87.234375 97.484375 87.910156 97.484375 88.746094 L 97.484375 96.640625 C 97.484375 97.472656 96.804688 98.152344 95.96875 98.152344 " fill-opacity="1" fill-rule="nonzero"/><path fill="#ffffff" d="M 94.671875 97.753906 L 94.671875 88.996094 C 94.671875 88.402344 95.15625 87.917969 95.753906 87.917969 L 97.234375 87.917969 C 96.964844 87.503906 96.5 87.234375 95.96875 87.234375 L 95.230469 87.234375 C 94.394531 87.234375 93.714844 87.910156 93.714844 88.746094 L 93.714844 96.640625 C 93.714844 97.296875 94.136719 97.847656 94.71875 98.058594 C 94.691406 97.960938 94.671875 97.859375 94.671875 97.753906 " fill-opacity="1" fill-rule="nonzero"/></g><g clip-path="url(#7d345b97d6)"><path fill="#1a2745" d="M 95.230469 87.832031 C 94.722656 87.832031 94.3125 88.242188 94.3125 88.746094 L 94.3125 96.640625 C 94.3125 97.144531 94.722656 97.554688 95.230469 97.554688 L 95.96875 97.554688 C 96.472656 97.554688 96.886719 97.144531 96.886719 96.640625 L 96.886719 88.746094 C 96.886719 88.242188 96.472656 87.832031 95.96875 87.832031 Z M 95.96875 98.75 L 95.230469 98.75 C 94.0625 98.75 93.117188 97.804688 93.117188 96.640625 L 93.117188 88.746094 C 93.117188 87.582031 94.0625 86.636719 95.230469 86.636719 L 95.96875 86.636719 C 97.136719 86.636719 98.082031 87.582031 98.082031 88.746094 L 98.082031 96.640625 C 98.082031 97.804688 97.136719 98.75 95.96875 98.75 " fill-opacity="1" fill-rule="nonzero"/></g><path fill="#1a2745" d="M 95.601562 87.832031 C 95.269531 87.832031 95 87.5625 95 87.234375 L 95 82.546875 C 95 82.214844 95.269531 81.949219 95.601562 81.949219 C 95.929688 81.949219 96.199219 82.214844 96.199219 82.546875 L 96.199219 87.234375 C 96.199219 87.5625 95.929688 87.832031 95.601562 87.832031 " fill-opacity="1" fill-rule="nonzero"/><path fill="#1a2745" d="M 95.601562 71.648438 C 95.378906 71.648438 95.167969 71.527344 95.0625 71.320312 C 94.914062 71.023438 95.035156 70.664062 95.332031 70.515625 L 118.21875 59.019531 C 118.515625 58.871094 118.875 58.992188 119.023438 59.285156 C 119.171875 59.582031 119.054688 59.941406 118.757812 60.089844 L 95.867188 71.585938 C 95.78125 71.628906 95.691406 71.648438 95.601562 71.648438 " fill-opacity="1" fill-rule="nonzero"/><g clip-path="url(#0c0deda1d5)"><path fill="#1a2745" d="M 122.363281 60.859375 C 122.328125 60.859375 122.292969 60.855469 122.257812 60.847656 L 118.378906 60.144531 C 118.210938 60.113281 118.066406 60.011719 117.976562 59.867188 C 117.886719 59.722656 117.863281 59.546875 117.914062 59.382812 L 119.101562 55.40625 C 119.195312 55.089844 119.527344 54.910156 119.847656 55.003906 C 120.164062 55.097656 120.34375 55.433594 120.25 55.75 L 119.253906 59.085938 L 122.472656 59.671875 C 122.796875 59.730469 123.011719 60.042969 122.953125 60.367188 C 122.898438 60.65625 122.648438 60.859375 122.363281 60.859375 " fill-opacity="1" fill-rule="nonzero"/></g><path fill="#1a2745" d="M 120.015625 63.179688 C 119.945312 63.179688 119.875 63.167969 119.804688 63.140625 L 115.480469 61.519531 C 115.195312 61.414062 115.035156 61.109375 115.109375 60.816406 L 116.3125 55.992188 C 116.390625 55.671875 116.714844 55.476562 117.039062 55.554688 C 117.359375 55.632812 117.554688 55.957031 117.476562 56.28125 L 116.402344 60.585938 L 120.226562 62.019531 C 120.535156 62.136719 120.695312 62.480469 120.578125 62.789062 C 120.488281 63.03125 120.257812 63.179688 120.015625 63.179688 " fill-opacity="1" fill-rule="nonzero"/></svg>