<svg xmlns="http://www.w3.org/2000/svg" xmlns:xlink="http://www.w3.org/1999/xlink" width="185" zoomAndPan="magnify" viewBox="0 0 138.75 104.999996" height="140" preserveAspectRatio="xMidYMid meet" version="1.0"><defs><clipPath id="3714dfeeae"><path d="M 52 15.84375 L 84 15.84375 L 84 26 L 52 26 Z M 52 15.84375 " clip-rule="nonzero"/></clipPath><clipPath id="1bddf7dfd4"><path d="M 89 68 L 110 68 L 110 94.59375 L 89 94.59375 Z M 89 68 " clip-rule="nonzero"/></clipPath><clipPath id="9e86b63a52"><path d="M 92 68 L 110 68 L 110 94.59375 L 92 94.59375 Z M 92 68 " clip-rule="nonzero"/></clipPath><clipPath id="8571a0e711"><path d="M 88.53125 67.902344 L 109.996094 67.902344 L 109.996094 94.589844 L 88.53125 94.589844 Z M 88.53125 67.902344 " clip-rule="nonzero"/></clipPath><clipPath id="005adc286d"><path d="M 33.523438 66 L 62 66 L 62 90 L 33.523438 90 Z M 33.523438 66 " clip-rule="nonzero"/></clipPath><clipPath id="62c4e856be"><path d="M 33.523438 44 L 57 44 L 57 74 L 33.523438 74 Z M 33.523438 44 " clip-rule="nonzero"/></clipPath></defs><path fill="#ffffff" d="M 92.191406 79.410156 L 43.957031 79.410156 C 42.484375 79.410156 41.285156 78.21875 41.285156 76.746094 L 41.285156 23.570312 C 41.285156 22.097656 42.484375 20.90625 43.957031 20.90625 L 92.191406 20.90625 C 93.667969 20.90625 94.863281 22.097656 94.863281 23.570312 L 94.863281 76.746094 C 94.863281 78.21875 93.667969 79.410156 92.191406 79.410156 " fill-opacity="1" fill-rule="nonzero"/><path fill="#e8f7ff" d="M 92.191406 20.90625 L 91.605469 20.90625 L 91.605469 55.714844 C 91.605469 66.617188 82.742188 75.453125 71.8125 75.453125 L 41.285156 75.453125 L 41.285156 76.746094 C 41.285156 78.21875 42.484375 79.410156 43.957031 79.410156 L 92.191406 79.410156 C 93.667969 79.410156 94.863281 78.21875 94.863281 76.746094 L 94.863281 23.570312 C 94.863281 22.097656 93.667969 20.90625 92.191406 20.90625 " fill-opacity="1" fill-rule="nonzero"/><path fill="#1a2745" d="M 43.957031 21.460938 C 42.792969 21.460938 41.839844 22.40625 41.839844 23.570312 L 41.839844 76.746094 C 41.839844 77.910156 42.792969 78.855469 43.957031 78.855469 L 92.191406 78.855469 C 93.359375 78.855469 94.308594 77.910156 94.308594 76.746094 L 94.308594 23.570312 C 94.308594 22.40625 93.359375 21.460938 92.191406 21.460938 Z M 92.191406 79.964844 L 43.957031 79.964844 C 42.179688 79.964844 40.730469 78.519531 40.730469 76.746094 L 40.730469 23.570312 C 40.730469 21.796875 42.179688 20.351562 43.957031 20.351562 L 92.191406 20.351562 C 93.972656 20.351562 95.417969 21.796875 95.417969 23.570312 L 95.417969 76.746094 C 95.417969 78.519531 93.972656 79.964844 92.191406 79.964844 " fill-opacity="1" fill-rule="nonzero"/><path fill="#afde78" d="M 82.292969 25.050781 L 53.363281 25.050781 C 53.171875 25.050781 53.015625 24.894531 53.015625 24.703125 L 53.015625 16.742188 C 53.015625 16.550781 53.171875 16.398438 53.363281 16.398438 L 82.292969 16.398438 C 82.484375 16.398438 82.640625 16.550781 82.640625 16.742188 L 82.640625 24.703125 C 82.640625 24.894531 82.484375 25.050781 82.292969 25.050781 " fill-opacity="1" fill-rule="nonzero"/><path fill="#9fd165" d="M 82.292969 16.398438 L 80.636719 16.398438 C 80.636719 19.5625 78.066406 22.125 74.894531 22.125 L 53.015625 22.125 L 53.015625 24.703125 C 53.015625 24.894531 53.171875 25.050781 53.363281 25.050781 L 82.292969 25.050781 C 82.484375 25.050781 82.640625 24.894531 82.640625 24.703125 L 82.640625 16.742188 C 82.640625 16.550781 82.484375 16.398438 82.292969 16.398438 " fill-opacity="1" fill-rule="nonzero"/><g clip-path="url(#3714dfeeae)"><path fill="#1a2745" d="M 53.570312 24.496094 L 82.085938 24.496094 L 82.085938 16.949219 L 53.570312 16.949219 Z M 82.292969 25.605469 L 53.363281 25.605469 C 52.867188 25.605469 52.460938 25.199219 52.460938 24.703125 L 52.460938 16.742188 C 52.460938 16.246094 52.867188 15.84375 53.363281 15.84375 L 82.292969 15.84375 C 82.789062 15.84375 83.195312 16.246094 83.195312 16.742188 L 83.195312 24.703125 C 83.195312 25.199219 82.789062 25.605469 82.292969 25.605469 " fill-opacity="1" fill-rule="nonzero"/></g><path fill="#1a2745" d="M 67.765625 38.847656 L 51.570312 38.847656 C 51.261719 38.847656 51.015625 38.597656 51.015625 38.292969 C 51.015625 37.988281 51.261719 37.738281 51.570312 37.738281 L 67.765625 37.738281 C 68.074219 37.738281 68.320312 37.988281 68.320312 38.292969 C 68.320312 38.597656 68.074219 38.847656 67.765625 38.847656 " fill-opacity="1" fill-rule="nonzero"/><path fill="#1a2745" d="M 68.960938 48.753906 L 51.570312 48.753906 C 51.261719 48.753906 51.015625 48.503906 51.015625 48.199219 C 51.015625 47.894531 51.261719 47.644531 51.570312 47.644531 L 68.960938 47.644531 C 69.269531 47.644531 69.515625 47.894531 69.515625 48.199219 C 69.515625 48.503906 69.269531 48.753906 68.960938 48.753906 " fill-opacity="1" fill-rule="nonzero"/><path fill="#1a2745" d="M 68.960938 59.03125 L 51.570312 59.03125 C 51.261719 59.03125 51.015625 58.785156 51.015625 58.480469 C 51.015625 58.171875 51.261719 57.925781 51.570312 57.925781 L 68.960938 57.925781 C 69.269531 57.925781 69.515625 58.171875 69.515625 58.480469 C 69.515625 58.785156 69.269531 59.03125 68.960938 59.03125 " fill-opacity="1" fill-rule="nonzero"/><path fill="#1a2745" d="M 66.203125 68.722656 L 51.570312 68.722656 C 51.261719 68.722656 51.015625 68.476562 51.015625 68.167969 C 51.015625 67.863281 51.261719 67.613281 51.570312 67.613281 L 66.203125 67.613281 C 66.507812 67.613281 66.757812 67.863281 66.757812 68.167969 C 66.757812 68.476562 66.507812 68.722656 66.203125 68.722656 " fill-opacity="1" fill-rule="nonzero"/><path fill="#1a2745" d="M 82.242188 38.847656 C 82.085938 38.847656 81.9375 38.78125 81.832031 38.667969 L 78.554688 35.113281 C 78.347656 34.886719 78.363281 34.535156 78.589844 34.328125 C 78.816406 34.121094 79.167969 34.136719 79.375 34.363281 L 82.195312 37.425781 L 85.589844 32.859375 C 85.773438 32.613281 86.121094 32.5625 86.367188 32.742188 C 86.613281 32.925781 86.664062 33.273438 86.480469 33.519531 L 82.6875 38.621094 C 82.589844 38.753906 82.4375 38.835938 82.269531 38.847656 C 82.261719 38.847656 82.25 38.847656 82.242188 38.847656 " fill-opacity="1" fill-rule="nonzero"/><path fill="#1a2745" d="M 82.242188 48.753906 C 82.085938 48.753906 81.9375 48.6875 81.832031 48.574219 L 78.554688 45.019531 C 78.347656 44.792969 78.363281 44.441406 78.589844 44.234375 C 78.816406 44.03125 79.167969 44.042969 79.375 44.269531 L 82.195312 47.332031 L 85.589844 42.765625 C 85.773438 42.519531 86.121094 42.46875 86.367188 42.652344 C 86.613281 42.832031 86.664062 43.179688 86.480469 43.425781 L 82.6875 48.527344 C 82.589844 48.664062 82.4375 48.746094 82.269531 48.753906 C 82.261719 48.753906 82.25 48.753906 82.242188 48.753906 " fill-opacity="1" fill-rule="nonzero"/><path fill="#1a2745" d="M 82.242188 59.03125 C 82.085938 59.03125 81.9375 58.96875 81.832031 58.855469 L 78.554688 55.300781 C 78.347656 55.074219 78.363281 54.722656 78.589844 54.515625 C 78.816406 54.308594 79.167969 54.324219 79.375 54.550781 L 82.195312 57.613281 L 85.589844 53.046875 C 85.773438 52.800781 86.121094 52.75 86.367188 52.929688 C 86.613281 53.113281 86.664062 53.460938 86.480469 53.707031 L 82.6875 58.808594 C 82.589844 58.941406 82.4375 59.023438 82.269531 59.03125 C 82.261719 59.03125 82.25 59.03125 82.242188 59.03125 " fill-opacity="1" fill-rule="nonzero"/><path fill="#1a2745" d="M 82.242188 68.722656 C 82.085938 68.722656 81.9375 68.65625 81.832031 68.542969 L 78.554688 64.988281 C 78.347656 64.761719 78.363281 64.410156 78.589844 64.207031 C 78.816406 64 79.167969 64.011719 79.375 64.238281 L 82.195312 67.300781 L 85.589844 62.734375 C 85.773438 62.488281 86.121094 62.4375 86.367188 62.621094 C 86.613281 62.800781 86.664062 63.148438 86.480469 63.394531 L 82.6875 68.5 C 82.589844 68.628906 82.4375 68.710938 82.269531 68.722656 C 82.261719 68.722656 82.25 68.722656 82.242188 68.722656 " fill-opacity="1" fill-rule="nonzero"/><g clip-path="url(#1bddf7dfd4)"><path fill="#afde78" d="M 104.824219 93.289062 L 89.214844 71.59375 L 93.496094 68.53125 L 109.101562 90.226562 C 109.683594 91.03125 109.5 92.152344 108.691406 92.730469 L 107.335938 93.699219 C 106.527344 94.277344 105.402344 94.09375 104.824219 93.289062 " fill-opacity="1" fill-rule="nonzero"/></g><g clip-path="url(#9e86b63a52)"><path fill="#9fd165" d="M 109.101562 90.226562 L 93.496094 68.53125 L 92.195312 69.457031 L 106.476562 89.308594 C 107.054688 90.113281 106.871094 91.238281 106.0625 91.8125 L 104.710938 92.785156 C 104.652344 92.824219 104.59375 92.851562 104.535156 92.882812 L 104.824219 93.289062 C 105.402344 94.09375 106.527344 94.277344 107.335938 93.699219 L 108.691406 92.730469 C 109.5 92.152344 109.683594 91.03125 109.101562 90.226562 " fill-opacity="1" fill-rule="nonzero"/></g><g clip-path="url(#8571a0e711)"><path fill="#1a2745" d="M 105.277344 92.964844 C 105.675781 93.519531 106.453125 93.648438 107.011719 93.25 L 108.367188 92.28125 C 108.921875 91.882812 109.050781 91.105469 108.652344 90.546875 L 93.367188 69.304688 L 89.992188 71.71875 Z M 106.289062 94.589844 C 105.554688 94.589844 104.832031 94.25 104.375 93.609375 L 88.765625 71.914062 C 88.679688 71.796875 88.644531 71.648438 88.667969 71.503906 C 88.691406 71.355469 88.773438 71.226562 88.894531 71.140625 L 93.171875 68.082031 C 93.421875 67.902344 93.769531 67.957031 93.949219 68.207031 L 109.554688 89.902344 C 110.3125 90.953125 110.070312 92.425781 109.015625 93.179688 L 107.660156 94.148438 C 107.246094 94.445312 106.765625 94.589844 106.289062 94.589844 " fill-opacity="1" fill-rule="nonzero"/></g><path fill="#ffffff" d="M 86.035156 63.066406 L 93.496094 68.53125 L 89.214844 71.59375 Z M 86.035156 63.066406 " fill-opacity="1" fill-rule="nonzero"/><path fill="#1a2745" d="M 87.203125 64.609375 L 89.484375 70.71875 L 92.550781 68.523438 Z M 89.214844 72.144531 C 89.164062 72.144531 89.105469 72.136719 89.054688 72.121094 C 88.890625 72.070312 88.757812 71.945312 88.695312 71.785156 L 85.515625 63.257812 C 85.429688 63.027344 85.503906 62.769531 85.703125 62.621094 C 85.898438 62.476562 86.167969 62.472656 86.363281 62.617188 L 93.824219 68.085938 C 93.96875 68.1875 94.054688 68.355469 94.050781 68.535156 C 94.050781 68.710938 93.964844 68.878906 93.820312 68.980469 L 89.539062 72.042969 C 89.445312 72.109375 89.332031 72.144531 89.214844 72.144531 " fill-opacity="1" fill-rule="nonzero"/><path fill="#57c1ff" d="M 56.273438 83.367188 C 58.898438 83.367188 61.023438 81.242188 61.023438 78.625 C 61.023438 76.007812 58.898438 73.886719 56.273438 73.886719 L 56.273438 67.328125 L 34.109375 67.328125 L 34.109375 89.015625 C 34.109375 89.246094 34.296875 89.429688 34.527344 89.429688 L 55.855469 89.429688 C 56.085938 89.429688 56.273438 89.246094 56.273438 89.015625 L 56.273438 83.367188 " fill-opacity="1" fill-rule="nonzero"/><path fill="#45b5f7" d="M 58.375 74.378906 C 58.539062 74.859375 58.628906 75.371094 58.628906 75.90625 C 58.628906 77.960938 57.316406 79.710938 55.480469 80.367188 C 54.511719 80.714844 53.878906 81.648438 53.878906 82.675781 L 53.878906 83.824219 C 53.878906 85.417969 52.582031 86.707031 50.984375 86.707031 L 34.109375 86.707031 L 34.109375 89.015625 C 34.109375 89.246094 34.296875 89.429688 34.527344 89.429688 L 55.855469 89.429688 C 56.085938 89.429688 56.273438 89.246094 56.273438 89.015625 L 56.273438 83.367188 C 58.898438 83.367188 61.023438 81.242188 61.023438 78.625 C 61.023438 76.761719 59.941406 75.15625 58.375 74.378906 " fill-opacity="1" fill-rule="nonzero"/><g clip-path="url(#005adc286d)"><path fill="#1a2745" d="M 34.664062 88.875 L 55.71875 88.875 L 55.71875 83.367188 C 55.71875 83.058594 55.964844 82.8125 56.273438 82.8125 C 58.585938 82.8125 60.46875 80.933594 60.46875 78.625 C 60.46875 76.320312 58.585938 74.441406 56.273438 74.441406 C 55.964844 74.441406 55.71875 74.191406 55.71875 73.886719 L 55.71875 67.882812 L 34.664062 67.882812 Z M 55.855469 89.984375 L 34.527344 89.984375 C 33.992188 89.984375 33.554688 89.550781 33.554688 89.015625 L 33.554688 67.328125 C 33.554688 67.023438 33.804688 66.777344 34.109375 66.777344 L 56.273438 66.777344 C 56.578125 66.777344 56.828125 67.023438 56.828125 67.328125 L 56.828125 73.363281 C 59.492188 73.640625 61.578125 75.894531 61.578125 78.625 C 61.578125 81.359375 59.492188 83.613281 56.828125 83.890625 L 56.828125 89.015625 C 56.828125 89.550781 56.390625 89.984375 55.855469 89.984375 " fill-opacity="1" fill-rule="nonzero"/></g><path fill="#ffd575" d="M 45.179688 72.773438 C 42.464844 72.773438 40.265625 70.335938 40.265625 67.328125 L 34.109375 67.328125 L 34.109375 61.390625 C 36.734375 61.390625 38.863281 59.265625 38.863281 56.648438 C 38.863281 54.03125 36.734375 51.914062 34.109375 51.914062 L 34.109375 45.742188 C 34.109375 45.457031 34.339844 45.226562 34.628906 45.226562 L 55.757812 45.226562 C 56.042969 45.226562 56.273438 45.457031 56.273438 45.742188 L 56.273438 67.328125 L 50.089844 67.328125 C 50.089844 70.335938 47.890625 72.773438 45.179688 72.773438 " fill-opacity="1" fill-rule="nonzero"/><path fill="#ffc35c" d="M 34.109375 49.597656 L 34.109375 51.914062 C 35.136719 51.914062 36.085938 52.242188 36.863281 52.792969 C 36.496094 51.351562 35.464844 50.167969 34.109375 49.597656 " fill-opacity="1" fill-rule="nonzero"/><path fill="#ffc35c" d="M 55.757812 45.226562 L 54.425781 45.226562 L 54.425781 60.777344 C 54.425781 62.910156 52.691406 64.640625 50.550781 64.640625 L 49.878906 64.640625 C 49.03125 64.640625 48.277344 65.210938 48.082031 66.03125 C 47.527344 68.367188 45.613281 70.089844 43.332031 70.089844 C 42.296875 70.089844 41.335938 69.734375 40.542969 69.125 C 41.214844 71.25 43.035156 72.773438 45.179688 72.773438 C 47.890625 72.773438 50.089844 70.335938 50.089844 67.328125 L 56.273438 67.328125 L 56.273438 45.742188 C 56.273438 45.457031 56.042969 45.226562 55.757812 45.226562 " fill-opacity="1" fill-rule="nonzero"/><g clip-path="url(#62c4e856be)"><path fill="#1a2745" d="M 34.664062 66.773438 L 40.265625 66.773438 C 40.570312 66.773438 40.820312 67.019531 40.820312 67.328125 C 40.820312 70.023438 42.773438 72.222656 45.179688 72.222656 C 47.578125 72.222656 49.535156 70.023438 49.535156 67.328125 C 49.535156 67.019531 49.78125 66.773438 50.089844 66.773438 L 55.71875 66.773438 L 55.71875 45.742188 L 34.625 45.78125 L 34.660156 51.386719 C 37.332031 51.664062 39.417969 53.917969 39.417969 56.648438 C 39.417969 59.382812 37.332031 61.636719 34.664062 61.914062 Z M 45.179688 73.328125 C 42.332031 73.328125 39.988281 70.929688 39.730469 67.878906 L 34.109375 67.878906 C 33.800781 67.878906 33.554688 67.632812 33.554688 67.328125 L 33.554688 61.390625 C 33.554688 61.085938 33.800781 60.835938 34.109375 60.835938 C 36.425781 60.835938 38.308594 58.957031 38.308594 56.648438 C 38.308594 54.34375 36.425781 52.464844 34.109375 52.464844 C 33.800781 52.464844 33.554688 52.21875 33.554688 51.914062 L 33.554688 45.742188 C 33.554688 45.152344 34.035156 44.671875 34.625 44.671875 L 55.757812 44.671875 C 56.347656 44.671875 56.828125 45.152344 56.828125 45.742188 L 56.828125 67.328125 C 56.828125 67.632812 56.582031 67.878906 56.273438 67.878906 L 50.621094 67.878906 C 50.367188 70.929688 48.023438 73.328125 45.179688 73.328125 " fill-opacity="1" fill-rule="nonzero"/></g></svg>