<svg xmlns="http://www.w3.org/2000/svg" xmlns:xlink="http://www.w3.org/1999/xlink" width="40" zoomAndPan="magnify" viewBox="0 0 30 30.000001" height="40" preserveAspectRatio="xMidYMid meet" version="1.0"><defs><clipPath id="bf7525694e"><path d="M 0.484375 0 L 29.515625 0 L 29.515625 29.03125 L 0.484375 29.03125 Z M 0.484375 0 " clip-rule="nonzero"/></clipPath><clipPath id="afe6954e4b"><path d="M 11 6.996094 L 19 6.996094 L 19 9 L 11 9 Z M 11 6.996094 " clip-rule="nonzero"/></clipPath><clipPath id="97a317b43f"><path d="M 11 8 L 20.433594 8 L 20.433594 22.238281 L 11 22.238281 Z M 11 8 " clip-rule="nonzero"/></clipPath><clipPath id="82b39c6bbb"><path d="M 9.546875 8 L 13 8 L 13 22.238281 L 9.546875 22.238281 Z M 9.546875 8 " clip-rule="nonzero"/></clipPath><clipPath id="fd10e5bca0"><path d="M 12 13 L 20.433594 13 L 20.433594 21 L 12 21 Z M 12 13 " clip-rule="nonzero"/></clipPath><clipPath id="3bfaedf639"><path d="M 9.546875 19 L 13 19 L 13 22.238281 L 9.546875 22.238281 Z M 9.546875 19 " clip-rule="nonzero"/></clipPath><clipPath id="c3de1bebcb"><path d="M 13 6.996094 L 17 6.996094 L 17 9 L 13 9 Z M 13 6.996094 " clip-rule="nonzero"/></clipPath><clipPath id="606df20886"><path d="M 9.546875 8 L 12 8 L 12 22 L 9.546875 22 Z M 9.546875 8 " clip-rule="nonzero"/></clipPath></defs><g clip-path="url(#bf7525694e)"><path fill="#ffffff" d="M 0.484375 0 L 29.515625 0 L 29.515625 36.289062 L 0.484375 36.289062 Z M 0.484375 0 " fill-opacity="1" fill-rule="nonzero"/><path fill="#ffffff" d="M 0.484375 0 L 29.515625 0 L 29.515625 29.03125 L 0.484375 29.03125 Z M 0.484375 0 " fill-opacity="1" fill-rule="nonzero"/><path fill="#ffffff" d="M 0.484375 0 L 29.515625 0 L 29.515625 29.03125 L 0.484375 29.03125 Z M 0.484375 0 " fill-opacity="1" fill-rule="nonzero"/></g><g clip-path="url(#afe6954e4b)"><path fill="#7d421a" d="M 18.875 8.046875 L 18.792969 8.253906 L 11.324219 8.277344 L 11.105469 8.046875 L 11.105469 6.996094 L 18.875 6.996094 L 18.875 8.046875 " fill-opacity="1" fill-rule="nonzero"/></g><g clip-path="url(#97a317b43f)"><path fill="#934d1c" d="M 20.429688 16.773438 L 20.429688 21.183594 L 12.660156 22.238281 L 11.105469 19.871094 L 11.105469 8.046875 L 18.875 8.046875 L 19.445312 9.976562 C 19.796875 11.160156 20.054688 12.367188 20.214844 13.585938 C 20.359375 14.640625 20.429688 15.707031 20.429688 16.773438 " fill-opacity="1" fill-rule="nonzero"/></g><g clip-path="url(#82b39c6bbb)"><path fill="#7ec487" d="M 12.660156 16.773438 L 12.660156 22.238281 L 9.550781 21.183594 L 9.550781 16.773438 C 9.550781 14.46875 9.882812 12.183594 10.535156 9.976562 L 11.105469 8.046875 L 11.675781 9.976562 C 12.328125 12.183594 12.660156 14.46875 12.660156 16.773438 " fill-opacity="1" fill-rule="nonzero"/></g><g clip-path="url(#fd10e5bca0)"><path fill="#ea9512" d="M 20.429688 16.773438 L 20.429688 19.082031 L 12.660156 20.132812 L 12.539062 14.363281 L 20.214844 13.585938 C 20.359375 14.640625 20.429688 15.707031 20.429688 16.773438 " fill-opacity="1" fill-rule="nonzero"/></g><path fill="#f03e3c" d="M 17.0625 10.410156 L 14.472656 10.671875 L 13.695312 8.046875 L 13.820312 7.847656 L 16.285156 8.046875 L 17.0625 10.410156 " fill-opacity="1" fill-rule="nonzero"/><path fill="#6f3b29" d="M 18.628906 18.171875 C 18.546875 18.21875 18.457031 18.246094 18.363281 18.261719 C 18.175781 18.296875 17.972656 18.265625 17.777344 18.183594 C 17.457031 18.050781 17.15625 17.773438 16.957031 17.398438 C 16.597656 16.71875 16.683594 15.953125 17.144531 15.613281 C 17.171875 15.59375 17.207031 15.570312 17.238281 15.554688 C 17.363281 15.484375 17.503906 15.449219 17.644531 15.449219 C 18.109375 15.441406 18.617188 15.773438 18.914062 16.328125 C 19.296875 17.050781 19.167969 17.875 18.628906 18.171875 " fill-opacity="1" fill-rule="nonzero"/><path fill="#8b4930" d="M 18.363281 18.261719 C 18.175781 18.296875 17.972656 18.265625 17.777344 18.183594 L 17.636719 17.921875 C 17.464844 17.597656 17.425781 17.226562 17.53125 16.871094 C 17.59375 16.652344 17.570312 16.421875 17.464844 16.222656 L 17.144531 15.613281 C 17.171875 15.59375 17.207031 15.570312 17.238281 15.554688 C 17.363281 15.484375 17.503906 15.449219 17.644531 15.449219 L 17.921875 15.972656 C 18.09375 16.296875 18.132812 16.671875 18.027344 17.023438 C 17.960938 17.242188 17.984375 17.472656 18.09375 17.671875 L 18.335938 18.128906 C 18.355469 18.171875 18.367188 18.21875 18.363281 18.261719 " fill-opacity="1" fill-rule="nonzero"/><path fill="#6f3b29" d="M 15.769531 18.058594 C 15.0625 18.457031 14.246094 18.339844 13.945312 17.796875 C 13.898438 17.710938 13.867188 17.621094 13.851562 17.527344 C 13.816406 17.335938 13.84375 17.128906 13.921875 16.929688 C 14.050781 16.605469 14.316406 16.296875 14.6875 16.085938 C 15.347656 15.710938 16.105469 15.792969 16.445312 16.25 C 16.46875 16.28125 16.488281 16.3125 16.507812 16.347656 C 16.578125 16.476562 16.613281 16.613281 16.617188 16.757812 C 16.632812 17.226562 16.308594 17.75 15.769531 18.058594 " fill-opacity="1" fill-rule="nonzero"/><path fill="#8b4930" d="M 16.617188 16.757812 L 16.101562 17.046875 C 15.785156 17.226562 15.417969 17.269531 15.070312 17.167969 C 14.855469 17.105469 14.628906 17.132812 14.429688 17.242188 L 13.984375 17.496094 C 13.945312 17.519531 13.902344 17.527344 13.859375 17.527344 C 13.855469 17.527344 13.855469 17.527344 13.851562 17.527344 C 13.816406 17.335938 13.84375 17.128906 13.921875 16.929688 L 14.179688 16.785156 C 14.496094 16.605469 14.863281 16.5625 15.210938 16.664062 C 15.425781 16.726562 15.652344 16.699219 15.851562 16.585938 L 16.445312 16.25 C 16.46875 16.28125 16.488281 16.3125 16.507812 16.347656 C 16.578125 16.476562 16.613281 16.613281 16.617188 16.757812 " fill-opacity="1" fill-rule="nonzero"/><g clip-path="url(#3bfaedf639)"><path fill="#568561" d="M 9.550781 21.183594 L 11.105469 19.871094 L 12.660156 22.238281 Z M 9.550781 21.183594 " fill-opacity="1" fill-rule="nonzero"/></g><g clip-path="url(#c3de1bebcb)"><path fill="#e03834" d="M 16.285156 8.046875 L 13.695312 8.046875 L 13.695312 6.996094 L 16.285156 6.996094 L 16.285156 8.046875 " fill-opacity="1" fill-rule="nonzero"/></g><g clip-path="url(#606df20886)"><path fill="#7abd84" d="M 11.105469 8.046875 L 11.105469 19.871094 L 9.550781 21.15625 L 9.550781 16.773438 C 9.550781 14.46875 9.882812 12.183594 10.535156 9.976562 L 11.105469 8.046875 " fill-opacity="1" fill-rule="nonzero"/></g></svg>