<svg xmlns="http://www.w3.org/2000/svg" xmlns:xlink="http://www.w3.org/1999/xlink" width="185" zoomAndPan="magnify" viewBox="0 0 138.75 104.999996" height="140" preserveAspectRatio="xMidYMid meet" version="1.0"><defs><clipPath id="c7d6478e04"><path d="M 18.140625 3 L 120.890625 3 L 120.890625 102 L 18.140625 102 Z M 18.140625 3 " clip-rule="nonzero"/></clipPath></defs><g clip-path="url(#c7d6478e04)"><path fill="#ffffff" d="M 106.621094 58.726562 C 107.417969 58.535156 108.1875 58.261719 108.929688 57.910156 L 109.511719 58.453125 C 109.652344 58.585938 109.816406 58.675781 110.003906 58.726562 C 110.1875 58.777344 110.375 58.785156 110.5625 58.742188 C 110.753906 58.703125 110.921875 58.617188 111.070312 58.496094 C 111.21875 58.371094 111.328125 58.21875 111.402344 58.042969 L 112.097656 56.351562 C 114.582031 50.328125 115.792969 45.070312 115.90625 39.804688 C 116.035156 33.695312 114.246094 31.027344 109.269531 28.265625 C 107.808594 27.445312 106.308594 26.710938 104.765625 26.058594 L 104.714844 24.867188 C 104.785156 24.796875 104.855469 24.722656 104.921875 24.652344 C 106.097656 24.457031 107.140625 23.765625 107.914062 22.660156 C 108.863281 21.296875 109.078125 20.03125 108.894531 18.996094 C 110.113281 16.71875 110.945312 13.460938 110.140625 10.996094 C 109.730469 9.6875 108.921875 8.703125 107.714844 8.054688 C 107.339844 7.449219 106.898438 6.894531 106.390625 6.398438 C 105.878906 5.902344 105.316406 5.476562 104.703125 5.121094 C 104.085938 4.765625 103.4375 4.492188 102.75 4.296875 C 102.066406 4.101562 101.371094 3.996094 100.660156 3.976562 C 99.234375 3.273438 97.6875 2.925781 96.140625 3.152344 C 95.273438 3.265625 94.476562 3.570312 93.753906 4.058594 C 93.027344 4.550781 92.453125 5.179688 92.023438 5.941406 C 91.289062 6.28125 90.660156 6.765625 90.140625 7.386719 C 89.621094 8.011719 89.257812 8.71875 89.054688 9.503906 C 88.039062 10.90625 87.804688 12.699219 88.917969 14.746094 C 88.53125 18.792969 88.996094 21.957031 90.273438 24.117188 C 87.777344 24.511719 85.367188 25.417969 83.484375 27.105469 C 81.5 28.886719 80.269531 31.222656 74.875 40.5625 C 74.589844 41.121094 74.632812 41.792969 74.515625 42.40625 C 69.226562 39.835938 64.351562 37.507812 60.574219 35.714844 C 60.628906 35.339844 60.589844 35.671875 61.136719 27.386719 C 61.171875 26.851562 61.121094 26.324219 60.988281 25.800781 C 60.851562 25.28125 60.640625 24.792969 60.347656 24.34375 C 60.054688 23.890625 59.699219 23.496094 59.28125 23.160156 C 58.863281 22.820312 58.402344 22.558594 57.898438 22.371094 L 78.738281 22.71875 L 80.386719 24.324219 C 82.621094 26.492188 86.367188 25.023438 86.558594 21.933594 L 87.324219 9.574219 C 87.347656 9.234375 87.332031 8.890625 87.285156 8.550781 C 87.234375 8.210938 87.152344 7.878906 87.035156 7.558594 C 86.917969 7.234375 86.769531 6.925781 86.589844 6.632812 C 86.410156 6.339844 86.203125 6.070312 85.96875 5.820312 C 85.730469 5.570312 85.472656 5.347656 85.191406 5.148438 C 84.910156 4.953125 84.613281 4.785156 84.296875 4.652344 C 83.984375 4.515625 83.65625 4.414062 83.320312 4.34375 C 82.984375 4.277344 82.644531 4.242188 82.300781 4.242188 L 52.800781 4.351562 C 52.457031 4.355469 52.121094 4.390625 51.785156 4.460938 C 51.449219 4.53125 51.125 4.636719 50.8125 4.773438 C 50.496094 4.910156 50.203125 5.078125 49.921875 5.277344 C 49.644531 5.472656 49.386719 5.699219 49.152344 5.949219 C 48.917969 6.199219 48.714844 6.46875 48.535156 6.761719 C 48.359375 7.054688 48.210938 7.363281 48.09375 7.6875 C 47.980469 8.007812 47.898438 8.339844 47.851562 8.679688 C 47.804688 9.019531 47.792969 9.359375 47.8125 9.699219 L 48.328125 17.601562 C 48.363281 18.097656 48.472656 18.574219 48.648438 19.039062 C 48.824219 19.503906 49.0625 19.933594 49.367188 20.328125 C 49.671875 20.71875 50.023438 21.0625 50.425781 21.351562 C 50.832031 21.640625 51.265625 21.863281 51.738281 22.023438 L 26.628906 21.933594 C 26.285156 21.933594 25.949219 21.96875 25.613281 22.035156 C 25.277344 22.105469 24.953125 22.210938 24.640625 22.347656 C 24.324219 22.480469 24.027344 22.648438 23.746094 22.84375 C 23.46875 23.042969 23.210938 23.265625 22.976562 23.515625 C 22.742188 23.765625 22.535156 24.035156 22.355469 24.328125 C 22.175781 24.621094 22.027344 24.925781 21.910156 25.25 C 21.796875 25.570312 21.714844 25.902344 21.664062 26.242188 C 21.617188 26.582031 21.601562 26.921875 21.621094 27.265625 L 22.390625 39.621094 C 22.40625 39.886719 22.453125 40.148438 22.527344 40.402344 C 22.601562 40.660156 22.703125 40.90625 22.828125 41.136719 C 22.957031 41.371094 23.109375 41.589844 23.285156 41.789062 C 23.460938 41.992188 23.652344 42.171875 23.867188 42.328125 C 24.082031 42.488281 24.3125 42.621094 24.554688 42.726562 C 24.796875 42.835938 25.050781 42.917969 25.3125 42.96875 C 25.574219 43.023438 25.835938 43.046875 26.101562 43.042969 C 26.367188 43.035156 26.632812 43.003906 26.890625 42.941406 L 18.140625 48.082031 L 18.414062 55.75 L 24.734375 60.007812 C 21.578125 60.851562 20.214844 62.8125 19.785156 63.164062 C 20.078125 97.765625 19.261719 41.863281 20.527344 98.507812 C 22.011719 98.554688 33.144531 99.238281 48.382812 99.003906 C 49.042969 99.484375 49.78125 99.667969 50.59375 99.558594 C 56.570312 102.613281 60.546875 101.722656 70.46875 90.800781 L 85.683594 101.046875 L 120.558594 75.460938 L 120.890625 67.359375 C 120.144531 66.878906 117.457031 64.640625 106.621094 58.726562 Z M 106.621094 58.726562 " fill-opacity="1" fill-rule="nonzero"/></g><path fill="#ffad92" d="M 79.148438 39.148438 L 77.6875 41.113281 C 76.992188 42.054688 76.71875 43.105469 76.875 44.265625 L 77.894531 51.859375 L 83.816406 54.636719 L 83 44.859375 L 83.816406 41.570312 Z M 79.148438 39.148438 " fill-opacity="1" fill-rule="nonzero"/><path fill="#ffb020" d="M 82.308594 6.691406 L 52.808594 6.796875 C 52.453125 6.800781 52.113281 6.871094 51.789062 7.011719 C 51.464844 7.15625 51.179688 7.355469 50.9375 7.617188 C 50.695312 7.875 50.515625 8.171875 50.394531 8.507812 C 50.277344 8.84375 50.230469 9.1875 50.253906 9.539062 L 50.769531 17.441406 C 50.789062 17.761719 50.867188 18.070312 51.003906 18.363281 C 51.140625 18.65625 51.328125 18.914062 51.5625 19.136719 C 51.792969 19.359375 52.0625 19.53125 52.359375 19.65625 C 52.660156 19.777344 52.96875 19.839844 53.292969 19.847656 L 79.746094 20.289062 L 82.089844 22.566406 C 82.257812 22.730469 82.453125 22.835938 82.683594 22.882812 C 82.914062 22.929688 83.136719 22.910156 83.355469 22.824219 C 83.574219 22.742188 83.753906 22.605469 83.890625 22.414062 C 84.03125 22.226562 84.105469 22.015625 84.121094 21.78125 L 84.886719 9.425781 C 84.910156 9.070312 84.859375 8.722656 84.738281 8.386719 C 84.617188 8.054688 84.433594 7.757812 84.191406 7.496094 C 83.945312 7.238281 83.660156 7.039062 83.335938 6.898438 C 83.007812 6.757812 82.667969 6.6875 82.308594 6.691406 Z M 82.308594 6.691406 " fill-opacity="1" fill-rule="nonzero"/><path fill="#ffffff" d="M 55.464844 9.867188 L 79.671875 9.867188 C 79.871094 9.867188 80.039062 9.9375 80.179688 10.078125 C 80.320312 10.21875 80.390625 10.390625 80.390625 10.589844 L 80.390625 11.695312 C 80.390625 11.894531 80.320312 12.066406 80.179688 12.207031 C 80.039062 12.347656 79.871094 12.417969 79.671875 12.417969 L 55.464844 12.417969 C 55.269531 12.417969 55.097656 12.347656 54.957031 12.207031 C 54.816406 12.066406 54.746094 11.894531 54.746094 11.695312 L 54.746094 10.589844 C 54.746094 10.390625 54.816406 10.21875 54.957031 10.078125 C 55.097656 9.9375 55.269531 9.867188 55.464844 9.867188 Z M 55.464844 9.867188 " fill-opacity="1" fill-rule="nonzero"/><path fill="#ffffff" d="M 55.464844 14.691406 L 79.671875 14.691406 C 79.871094 14.691406 80.039062 14.761719 80.179688 14.902344 C 80.320312 15.042969 80.390625 15.214844 80.390625 15.410156 L 80.390625 16.519531 C 80.390625 16.71875 80.320312 16.890625 80.179688 17.03125 C 80.039062 17.171875 79.871094 17.242188 79.671875 17.242188 L 55.464844 17.242188 C 55.269531 17.242188 55.097656 17.171875 54.957031 17.03125 C 54.816406 16.890625 54.746094 16.71875 54.746094 16.519531 L 54.746094 15.410156 C 54.746094 15.214844 54.816406 15.042969 54.957031 14.902344 C 55.097656 14.761719 55.269531 14.691406 55.464844 14.691406 Z M 55.464844 14.691406 " fill-opacity="1" fill-rule="nonzero"/><path fill="#00abfe" d="M 102.289062 61.214844 C 102.59375 57.390625 103.042969 53.585938 103.636719 49.792969 C 105.867188 51.800781 107.726562 53.449219 109.839844 55.417969 C 111.941406 50.328125 113.347656 45.1875 113.460938 39.75 C 113.574219 34.570312 112.269531 32.726562 108.085938 30.40625 C 104.265625 28.289062 100.097656 26.515625 95.734375 26.480469 C 93.835938 26.234375 91.949219 26.289062 90.070312 26.640625 C 88.261719 26.996094 86.488281 27.699219 85.113281 28.929688 C 84.027344 29.902344 83.242188 31.160156 82.46875 32.398438 C 81.160156 34.5 79.386719 37.691406 78.136719 39.753906 C 80.390625 41.3125 82.46875 41.90625 83.816406 44.144531 C 84.449219 43.054688 84.398438 43.257812 84.996094 42.085938 C 84.617188 45.382812 84.238281 48.679688 84.371094 51.921875 L 95.523438 59.515625 C 96.511719 60.1875 97.515625 60.867188 98.644531 61.257812 C 99.863281 61.699219 101.082031 61.6875 102.289062 61.214844 Z M 102.289062 61.214844 " fill-opacity="1" fill-rule="nonzero"/><path fill="#ffad92" d="M 102.019531 22.066406 C 102.121094 24.082031 102.222656 26.097656 102.386719 28.191406 C 101.152344 29.59375 99.632812 30.535156 97.828125 31.023438 C 97.347656 31.148438 96.9375 30.507812 96.453125 30.410156 C 95.859375 30.292969 95.253906 30.640625 94.835938 30.203125 C 93.988281 29.3125 93.429688 28.148438 93.40625 26.996094 C 93.75 25.6875 94.210938 24.425781 94.785156 23.203125 C 97.207031 22.917969 99.597656 22.414062 102.019531 22.066406 Z M 102.019531 22.066406 " fill-opacity="1" fill-rule="nonzero"/><path fill="#ed6c4d" d="M 102.019531 22.066406 L 102.113281 23.925781 C 102.113281 23.925781 97.96875 26.332031 95.832031 26.042969 C 93.691406 25.753906 94.253906 24.421875 94.253906 24.421875 L 94.785156 23.203125 Z M 102.019531 22.066406 " fill-opacity="1" fill-rule="nonzero"/><path fill="#1d1d3d" d="M 105.386719 19.820312 C 107.863281 16.949219 109.527344 10.894531 105.96875 9.984375 C 105.714844 9.425781 105.382812 8.914062 104.972656 8.457031 C 104.566406 7.996094 104.097656 7.609375 103.570312 7.292969 C 103.042969 6.976562 102.484375 6.742188 101.886719 6.597656 C 101.289062 6.453125 100.683594 6.398438 100.070312 6.4375 C 98.992188 5.808594 97.730469 5.394531 96.496094 5.574219 C 95.257812 5.753906 94.074219 6.640625 93.921875 7.894531 C 92.519531 8.097656 91.34375 9.371094 91.382812 10.566406 C 89.753906 11.898438 91.207031 14.644531 92.539062 14.945312 C 99.292969 15.125 99.714844 15.050781 100.550781 15.484375 C 101.445312 15.949219 101.96875 16.945312 102.085938 17.941406 C 102.152344 18.523438 102.097656 19.121094 102.214844 19.695312 C 102.476562 21.019531 103.582031 21.472656 104.566406 20.699219 C 104.871094 20.433594 105.144531 20.140625 105.386719 19.820312 Z M 105.386719 19.820312 " fill-opacity="1" fill-rule="nonzero"/><path fill="#ffad92" d="M 91.742188 12.226562 C 91.742188 12.226562 89.089844 24.734375 95.9375 24.960938 C 102.785156 25.1875 103.648438 22.164062 103.648438 22.164062 C 103.648438 22.164062 104.902344 22.707031 105.910156 21.261719 C 106.917969 19.8125 106.632812 18.59375 105.320312 18.355469 L 103.578125 20.453125 L 103.53125 16.074219 L 102.445312 14.539062 L 102.195312 12.453125 C 102.195312 12.453125 99.222656 14.027344 98.152344 12.070312 C 98.152344 12.070312 95.546875 13.765625 94.792969 12.613281 C 94.792969 12.613281 91.742188 14.984375 91.742188 12.226562 Z M 91.742188 12.226562 " fill-opacity="1" fill-rule="nonzero"/><path fill="#ffffff" d="M 94.882812 21.085938 C 94.882812 21.085938 97.253906 21.46875 98.535156 20.949219 C 98.535156 20.949219 98.242188 23.195312 96.632812 23.070312 C 95.023438 22.945312 94.882812 21.085938 94.882812 21.085938 Z M 94.882812 21.085938 " fill-opacity="1" fill-rule="nonzero"/><path fill="#0071ff" d="M 92.070312 58.613281 C 91.917969 58.613281 91.792969 58.554688 91.6875 58.445312 C 91.585938 58.332031 91.542969 58.199219 91.558594 58.046875 C 92.484375 48.660156 93.878906 39.339844 95.742188 30.089844 C 95.769531 29.949219 95.839844 29.84375 95.960938 29.761719 C 96.078125 29.683594 96.207031 29.660156 96.347656 29.6875 C 96.484375 29.714844 96.59375 29.789062 96.671875 29.90625 C 96.75 30.027344 96.777344 30.15625 96.746094 30.292969 C 94.890625 39.507812 93.503906 48.792969 92.582031 58.148438 C 92.566406 58.28125 92.511719 58.390625 92.414062 58.480469 C 92.316406 58.566406 92.203125 58.613281 92.070312 58.613281 Z M 92.070312 58.613281 " fill-opacity="1" fill-rule="nonzero"/><path fill="#0071ff" d="M 102.332031 26.371094 C 100.578125 27.925781 98.617188 29.144531 96.453125 30.03125 C 97.351562 31.117188 97.992188 32.339844 98.375 33.699219 C 99.9375 31.753906 101.503906 29.8125 103.078125 27.875 C 102.6875 27.449219 102.355469 26.972656 102.332031 26.371094 Z M 102.332031 26.371094 " fill-opacity="1" fill-rule="nonzero"/><path fill="#0071ff" d="M 93.691406 25.753906 C 94.5 27.238281 95.421875 28.652344 96.457031 29.988281 L 93.660156 32.78125 C 93.167969 30.707031 92.730469 28.625 92.351562 26.527344 C 92.8125 26.292969 93.257812 26.035156 93.691406 25.753906 Z M 93.691406 25.753906 " fill-opacity="1" fill-rule="nonzero"/><path fill="#0071ff" d="M 84.996094 42.601562 C 84.84375 42.601562 84.714844 42.542969 84.613281 42.425781 C 84.507812 42.3125 84.46875 42.175781 84.488281 42.023438 L 85.53125 33.589844 C 85.546875 33.449219 85.613281 33.335938 85.722656 33.25 C 85.835938 33.164062 85.960938 33.128906 86.101562 33.144531 C 86.242188 33.164062 86.355469 33.226562 86.445312 33.339844 C 86.53125 33.449219 86.566406 33.578125 86.550781 33.71875 L 85.507812 42.148438 C 85.492188 42.277344 85.433594 42.386719 85.335938 42.472656 C 85.238281 42.558594 85.125 42.601562 84.996094 42.601562 Z M 84.996094 42.601562 " fill-opacity="1" fill-rule="nonzero"/><path fill="#0071ff" d="M 103.550781 50.476562 C 103.390625 50.476562 103.257812 50.414062 103.152344 50.289062 C 103.050781 50.164062 103.015625 50.023438 103.046875 49.863281 L 104.921875 40.496094 C 104.949219 40.355469 105.023438 40.246094 105.140625 40.167969 C 105.257812 40.089844 105.386719 40.066406 105.527344 40.09375 C 105.664062 40.121094 105.773438 40.195312 105.851562 40.3125 C 105.929688 40.429688 105.957031 40.558594 105.929688 40.699219 L 104.054688 50.066406 C 104.03125 50.183594 103.972656 50.285156 103.875 50.363281 C 103.78125 50.4375 103.671875 50.476562 103.550781 50.476562 Z M 103.550781 50.476562 " fill-opacity="1" fill-rule="nonzero"/><path fill="#eae5db" d="M 118.394531 68.589844 L 118.164062 74.183594 L 85.625 98.058594 L 20.8125 54.417969 L 20.632812 49.453125 L 48.8125 32.898438 C 48.8125 32.898438 103.964844 58.398438 118.394531 68.589844 Z M 118.394531 68.589844 " fill-opacity="1" fill-rule="nonzero"/><path fill="#b2aca3" d="M 118.394531 68.589844 L 118.164062 74.183594 L 85.625 98.058594 L 20.8125 54.417969 L 20.632812 49.453125 L 85.890625 92.589844 Z M 118.394531 68.589844 " fill-opacity="1" fill-rule="nonzero"/><path fill="#7ad001" d="M 26.640625 24.378906 L 56.140625 24.488281 C 56.496094 24.488281 56.835938 24.558594 57.160156 24.703125 C 57.484375 24.84375 57.769531 25.042969 58.011719 25.304688 C 58.253906 25.5625 58.433594 25.859375 58.554688 26.195312 C 58.671875 26.53125 58.71875 26.875 58.695312 27.230469 L 58.179688 35.128906 C 58.160156 35.453125 58.082031 35.757812 57.945312 36.050781 C 57.808594 36.34375 57.621094 36.601562 57.386719 36.824219 C 57.15625 37.046875 56.886719 37.222656 56.589844 37.34375 C 56.289062 37.464844 55.980469 37.53125 55.65625 37.535156 L 29.203125 37.980469 L 26.859375 40.257812 C 26.691406 40.417969 26.496094 40.523438 26.265625 40.570312 C 26.035156 40.617188 25.8125 40.597656 25.59375 40.515625 C 25.375 40.429688 25.195312 40.292969 25.058594 40.105469 C 24.917969 39.914062 24.84375 39.703125 24.828125 39.46875 L 24.0625 27.113281 C 24.039062 26.757812 24.089844 26.410156 24.210938 26.078125 C 24.332031 25.742188 24.515625 25.445312 24.757812 25.1875 C 25.003906 24.925781 25.289062 24.726562 25.613281 24.585938 C 25.941406 24.445312 26.28125 24.378906 26.640625 24.378906 Z M 26.640625 24.378906 " fill-opacity="1" fill-rule="nonzero"/><path fill="#ffffff" d="M 29.277344 27.558594 L 53.484375 27.558594 C 53.679688 27.558594 53.851562 27.628906 53.992188 27.769531 C 54.132812 27.910156 54.203125 28.078125 54.203125 28.277344 L 54.203125 29.386719 C 54.203125 29.585938 54.132812 29.753906 53.992188 29.894531 C 53.851562 30.035156 53.679688 30.105469 53.484375 30.105469 L 29.277344 30.105469 C 29.078125 30.105469 28.910156 30.035156 28.769531 29.894531 C 28.628906 29.753906 28.558594 29.585938 28.558594 29.386719 L 28.558594 28.277344 C 28.558594 28.078125 28.628906 27.910156 28.769531 27.769531 C 28.910156 27.628906 29.078125 27.558594 29.277344 27.558594 Z M 29.277344 27.558594 " fill-opacity="1" fill-rule="nonzero"/><path fill="#ffffff" d="M 29.277344 32.378906 L 53.484375 32.378906 C 53.679688 32.378906 53.851562 32.449219 53.992188 32.589844 C 54.132812 32.730469 54.203125 32.902344 54.203125 33.101562 L 54.203125 34.207031 C 54.203125 34.40625 54.132812 34.578125 53.992188 34.71875 C 53.851562 34.859375 53.679688 34.929688 53.484375 34.929688 L 29.277344 34.929688 C 29.078125 34.929688 28.910156 34.859375 28.769531 34.71875 C 28.628906 34.578125 28.558594 34.40625 28.558594 34.207031 L 28.558594 33.101562 C 28.558594 32.902344 28.628906 32.730469 28.769531 32.589844 C 28.910156 32.449219 29.078125 32.378906 29.277344 32.378906 Z M 29.277344 32.378906 " fill-opacity="1" fill-rule="nonzero"/><path fill="#ffad92" d="M 65.792969 82.023438 C 67.527344 80.554688 69.261719 79.089844 70.996094 77.570312 C 72.078125 75.746094 73.261719 73.832031 74.996094 72.691406 C 75.214844 72.550781 75.433594 72.550781 75.652344 72.691406 C 75.871094 72.832031 75.964844 73.03125 75.925781 73.289062 C 75.824219 74 75.585938 74.65625 75.203125 75.261719 C 77.429688 74.539062 79.460938 73.328125 81.457031 72.109375 C 81.664062 71.984375 81.914062 71.855469 82.128906 71.957031 C 82.355469 72.089844 82.429688 72.28125 82.351562 72.53125 C 82.28125 72.75 82.164062 72.9375 82 73.09375 C 81.128906 74.03125 80.183594 74.886719 79.164062 75.65625 L 83.347656 73.371094 C 83.613281 73.226562 83.941406 73.078125 84.210938 73.222656 C 84.335938 73.308594 84.421875 73.425781 84.460938 73.570312 C 84.503906 73.71875 84.492188 73.863281 84.429688 74.003906 C 84.300781 74.273438 84.109375 74.496094 83.859375 74.664062 C 82.730469 75.5625 81.457031 76.28125 80.101562 77.003906 C 81.402344 76.835938 82.636719 76.453125 83.804688 75.851562 C 84.175781 75.660156 84.882812 75.511719 84.996094 75.902344 C 85.136719 76.394531 84.628906 76.8125 84.175781 77.054688 C 82.984375 77.683594 81.703125 78.148438 80.226562 78.691406 L 82.910156 78.457031 C 83.125 78.410156 83.324219 78.449219 83.503906 78.578125 C 83.667969 78.773438 83.671875 78.976562 83.519531 79.183594 C 83.378906 79.359375 83.203125 79.484375 82.992188 79.558594 C 81.761719 80.09375 80.371094 80.058594 78.921875 80.039062 C 77.335938 80.871094 75.6875 81.71875 73.65625 81.96875 C 72.191406 83.585938 70.726562 85.207031 69.03125 86.769531 C 68.160156 85.046875 67.082031 83.464844 65.792969 82.023438 Z M 65.792969 82.023438 " fill-opacity="1" fill-rule="nonzero"/><path fill="#ed6c4d" d="M 78.160156 79.03125 C 78.003906 77.867188 77.664062 76.761719 77.144531 75.710938 C 77.078125 75.582031 77.070312 75.453125 77.117188 75.316406 C 77.160156 75.183594 77.246094 75.085938 77.375 75.023438 C 77.5 74.957031 77.632812 74.949219 77.765625 74.996094 C 77.902344 75.039062 78 75.125 78.0625 75.253906 C 78.632812 76.40625 79.003906 77.621094 79.175781 78.894531 C 79.195312 79.035156 79.160156 79.164062 79.074219 79.273438 C 78.988281 79.386719 78.875 79.453125 78.734375 79.472656 C 78.59375 79.492188 78.46875 79.457031 78.355469 79.371094 C 78.242188 79.285156 78.175781 79.171875 78.160156 79.03125 Z M 78.160156 79.03125 " fill-opacity="1" fill-rule="nonzero"/><path fill="#1d1d3d" d="M 50.667969 51.910156 C 52.65625 50.929688 54.171875 49.460938 55.214844 47.503906 C 53.621094 47.867188 52.0625 46.746094 51.039062 45.472656 C 48.644531 42.492188 48.585938 40.660156 42.59375 40.332031 C 39.476562 40.160156 36.691406 40.523438 35.65625 43.628906 C 34.277344 43.035156 31.261719 43.800781 31.5625 49.007812 C 31.785156 52.859375 33.335938 56.308594 34.761719 59.894531 C 35.492188 60.804688 35.894531 61.894531 36.875 62.535156 C 37.894531 63.199219 39.25 63.6875 40.589844 63.292969 C 41.105469 62.941406 41.355469 62.207031 41.960938 62.050781 C 42.160156 62.015625 42.359375 62.011719 42.558594 62.035156 C 43.164062 62.0625 43.757812 62 44.347656 61.851562 C 44.933594 61.703125 45.484375 61.472656 46.003906 61.160156 C 46.523438 60.847656 46.988281 60.46875 47.394531 60.023438 C 47.804688 59.574219 48.140625 59.078125 48.402344 58.53125 C 49.421875 56.320312 48.667969 52.890625 50.667969 51.910156 Z M 50.667969 51.910156 " fill-opacity="1" fill-rule="nonzero"/><path fill="#ffad92" d="M 42.640625 69.574219 C 42.691406 67.398438 42.742188 65.222656 42.664062 62.789062 C 42.265625 62.308594 42.28125 61.574219 41.851562 61.125 C 41.339844 60.589844 40.472656 60.710938 39.730469 60.75 C 38.035156 60.835938 36.382812 60.273438 34.761719 59.894531 C 33.746094 61.050781 32.804688 62.265625 31.933594 63.535156 C 33.136719 65.191406 34.601562 66.6875 36.363281 67.726562 C 38.128906 68.769531 40.207031 69.335938 42.640625 69.574219 Z M 42.640625 69.574219 " fill-opacity="1" fill-rule="nonzero"/><path fill="#ff605b" d="M 50.171875 96.527344 C 41.066406 96.710938 31.964844 96.589844 22.863281 96.164062 C 22.367188 85.757812 22.230469 74.960938 22.230469 64.167969 C 24.355469 62.003906 27.570312 61.707031 30.210938 62.492188 C 32.855469 63.273438 35.136719 64.921875 37.570312 66.214844 C 41.339844 68.21875 45.613281 69.460938 48.71875 72.386719 C 52.824219 76.253906 54.242188 82.4375 57.3125 88.90625 C 60.074219 86.152344 62.957031 83.519531 66.128906 81.164062 C 67.273438 81.761719 68.226562 82.585938 68.988281 83.628906 C 69.746094 84.675781 70.234375 85.835938 70.453125 87.109375 C 58.816406 101.027344 55.425781 99.65625 50.171875 96.527344 Z M 50.171875 96.527344 " fill-opacity="1" fill-rule="nonzero"/><path fill="#c72f55" d="M 49.746094 96.804688 L 43.808594 87.4375 C 43.734375 87.316406 43.710938 87.1875 43.742188 87.050781 C 43.773438 86.910156 43.847656 86.804688 43.96875 86.726562 C 44.085938 86.652344 44.214844 86.628906 44.355469 86.660156 C 44.492188 86.691406 44.601562 86.765625 44.675781 86.886719 L 50.613281 96.253906 C 50.691406 96.375 50.710938 96.503906 50.679688 96.640625 C 50.648438 96.777344 50.574219 96.886719 50.453125 96.960938 C 50.335938 97.039062 50.207031 97.058594 50.066406 97.03125 C 49.929688 97 49.824219 96.921875 49.746094 96.804688 Z M 49.746094 96.804688 " fill-opacity="1" fill-rule="nonzero"/><path fill="#c72f55" d="M 57.609375 90.617188 L 56.933594 89.019531 C 56.878906 88.886719 56.878906 88.757812 56.933594 88.625 C 56.984375 88.492188 57.078125 88.398438 57.207031 88.34375 C 57.339844 88.289062 57.46875 88.289062 57.601562 88.34375 C 57.734375 88.394531 57.824219 88.488281 57.882812 88.617188 L 58.554688 90.21875 C 58.609375 90.351562 58.609375 90.480469 58.558594 90.613281 C 58.503906 90.746094 58.414062 90.839844 58.28125 90.894531 C 58.148438 90.949219 58.019531 90.949219 57.886719 90.894531 C 57.757812 90.84375 57.664062 90.75 57.609375 90.617188 Z M 57.609375 90.617188 " fill-opacity="1" fill-rule="nonzero"/><path fill="#ffad92" d="M 42.101562 63.402344 C 43.710938 64.023438 45.613281 64.382812 47.105469 63.511719 C 48.527344 62.679688 49.160156 60.980469 49.628906 59.398438 C 50.484375 56.496094 51.128906 54.605469 51.292969 51.574219 C 50.238281 52.0625 49.539062 52.5 48.417969 53.648438 C 48.128906 55.566406 47.714844 57.457031 47.171875 59.316406 C 47 58.59375 46.988281 56.691406 45.691406 56.496094 C 44.9375 56.378906 44.265625 57.140625 44.234375 57.902344 C 44.203125 58.664062 44.636719 59.367188 45.160156 59.902344 C 44.324219 60.871094 43.289062 61.53125 42.058594 61.882812 C 42.015625 62.390625 42.03125 62.898438 42.101562 63.402344 Z M 42.101562 63.402344 " fill-opacity="1" fill-rule="nonzero"/><path fill="#c72f55" d="M 31.40625 62.910156 L 33.476562 61.441406 C 33.476562 61.441406 38.136719 64.183594 39.953125 64.898438 C 41.765625 65.609375 44.488281 67.6875 44.488281 67.6875 L 44.859375 69.699219 L 42.480469 68.5 C 42.480469 68.5 33.035156 66.144531 31.40625 62.910156 Z M 31.40625 62.910156 " fill-opacity="1" fill-rule="nonzero"/><path fill="#ffad92" d="M 109.09375 54.726562 C 108.289062 55.800781 106.730469 56.183594 105.429688 56.507812 C 101.253906 57.550781 97.078125 58.597656 92.902344 59.644531 C 91.417969 61.59375 89.382812 61.664062 87.582031 62.4375 C 87.109375 62.640625 86.652344 62.890625 86.148438 62.96875 C 85.640625 63.050781 85.058594 62.917969 84.777344 62.488281 C 83.941406 62.519531 83.644531 63.109375 83.046875 62.078125 C 82.796875 62.230469 82.527344 62.300781 82.234375 62.289062 C 81.945312 62.253906 81.730469 62.109375 81.582031 61.859375 C 81.433594 61.613281 81.53125 61.453125 81.710938 61.277344 C 81.980469 61.015625 82.273438 60.78125 82.589844 60.574219 C 82.195312 60.707031 81.78125 60.703125 81.65625 60.402344 C 81.652344 60.402344 81.652344 60.398438 81.652344 60.394531 C 81.539062 60.089844 81.839844 59.792969 82.113281 59.617188 C 83.515625 58.714844 85.078125 58.105469 86.632812 57.503906 C 86.234375 57.464844 86.070312 56.882812 86.371094 56.65625 C 86.472656 56.585938 86.585938 56.539062 86.707031 56.519531 C 88.171875 56.171875 89.589844 56.304688 90.964844 56.917969 C 95.367188 54.78125 99.644531 52.363281 103.550781 49.964844 C 105.816406 50.835938 107.914062 52.542969 109.09375 54.726562 Z M 109.09375 54.726562 " fill-opacity="1" fill-rule="nonzero"/><path fill="#ed6c4d" d="M 88.46875 61.382812 C 87.554688 60.671875 86.851562 59.789062 86.359375 58.742188 C 86.296875 58.613281 86.292969 58.484375 86.339844 58.347656 C 86.386719 58.214844 86.476562 58.117188 86.605469 58.058594 C 86.730469 57.996094 86.863281 57.988281 86.996094 58.039062 C 87.128906 58.085938 87.226562 58.175781 87.289062 58.304688 C 87.710938 59.203125 88.316406 59.960938 89.101562 60.574219 C 89.210938 60.660156 89.277344 60.773438 89.292969 60.914062 C 89.3125 61.054688 89.277344 61.183594 89.1875 61.292969 C 89.101562 61.40625 88.988281 61.46875 88.847656 61.488281 C 88.707031 61.503906 88.582031 61.46875 88.46875 61.382812 Z M 88.46875 61.382812 " fill-opacity="1" fill-rule="nonzero"/><path fill="#ed6c4d" d="M 86.996094 60.992188 L 84.777344 62.488281 C 84.253906 62.507812 83.871094 62.804688 83.515625 62.621094 Z M 86.996094 60.992188 " fill-opacity="1" fill-rule="nonzero"/><path fill="#ed6c4d" d="M 86.132812 60.234375 C 85.933594 60.355469 84.410156 61.273438 83.746094 61.566406 C 83.0625 61.871094 83.046875 62.066406 83.046875 62.078125 C 82.796875 62.230469 82.527344 62.300781 82.234375 62.289062 C 81.945312 62.253906 81.730469 62.109375 81.582031 61.859375 C 81.773438 61.855469 82.105469 62.089844 82.308594 62.078125 C 82.570312 62.058594 85.828125 60.390625 86.132812 60.234375 Z M 86.132812 60.234375 " fill-opacity="1" fill-rule="nonzero"/><path fill="#ed6c4d" d="M 85.582031 58.84375 L 84.210938 59.539062 L 82.589844 60.574219 C 82.195312 60.707031 81.78125 60.703125 81.65625 60.402344 C 81.652344 60.402344 81.652344 60.398438 81.652344 60.394531 C 82.113281 60.394531 81.882812 60.734375 83.496094 59.707031 C 84.171875 59.28125 85.503906 58.867188 85.582031 58.84375 Z M 85.582031 58.84375 " fill-opacity="1" fill-rule="nonzero"/></svg>