<svg xmlns="http://www.w3.org/2000/svg" xmlns:xlink="http://www.w3.org/1999/xlink" width="40" zoomAndPan="magnify" viewBox="0 0 30 30.000001" height="40" preserveAspectRatio="xMidYMid meet" version="1.0"><defs><clipPath id="2779061689"><path d="M 0.484375 0 L 29.515625 0 L 29.515625 29.03125 L 0.484375 29.03125 Z M 0.484375 0 " clip-rule="nonzero"/></clipPath><clipPath id="e80969dcbf"><path d="M 8.03125 7.839844 L 21.824219 7.839844 L 21.824219 21 L 8.03125 21 Z M 8.03125 7.839844 " clip-rule="nonzero"/></clipPath><clipPath id="e69619b278"><path d="M 12 11 L 21.824219 11 L 21.824219 21.628906 L 12 21.628906 Z M 12 11 " clip-rule="nonzero"/></clipPath></defs><g clip-path="url(#2779061689)"><path fill="#ffffff" d="M 0.484375 0 L 29.515625 0 L 29.515625 36.289062 L 0.484375 36.289062 Z M 0.484375 0 " fill-opacity="1" fill-rule="nonzero"/><path fill="#ffffff" d="M 0.484375 0 L 29.515625 0 L 29.515625 29.03125 L 0.484375 29.03125 Z M 0.484375 0 " fill-opacity="1" fill-rule="nonzero"/><path fill="#ffffff" d="M 0.484375 0 L 29.515625 0 L 29.515625 29.03125 L 0.484375 29.03125 Z M 0.484375 0 " fill-opacity="1" fill-rule="nonzero"/></g><g clip-path="url(#e80969dcbf)"><path fill="#c1694f" d="M 18.011719 20.492188 C 17.417969 21.082031 16.460938 21.082031 15.867188 20.492188 L 8.632812 13.257812 C 8.042969 12.667969 8.042969 12.242188 8.632812 11.648438 L 11.847656 8.4375 C 12.441406 7.84375 12.863281 7.84375 13.457031 8.4375 L 20.691406 15.667969 C 21.28125 16.261719 21.28125 17.21875 20.691406 17.8125 Z M 18.011719 20.492188 " fill-opacity="1" fill-rule="nonzero"/></g><path fill="#8a4b38" d="M 14.3125 13.578125 L 12.464844 11.730469 L 14.605469 9.585938 L 14.070312 9.050781 L 11.929688 11.191406 L 10.511719 9.773438 L 9.972656 10.3125 L 11.390625 11.730469 L 9.25 13.871094 L 9.785156 14.40625 L 11.929688 12.265625 L 13.777344 14.113281 Z M 14.3125 13.578125 " fill-opacity="1" fill-rule="nonzero"/><g clip-path="url(#e69619b278)"><path fill="#dd2e44" d="M 18.011719 21.027344 C 17.417969 21.617188 16.460938 21.617188 15.867188 21.027344 L 12.117188 17.277344 L 17.476562 11.917969 L 21.226562 15.667969 C 21.816406 16.261719 21.816406 17.21875 21.226562 17.8125 Z M 18.011719 21.027344 " fill-opacity="1" fill-rule="nonzero"/></g><path fill="#be1931" d="M 12.890625 18.050781 L 14.660156 19.820312 L 17.675781 12.117188 L 17.476562 11.917969 L 16.90625 11.566406 Z M 12.890625 18.050781 " fill-opacity="1" fill-rule="nonzero"/><path fill="#ccd6dd" d="M 16.671875 11.113281 L 17.476562 11.917969 C 17.207031 12.722656 14.261719 17.8125 13.722656 18.882812 C 13.722656 18.882812 13.457031 19.6875 12.785156 19.015625 L 10.777344 17.007812 C 10.519531 16.75 10.519531 16.195312 10.777344 15.9375 L 15.601562 11.113281 C 16.136719 10.578125 16.671875 11.113281 16.671875 11.113281 Z M 16.671875 11.113281 " fill-opacity="1" fill-rule="nonzero"/></svg>